<svg width="410" height="357" viewBox="0 0 410 357" fill="none" xmlns="http://www.w3.org/2000/svg">
	<g clip-path="url(#clip0_222_36360)">
		<path
			d="M353.18 90.315H302.809C298.575 90.315 295.131 86.8699 295.131 82.6352V32.2553C295.131 28.0206 298.575 24.5754 302.809 24.5754H353.18C357.414 24.5754 360.858 28.0206 360.858 32.2553V82.6352C360.858 86.8699 357.414 90.315 353.18 90.315ZM302.809 25.8042C299.247 25.8042 296.36 28.6925 296.36 32.2553V82.6352C296.36 86.198 299.247 89.0863 302.809 89.0863H338.093C349.987 89.0863 359.63 79.442 359.63 67.5452V32.2553C359.63 28.6925 356.742 25.8042 353.18 25.8042H302.809Z"
			fill="#465670" />
		<path
			d="M353.18 90.315H302.809C298.575 90.315 295.131 86.8699 295.131 82.6352V32.2553C295.131 28.0206 298.575 24.5754 302.809 24.5754H353.18C357.414 24.5754 360.858 28.0206 360.858 32.2553V82.6352C360.858 86.8699 357.414 90.315 353.18 90.315Z"
			fill="var(--lng-palette-primary-main)" />
		<path
			d="M327.687 13.5166C331.419 13.5166 334.444 10.4908 334.444 6.75828C334.444 3.02578 331.419 0 327.687 0C323.956 0 320.93 3.02578 320.93 6.75828C320.93 10.4908 323.956 13.5166 327.687 13.5166Z"
			fill="#465670" />
		<path
			d="M287.163 189.67H236.792C232.558 189.67 229.114 186.225 229.114 181.99V131.611C229.114 127.376 232.558 123.931 236.792 123.931H287.163C291.396 123.931 294.841 127.376 294.841 131.611V181.99C294.841 186.225 291.396 189.67 287.163 189.67ZM236.792 125.159C233.23 125.159 230.342 128.048 230.342 131.611V181.99C230.342 185.553 233.23 188.441 236.792 188.441C268.173 188.441 293.612 162.997 293.612 131.611C293.612 128.048 290.725 125.159 287.163 125.159H236.792Z"
			fill="#465670" />
		<path
			d="M261.67 112.872C265.402 112.872 268.427 109.846 268.427 106.114C268.427 102.381 265.402 99.3552 261.67 99.3552C257.939 99.3552 254.913 102.381 254.913 106.114C254.913 109.846 257.939 112.872 261.67 112.872Z"
			fill="#465670" />
		<path
			d="M263.73 153.407C261.465 154.009 258.83 152.474 258.352 150.141C257.855 147.718 260.001 145.084 262.468 145.066C264.972 145.048 267.138 147.571 266.731 150.036C266.473 151.599 265.507 152.962 264.631 154.24C263.655 155.665 262.634 157.059 261.582 158.429C259.202 161.526 256.663 164.498 254.129 167.471C253.59 168.103 253.968 168.969 254.781 169.044L269.195 170.363C270.375 170.471 270.368 168.627 269.195 168.52L254.781 167.201L255.433 168.774C258.224 165.499 261.011 162.218 263.61 158.787C264.853 157.145 266.108 155.479 267.177 153.717C268.118 152.166 268.831 150.397 268.56 148.554C268.091 145.377 264.933 142.825 261.712 143.288C258.513 143.748 256.045 147.021 256.506 150.222C257.012 153.735 260.85 156.08 264.22 155.184C265.365 154.88 264.879 153.102 263.73 153.407Z"
			fill="#465670" />
		<path
			d="M402.322 251.285H351.951C347.717 251.285 344.273 247.84 344.273 243.605V193.225C344.273 188.991 347.717 185.545 351.951 185.545H402.322C406.556 185.545 410 188.991 410 193.225V243.605C410 247.84 406.556 251.285 402.322 251.285ZM351.951 186.774C348.389 186.774 345.501 189.662 345.501 193.225V243.605C345.501 247.168 348.389 250.056 351.951 250.056C383.332 250.056 408.771 224.612 408.771 193.225C408.771 189.662 405.884 186.774 402.322 186.774H351.951Z"
			fill="#465670" />
		<path
			d="M376.829 174.486C380.561 174.486 383.586 171.46 383.586 167.728C383.586 163.996 380.561 160.97 376.829 160.97C373.097 160.97 370.072 163.996 370.072 167.728C370.072 171.46 373.097 174.486 376.829 174.486Z"
			fill="#465670" />
		<path
			d="M371.541 207.64C374.694 206.037 378.887 207.21 380.039 210.748C380.533 212.264 380.37 213.944 379.375 215.227C378.355 216.541 376.767 217.25 375.115 217.085V218.928C377.177 219.061 379.244 219.805 380.694 221.322C382.013 222.7 382.677 224.793 382.143 226.658C381.626 228.465 379.895 229.809 378.02 229.906C376.152 230.003 374.3 228.806 373.599 227.07C373.161 225.985 371.377 226.459 371.822 227.56C373.391 231.445 378.177 233.034 381.614 230.452C385.122 227.817 384.765 222.631 381.741 219.761C379.949 218.061 377.545 217.242 375.115 217.085C373.919 217.007 373.953 218.812 375.115 218.928C377.309 219.147 379.475 218.082 380.81 216.359C382.152 214.628 382.489 212.335 381.816 210.258C380.29 205.547 374.845 203.895 370.611 206.049C369.553 206.587 370.485 208.177 371.541 207.64Z"
			fill="#465670" />
		<path
			d="M97.028 255.586H46.6577C42.4237 255.586 38.9792 252.141 38.9792 247.906V197.526C38.9792 193.291 42.4237 189.846 46.6577 189.846H97.028C101.262 189.846 104.706 193.291 104.706 197.526V247.906C104.706 252.141 101.262 255.586 97.028 255.586Z"
			fill="#3F3D56" />
		<path
			d="M78.0176 198.173C81.0913 196.567 82.2811 192.772 80.675 189.698C80.5133 189.389 80.3242 189.104 80.1212 188.833L88.47 132.708L76.1278 132.787L70.9776 187.885C68.8436 189.75 68.1733 192.892 69.5438 195.516C71.1499 198.59 74.9437 199.78 78.0176 198.173Z"
			fill="#FFB6B6" />
		<path
			d="M80.0387 93.5336C80.0387 93.5336 76.3499 92.5298 75.8137 100.613C75.3844 107.085 68.9372 146.513 70.7399 155.335C68.4365 156.397 67.0478 158.911 67.5258 161.521L86.1626 159.846C88.7192 156.463 88.7325 152.674 87.2674 151.882L88.764 140.264L97.4147 102.418L82.7181 94.2119L80.0387 93.5336Z"
			fill="#E6E6E6" />
		<path d="M92.262 342.029L99.3443 342.028L102.714 314.706L92.2607 314.706L92.262 342.029Z"
			fill="#FFB6B6" />
		<path
			d="M101.701 342.666V337.864L99.839 337.978L92.2599 338.427L90.5059 338.535L89.1649 354.618L89.093 355.48H94.1218L94.2834 354.624L95.0138 350.732L96.8996 354.624L97.3127 355.48H110.645C111.441 355.48 112.166 355.169 112.698 354.654C113.279 354.109 113.638 353.337 113.638 352.48C114.201 349.852 103.114 344.169 101.701 342.666Z"
			fill="#2F2E41" />
		<path d="M61.1655 333.893L69.0787 335.456L76.4499 310.266L68.5068 307.575L61.1655 333.893Z"
			fill="#FFB6B6" />
		<path
			d="M70.0858 337.045L71.3764 332.419L69.5524 332.028L62.1316 330.423L60.4131 330.055L54.7993 345.186L54.4984 345.997L59.3421 347.349L59.7279 346.568L61.4773 343.016L62.2478 347.271L62.4156 348.207L75.2573 351.791C76.0242 352.005 76.8056 351.9 77.4572 351.547C78.1629 351.179 78.7165 350.531 78.9466 349.707C80.195 347.326 71.0428 338.872 70.0858 337.045Z"
			fill="#2F2E41" />
		<path
			d="M127.339 188.046L127.521 186.13L119.644 164.53L86.0736 171.004C86.0736 171.004 68.7717 192.322 72.6192 206.432C73.6626 210.259 75.8929 255.364 75.2214 256.815C59.7577 290.22 64.0778 313.784 64.0778 313.784C64.0778 313.784 68.9651 318.047 77.337 320.16C79.5213 320.711 96.1316 245.77 96.1316 245.77C96.1316 245.77 95.3999 250.446 94.3796 257.557C91.2273 279.524 86.2757 323.747 90.6751 326.037C96.4985 329.068 102.069 328.506 102.069 328.506C102.069 328.506 120.225 273.943 116.378 261.115"
			fill="#2F2E41" />
		<path
			d="M110.849 95.2302L100.481 84.0773L92.5991 83.6189L81.9784 94.6158L78.0403 105.725C73.6321 116.435 72.6238 128.242 75.1522 139.544L81.2013 166.585C81.2013 166.585 82.133 169.772 79.6916 170.155C77.2501 170.537 77.5428 175.234 77.5428 175.234C77.5428 175.234 78.04 179.305 75.6693 179.664C73.2985 180.022 66.9769 180.022 72.5086 187.136C78.0403 194.249 121.793 167.344 121.793 167.344L122.005 133.994C122.005 133.994 134.329 117.439 121.057 107.957L110.849 95.2302Z"
			fill="#E6E6E6" />
		<path
			d="M136.956 212.578H86.5854C82.3515 212.578 78.907 209.133 78.907 204.899V154.519C78.907 150.284 82.3515 146.839 86.5854 146.839H136.956C141.19 146.839 144.634 150.284 144.634 154.519V204.899C144.634 209.133 141.19 212.578 136.956 212.578Z"
			fill="#874983" />
		<path
			d="M129.306 187.802C131.626 185.224 131.418 181.253 128.841 178.932C128.582 178.698 128.305 178.497 128.02 178.314L116.274 122.801L104.734 127.18L119.12 180.615C117.77 183.107 118.238 186.286 120.437 188.267C123.014 190.588 126.985 190.38 129.306 187.802Z"
			fill="#FFB6B6" />
		<path
			d="M106.008 94.9388C106.008 94.9388 109.49 93.3619 111.303 101.258C112.754 107.579 125.378 145.484 124.998 154.48C127.441 155.162 129.211 157.424 129.154 160.077L110.487 161.382C107.426 158.448 106.812 154.709 108.132 153.695L104.811 142.462L90.2622 106.469L103.47 96.0339L106.008 94.9388Z"
			fill="#E6E6E6" />
		<path
			d="M124.845 345.886C126.114 345.966 126.815 344.389 125.855 343.469L125.76 343.09C125.772 343.059 125.785 343.029 125.798 342.999C127.081 339.938 131.431 339.959 132.703 343.024C133.832 345.745 135.27 348.47 135.624 351.347C135.783 352.616 135.712 353.91 135.43 355.156C138.076 349.374 139.469 343.061 139.469 336.712C139.469 335.116 139.382 333.521 139.203 331.93C139.056 330.628 138.854 329.335 138.592 328.053C137.176 321.124 134.109 314.525 129.685 309.013C127.558 307.851 125.785 306.033 124.714 303.855C124.329 303.069 124.027 302.224 123.885 301.363C124.127 301.394 124.797 297.708 124.615 297.482C124.952 296.97 125.555 296.715 125.924 296.216C127.756 293.731 130.28 294.165 131.597 297.541C134.412 298.962 134.439 301.318 132.712 303.585C131.613 305.027 131.462 306.978 130.498 308.521C130.598 308.648 130.701 308.771 130.8 308.898C132.619 311.232 134.192 313.74 135.518 316.374C135.143 313.446 135.697 309.918 136.64 307.644C137.714 305.053 139.727 302.871 141.499 300.631C143.628 297.94 147.994 299.115 148.369 302.525C148.373 302.558 148.376 302.591 148.38 302.624C148.117 302.773 147.859 302.931 147.607 303.097C146.17 304.048 146.666 306.276 148.369 306.539L148.408 306.545C148.312 307.493 148.15 308.434 147.912 309.359C150.186 318.154 145.276 321.357 138.267 321.501C138.112 321.581 137.961 321.66 137.806 321.736C138.517 323.736 139.084 325.787 139.505 327.866C139.882 329.704 140.143 331.561 140.29 333.426C140.473 335.779 140.457 338.144 140.258 340.493L140.27 340.41C140.774 337.823 142.179 335.406 144.218 333.732C147.256 331.235 151.548 330.316 154.825 328.31C156.403 327.344 158.425 328.592 158.149 330.422L158.136 330.509C157.648 330.708 157.172 330.938 156.712 331.196C156.448 331.344 156.19 331.502 155.939 331.669C154.501 332.619 154.998 334.848 156.701 335.111L156.739 335.116C156.767 335.12 156.791 335.124 156.819 335.128C155.982 337.116 154.815 338.962 153.355 340.553C151.933 348.231 145.827 348.96 139.294 346.724H139.29C138.576 349.835 137.533 352.874 136.192 355.771H125.122C125.083 355.648 125.047 355.521 125.011 355.398C126.035 355.462 127.066 355.402 128.074 355.216C127.253 354.208 126.432 353.192 125.61 352.184C125.591 352.164 125.575 352.144 125.559 352.124C125.142 351.609 124.722 351.097 124.305 350.581L124.305 350.58C124.279 348.997 124.469 347.418 124.845 345.886Z"
			fill="#465670" />
		<path
			d="M37.8339 347.115C36.5649 347.194 35.8635 345.617 36.8236 344.698L36.9191 344.318C36.9066 344.288 36.8939 344.258 36.8812 344.227C35.5978 341.167 31.2484 341.188 29.9759 344.253C28.8465 346.974 27.4086 349.699 27.0546 352.575C26.8958 353.845 26.9672 355.139 27.249 356.385C24.6026 350.603 23.21 344.29 23.21 337.941C23.21 336.345 23.2973 334.75 23.4758 333.159C23.6227 331.857 23.825 330.564 24.0869 329.282C25.5032 322.353 28.5702 315.754 32.9939 310.242C35.1205 309.079 36.894 307.262 37.9652 305.083C38.35 304.298 38.6516 303.452 38.7944 302.591C38.5524 302.623 37.8819 298.936 38.0644 298.71C37.7271 298.198 37.1235 297.944 36.7551 297.444C34.9231 294.96 32.3992 295.394 31.0815 298.77C28.2668 300.191 28.2396 302.547 29.9667 304.813C31.0655 306.255 31.2164 308.206 32.1806 309.75C32.0813 309.877 31.9782 310 31.879 310.127C30.0601 312.46 28.4869 314.968 27.1608 317.603C27.5356 314.675 26.9822 311.147 26.0388 308.873C24.965 306.282 22.9522 304.1 21.1797 301.86C19.0506 299.169 14.6847 300.343 14.3096 303.754C14.306 303.787 14.3025 303.82 14.299 303.853C14.5623 304.002 14.8202 304.16 15.0722 304.326C16.5092 305.277 16.0126 307.505 14.3098 307.768L14.2712 307.774C14.3665 308.722 14.5291 309.663 14.7672 310.587C12.4933 319.383 17.4025 322.586 24.4122 322.73C24.5669 322.81 24.7177 322.889 24.8724 322.964C24.1622 324.964 23.5948 327.016 23.1743 329.095C22.7974 330.933 22.5355 332.79 22.3888 334.655C22.2062 337.008 22.2221 339.373 22.4205 341.722L22.4086 341.639C21.9047 339.052 20.5002 336.635 18.4609 334.96C15.423 332.464 11.1309 331.545 7.85349 329.539C6.27583 328.573 4.25419 329.821 4.52953 331.65L4.54293 331.738C5.03093 331.937 5.50701 332.167 5.96725 332.425C6.23053 332.573 6.48845 332.731 6.7404 332.898C8.17749 333.848 7.68083 336.076 5.97805 336.339L5.93946 336.345C5.91169 336.349 5.88788 336.353 5.86015 336.357C6.69729 338.345 7.86371 340.19 9.32375 341.782C10.7456 349.46 16.8523 350.188 23.3846 347.952H23.3886C24.1027 351.064 25.1462 354.103 26.4872 357H37.5565C37.5962 356.877 37.6319 356.75 37.6676 356.627C36.644 356.69 35.6125 356.631 34.6047 356.444C35.426 355.437 36.2472 354.421 37.0685 353.413C37.0884 353.393 37.1042 353.373 37.1201 353.353C37.5367 352.837 37.9572 352.325 38.3738 351.81L38.374 351.809C38.4001 350.225 38.21 348.647 37.8339 347.115Z"
			fill="#465670" />

		<path
			d="M100.426 76.3277C108.716 76.3277 115.436 69.606 115.436 61.3144C115.436 53.0227 108.716 46.301 100.426 46.301C92.1357 46.301 85.4153 53.0227 85.4153 61.3144C85.4153 69.606 92.1357 76.3277 100.426 76.3277Z"
			fill="#FFB6B6" />
		<path
			d="M114.466 60.7285C114.509 60.7285 114.613 60.7285 114.81 60.7347C115.381 60.7715 114.607 60.7408 114.466 60.7285Z"
			fill="#2F2E41" />
		<path
			d="M122.458 59.297C122.347 59.5673 121.985 59.7885 121.475 59.9667C120.504 58.7317 119.245 57.7303 117.808 57.1097C118.453 58.1604 118.981 59.2785 119.374 60.4459C117.98 60.6486 116.425 60.7346 115.424 60.7408C115.185 60.7408 114.976 60.7408 114.81 60.7346C114.564 60.2984 114.171 59.5919 113.833 58.8607C113.803 60.8575 111.02 66.7433 111.247 71.7199C111.524 77.6733 111.837 84.1674 111.837 84.1674C110.836 84.4193 109.625 84.5975 108.243 84.7081C106.72 81.9126 105.59 78.7853 104.982 75.6151C104.914 75.2772 104.859 74.9393 104.803 74.6014C104.674 74.9884 104.552 75.3816 104.447 75.781C103.986 77.4398 103.716 79.2277 103.63 81.0832C103.569 82.3058 103.593 83.5469 103.685 84.8064C96.1053 86.3485 86.7316 86.1888 79.95 82.4226C80.1772 81.802 80.3493 81.1631 80.4598 80.5118C80.8284 78.3737 77.8553 78.0727 75.8773 79.3813C73.8994 77.3969 72.4006 74.8778 71.5897 71.726C84.514 66.0552 70.9079 59.0758 80.8898 49.0182C79.6858 40.2816 103.802 37.7565 108.471 45.5224C109.49 44.7482 112.666 44.7851 114.018 45.3503C115.369 45.9155 116.413 46.8679 117.433 47.7895C118.115 48.4161 117.795 49.6633 117.359 50.5972C119.503 49.5712 124.288 54.9041 122.458 59.297Z"
			fill="#2F2E41" />
	</g>
	<defs>
		<clipPath id="clip0_222_36360">
			<rect width="410" height="357" fill="white" />
		</clipPath>
	</defs>
</svg>