<?xml version="1.0" encoding="utf-8"?>
<!-- Generator: Adobe Illustrator 23.0.1, SVG Export Plug-In . SVG Version: 6.00 Build 0)  -->
<svg version="1.1" xmlns="http://www.w3.org/2000/svg" xmlns:xlink="http://www.w3.org/1999/xlink" x="0px" y="0px"
	 viewBox="0 0 48 48" style="enable-background:new 0 0 48 48;" xml:space="preserve">
<style type="text/css">
	.logo0{clip-path:url(#SVGID_2_);}
	.logo1{fill:var(--lng-palette-primary-main);}
	.logo2{fill:var(--lng-palette-grey-700);}
	.logo3{clip-path:url(#SVGID_4_);}
</style>
<g>
	<defs>
		<rect id="SVGID_1_" x="-304.13" y="-75.36" width="169.76" height="169.76"/>
	</defs>
	<clipPath id="SVGID_2_">
		<use xlink:href="#SVGID_1_"  style="overflow:visible;"/>
	</clipPath>
	<g class="logo0">
		<path class="logo1" d="M-284.43,22.04c-6.64,0-13.1,0-19.7,0c0-9.37,0-18.64,0-28.12c1.08,0,2.15,0,3.22,0
			c5.32,0,10.64-0.01,15.96,0.01c0.85,0,1.44-0.03,1.72-1.05c2.04-7.38,5.4-14.21,9.96-20.54c0.12-0.17,0.23-0.35,0.34-0.53
			c-4.78-4.42-9.52-8.8-14.09-13.03c7.51-6.98,14.81-13.77,22.36-20.8c0.49,0.5,1.21,1.31,2.01,2.05c3.91,3.66,7.82,7.33,11.8,10.93
			c0.4,0.36,1.39,0.66,1.8,0.45c6.16-3.13,12.62-5.49,19.45-7.01c0.16-0.04,0.31-0.12,0.57-0.22c0-6.45,0-12.94,0-19.55
			c10.42,0,20.73,0,31.2,0c0,1.16,0,2.27,0,3.37c0,5.01,0.03,10.01-0.02,15.02c-0.01,0.97,0.29,1.4,1.33,1.62
			c5.6,1.17,10.96,3.02,16.02,5.54c1.28,0.64,1.95,0.43,2.88-0.47c4.16-3.96,8.39-7.85,12.6-11.77c0.44-0.4,0.9-0.79,1.25-1.09
			c7.77,7.23,15.45,14.38,23.19,21.59c-8.22,7.84-16.57,15.8-25.04,23.88c-12.68-16.91-29.75-25.43-51.74-24.07
			c-15.97,0.99-29.13,7.71-39.14,19.33c-20.2,23.42-14.75,57.77,11.72,74.88c26.08,16.85,61.22,9.83,77.94-13.69
			c-10.49,0-20.83,0-31.28,0c0-5.77,0-11.33,0-16.9c18.49,0,36.98,0,55.89,0c-1.01,3.4-1.76,6.55-2.9,9.58
			c-1.14,3.05-2.54,6.04-4.08,8.94c-0.65,1.22-0.42,1.83,0.53,2.69c4.33,3.95,8.59,7.97,12.9,11.94c0.44,0.41,1.03,0.68,1.41,0.92
			c-7.65,7.12-14.99,13.96-22.45,20.9c-4.46-4.16-9.08-8.48-13.72-12.8c-2.3,1.37-4.43,2.7-6.63,3.92
			c-6.09,3.36-12.62,5.75-19.5,7.26c-1.26,0.27-1.65,0.72-1.63,1.9c0.07,5.16,0.03,10.33,0.03,15.5c0,0.57,0,1.14,0,1.8
			c-10.2,0-20.18,0-30.33,0c0-1.03,0-1.98,0-2.92c0-4.85-0.01-9.69,0.01-14.54c0-0.78,0.01-1.39-1.1-1.63
			c-9.14-1.94-17.53-5.47-25.22-10.44c-0.09-0.06-0.22-0.06-0.48-0.13c-4.42,4.19-8.89,8.43-13.3,12.62
			c-7.68-7.15-15.15-14.1-22.7-21.14c4.33-4.02,8.73-8.2,13.26-12.25c1.23-1.1,1.46-1.87,0.62-3.32
			C-280.9,34.87-283.07,28.66-284.43,22.04z"/>
		<path class="logo2" d="M-236.61,38.65c-4.36,0-8.63,0-12.98,0c0-19.53,0-39.02,0-58.56c4.33,0,8.6,0,12.98,0
			C-236.61-0.44-236.61,19.05-236.61,38.65z"/>
		<path class="logo2" d="M-204.98,38.63c-3.45,0-7.08,0-10.81,0c0-6.92,0.01-13.78-0.01-20.63c-0.01-1.54-0.15-3.08-0.2-4.62
			c-0.03-0.92-0.34-1.53-1.46-1.59c-1.15-0.06-1.69,0.54-1.86,1.48c-0.11,0.63-0.08,1.27-0.08,1.91c0,7.77,0,15.53,0,23.41
			c-3.74,0-7.41,0-11.15,0c0-10.55,0-21.07,0-31.7c3.71,0,7.39,0,11.21,0c0,0.76,0,1.52,0,2.76c2.31-3,5.22-3.68,8.52-3.35
			c3.34,0.34,5.72,2.25,5.78,5.32C-204.87,20.6-204.98,29.58-204.98,38.63z"/>
	</g>
</g>
<g>
	<defs>
		<rect id="SVGID_3_" x="3.48" y="3.48" width="41.04" height="41.04"/>
	</defs>
	<clipPath id="SVGID_4_">
		<use xlink:href="#SVGID_3_"  style="overflow:visible;"/>
	</clipPath>
	<g class="logo3">
		<path class="logo1" d="M8.24,27.03c-1.61,0-3.17,0-4.76,0c0-2.26,0-4.51,0-6.8c0.26,0,0.52,0,0.78,0c1.29,0,2.57,0,3.86,0
			c0.21,0,0.35-0.01,0.42-0.25c0.49-1.78,1.31-3.44,2.41-4.97c0.03-0.04,0.06-0.09,0.08-0.13c-1.16-1.07-2.3-2.13-3.41-3.15
			c1.81-1.69,3.58-3.33,5.41-5.03c0.12,0.12,0.29,0.32,0.49,0.5c0.95,0.89,1.89,1.77,2.85,2.64c0.1,0.09,0.34,0.16,0.43,0.11
			c1.49-0.76,3.05-1.33,4.7-1.69c0.04-0.01,0.07-0.03,0.14-0.05c0-1.56,0-3.13,0-4.73c2.52,0,5.01,0,7.54,0c0,0.28,0,0.55,0,0.81
			c0,1.21,0.01,2.42-0.01,3.63c0,0.23,0.07,0.34,0.32,0.39c1.35,0.28,2.65,0.73,3.87,1.34c0.31,0.15,0.47,0.1,0.7-0.11
			c1-0.96,2.03-1.9,3.05-2.84c0.11-0.1,0.22-0.19,0.3-0.26c1.88,1.75,3.74,3.48,5.61,5.22c-1.99,1.9-4.01,3.82-6.05,5.77
			c-3.07-4.09-7.19-6.15-12.51-5.82c-3.86,0.24-7.04,1.86-9.46,4.67c-4.88,5.66-3.57,13.97,2.83,18.1c6.3,4.07,14.8,2.38,18.84-3.31
			c-2.54,0-5.04,0-7.56,0c0-1.39,0-2.74,0-4.09c4.47,0,8.94,0,13.51,0c-0.24,0.82-0.43,1.58-0.7,2.32
			c-0.28,0.74-0.61,1.46-0.99,2.16c-0.16,0.3-0.1,0.44,0.13,0.65c1.05,0.95,2.08,1.93,3.12,2.89c0.11,0.1,0.25,0.16,0.34,0.22
			c-1.85,1.72-3.62,3.37-5.43,5.05c-1.08-1.01-2.2-2.05-3.32-3.1c-0.56,0.33-1.07,0.65-1.6,0.95c-1.47,0.81-3.05,1.39-4.72,1.75
			c-0.3,0.07-0.4,0.17-0.39,0.46c0.02,1.25,0.01,2.5,0.01,3.75c0,0.14,0,0.28,0,0.43c-2.47,0-4.88,0-7.33,0c0-0.25,0-0.48,0-0.71
			c0-1.17,0-2.34,0-3.51c0-0.19,0-0.34-0.27-0.39c-2.21-0.47-4.24-1.32-6.1-2.53c-0.02-0.01-0.05-0.01-0.12-0.03
			c-1.07,1.01-2.15,2.04-3.22,3.05c-1.86-1.73-3.66-3.41-5.49-5.11c1.05-0.97,2.11-1.98,3.21-2.96c0.3-0.27,0.35-0.45,0.15-0.8
			C9.09,30.13,8.57,28.63,8.24,27.03z"/>
		<path class="logo2" d="M19.8,31.04c-1.06,0-2.09,0-3.14,0c0-4.72,0-9.43,0-14.16c1.05,0,2.08,0,3.14,0
			C19.8,21.59,19.8,26.3,19.8,31.04z"/>
		<path class="logo2" d="M27.45,31.04c-0.83,0-1.71,0-2.61,0c0-1.67,0-3.33,0-4.99c0-0.37-0.04-0.75-0.05-1.12
			c-0.01-0.22-0.08-0.37-0.35-0.38c-0.28-0.01-0.41,0.13-0.45,0.36c-0.03,0.15-0.02,0.31-0.02,0.46c0,1.88,0,3.76,0,5.66
			c-0.9,0-1.79,0-2.69,0c0-2.55,0-5.09,0-7.66c0.9,0,1.79,0,2.71,0c0,0.18,0,0.37,0,0.67c0.56-0.73,1.26-0.89,2.06-0.81
			c0.81,0.08,1.38,0.54,1.4,1.29C27.48,26.68,27.45,28.85,27.45,31.04z"/>
	</g>
</g>
</svg>
