<svg width="491" height="396" viewBox="0 0 491 396" fill="none" xmlns="http://www.w3.org/2000/svg">
<g clip-path="url(#clip0_1485_50123)">
<path d="M279.36 224.012C280.255 223.912 281.118 223.618 281.887 223.149C282.657 222.68 283.314 222.048 283.813 221.298C284.313 220.547 284.641 219.696 284.777 218.804C284.912 217.913 284.851 217.002 284.597 216.137L302.416 203.393L291.797 199.299L276.503 212.028C275.08 212.552 273.897 213.581 273.181 214.919C272.464 216.258 272.262 217.813 272.615 219.291C272.967 220.768 273.848 222.065 275.092 222.935C276.335 223.805 277.853 224.188 279.36 224.012Z" fill="#FFB7B7"/>
<path d="M289.255 215.618L283.344 205.507L283.469 205.364L307.319 178.178L325.838 146.559L341.918 148.61L342.156 153.477L342.108 153.55L316.559 192.002L316.533 192.025L289.255 215.618Z" fill="#3F3D56"/>
<path d="M368.053 386.673H358.961L354.633 351.554H368.054L368.053 386.673Z" fill="#FFB7B7"/>
<path d="M370.373 395.5H341.051V395.128C341.052 392.098 342.254 389.193 344.394 387.051C346.533 384.909 349.435 383.705 352.461 383.704H370.371L370.373 395.5Z" fill="#2F2E41"/>
<path d="M289.789 386.376L280.943 384.261L284.881 349.095L297.936 352.216L289.789 386.376Z" fill="#FFB7B7"/>
<path d="M289.997 395.499L261.477 388.68L261.562 388.319C262.266 385.372 264.109 382.824 266.688 381.238C269.267 379.651 272.37 379.155 275.314 379.858L292.733 384.023L289.997 395.499Z" fill="#2F2E41"/>
<path d="M325.131 130.505V115.178C325.131 109.731 327.292 104.507 331.139 100.656C334.985 96.8044 340.203 94.6406 345.643 94.6406C351.083 94.6406 356.3 96.8044 360.147 100.656C363.993 104.507 366.154 109.731 366.154 115.178V130.505C366.153 131.236 365.863 131.936 365.346 132.453C364.83 132.97 364.13 133.261 363.4 133.262H327.886C327.156 133.261 326.456 132.97 325.939 132.454C325.423 131.937 325.132 131.236 325.131 130.505Z" fill="#2F2E41"/>
<path d="M340.581 133.031C348.886 133.031 355.619 126.29 355.619 117.974C355.619 109.658 348.886 102.916 340.581 102.916C332.275 102.916 325.542 109.658 325.542 117.974C325.542 126.29 332.275 133.031 340.581 133.031Z" fill="#FFB7B7"/>
<path d="M320.278 116.404C320.283 112.097 321.994 107.967 325.036 104.922C328.078 101.876 332.202 100.163 336.504 100.158H339.566C343.867 100.163 347.992 101.876 351.033 104.922C354.075 107.967 355.786 112.097 355.791 116.404V116.71H349.321L347.114 110.524L346.673 116.71H343.329L342.214 113.589L341.991 116.71H320.278V116.404Z" fill="#2F2E41"/>
<path d="M349.35 197.443L311.061 195.985L308.92 170.904C307.27 166.314 307.243 162.369 308.841 159.189C310.215 156.574 312.525 154.576 315.307 153.593L323.686 143.461C324.763 142.159 326.117 141.112 327.648 140.398C329.179 139.683 330.849 139.318 332.538 139.329L354.308 139.478C354.833 139.162 358.016 137.542 364.293 140.265C371.102 143.22 369.521 153.485 369.504 153.588L369.488 153.684L369.413 153.75L354.933 165.962L349.35 197.443Z" fill="#3F3D56"/>
<path d="M311.368 193.289L293.256 226.352L279.524 376.769L295.039 381.513L322.501 263.847L354.37 378.174L372.971 378.638L360.308 246.704L349.242 195.624L311.368 193.289Z" fill="#2F2E41"/>
<path d="M316.718 203.214C316.334 202.896 315.923 203.435 315.8 204.417L312.033 234.225C311.909 235.21 312.119 236.26 312.502 236.583L359.353 275.537C359.736 275.854 360.147 275.317 360.271 274.334L364.038 244.526C364.162 243.541 363.952 242.491 363.569 242.169L316.718 203.214Z" fill="var(--ing-palette-primary-main)"/>
<path d="M359.756 246.815C360.426 246.212 360.956 245.47 361.309 244.64C361.661 243.81 361.828 242.913 361.797 242.012C361.766 241.111 361.538 240.227 361.13 239.424C360.721 238.62 360.141 237.916 359.432 237.361L366.502 216.61L355.486 219.475L350.466 238.74C349.613 239.996 349.25 241.522 349.445 243.028C349.641 244.535 350.382 245.917 351.528 246.912C352.674 247.908 354.145 248.448 355.662 248.43C357.179 248.413 358.637 247.838 359.759 246.816L359.756 246.815Z" fill="#FFB7B7"/>
<path d="M362.915 234.222L352.227 229.453L355.817 193.255L352.473 156.755L366.744 149.044L369.768 152.861V152.948L371.369 199.103L371.361 199.138L362.915 234.222Z" fill="#3F3D56"/>
<path d="M111.454 140.493C125.315 140.493 136.552 129.242 136.552 115.364C136.552 101.486 125.315 90.2361 111.454 90.2361C97.5937 90.2361 86.3574 101.486 86.3574 115.364C86.3574 129.242 97.5937 140.493 111.454 140.493Z" fill="var(--ing-palette-primary-main)"/>
<path d="M116.647 133.64C111.553 133.64 106.574 132.128 102.339 129.295C98.104 126.462 94.8032 122.435 92.854 117.723C90.9047 113.011 90.3947 107.827 91.3884 102.825C92.382 97.8234 94.8347 93.2289 98.4363 89.6228C102.038 86.0167 106.627 83.5609 111.622 82.5659C116.618 81.571 121.796 82.0816 126.502 84.0331C131.207 85.9847 135.229 89.2896 138.059 93.5299C140.889 97.7702 142.399 102.755 142.399 107.855C142.392 114.691 139.676 121.245 134.848 126.079C130.02 130.913 123.474 133.633 116.647 133.64ZM116.647 83.3836C111.813 83.3835 107.087 84.8187 103.068 87.5077C99.0482 90.1967 95.9155 94.0187 94.0656 98.4904C92.2156 102.962 91.7316 107.882 92.6747 112.63C93.6177 117.377 95.9456 121.737 99.3638 125.16C102.782 128.582 107.137 130.913 111.878 131.857C116.619 132.801 121.534 132.317 126 130.464C130.466 128.612 134.283 125.476 136.969 121.451C139.655 117.427 141.088 112.695 141.088 107.855C141.081 101.367 138.503 95.147 133.921 90.5593C129.339 85.9715 123.127 83.3909 116.647 83.3836Z" fill="#3F3D56"/>
<path d="M102.104 103.2C101.842 103.368 101.547 103.479 101.238 103.525C100.93 103.571 100.616 103.552 100.316 103.467L80.3309 98.46C78.6551 100.782 76.405 102.629 73.8014 103.817C71.1979 105.006 68.3303 105.497 65.4802 105.241C62.8051 104.997 60.2302 104.102 57.98 102.634C55.7297 101.165 53.8725 99.1675 52.5703 96.8153C51.268 94.463 50.5603 91.8275 50.5089 89.1386C50.4574 86.4496 51.0638 83.7889 52.2751 81.3885C53.4864 78.988 55.2659 76.9207 57.4583 75.3669C59.6507 73.813 62.1895 72.8198 64.8533 72.4739C67.517 72.1279 70.2249 72.4397 72.7407 73.3821C75.2565 74.3245 77.5038 75.8688 79.2867 77.8804C80.7508 79.5379 81.8681 81.4726 82.5726 83.5699C83.2771 85.6672 83.5545 87.8847 83.3885 90.0912L101.884 99.1753C102.401 99.4154 102.808 99.8443 103.021 100.374C103.233 100.904 103.236 101.496 103.028 102.028C102.853 102.507 102.529 102.918 102.104 103.2Z" fill="#3F3D56"/>
<path d="M66.9603 96.3199C71.1026 96.3199 74.4606 92.9577 74.4606 88.8102C74.4606 84.6627 71.1026 81.3005 66.9603 81.3005C62.818 81.3005 59.46 84.6627 59.46 88.8102C59.46 92.9577 62.818 96.3199 66.9603 96.3199Z" fill="var(--ing-palette-primary-main)"/>
<path d="M127.83 54.8544C127.375 55.1444 126.835 55.2708 126.299 55.213C125.731 55.165 125.202 54.9016 124.82 54.4767C124.439 54.0517 124.234 53.4971 124.247 52.926L124.265 32.2987C121.893 31.3499 119.773 29.8613 118.074 27.9506C116.376 26.0399 115.144 23.7596 114.477 21.2901C113.811 18.8207 113.727 16.2297 114.234 13.7223C114.74 11.215 115.822 8.85997 117.394 6.84366C120.027 3.46728 123.869 1.24941 128.106 0.659713C132.343 0.0700212 136.644 1.15482 140.096 3.68437C143.549 6.21392 145.882 9.98959 146.603 14.2118C147.323 18.4341 146.374 22.7713 143.956 26.305C142.704 28.1286 141.1 29.6822 139.238 30.8741C137.376 32.0659 135.294 32.8718 133.115 33.244L128.786 53.4108C128.731 53.7033 128.619 53.9818 128.454 54.2298C128.29 54.4778 128.078 54.6902 127.83 54.8544Z" fill="#E6E6E6"/>
<path d="M130.382 24.4843C134.524 24.4843 137.882 21.1221 137.882 16.9746C137.882 12.8272 134.524 9.46497 130.382 9.46497C126.24 9.46497 122.882 12.8272 122.882 16.9746C122.882 21.1221 126.24 24.4843 130.382 24.4843Z" fill="#CCCCCC"/>
<path d="M209.418 103.897C207.258 105.302 204.8 106.182 202.24 106.467C199.68 106.752 197.089 106.434 194.674 105.539C192.604 104.764 190.71 103.581 189.105 102.06C187.499 100.54 186.215 98.712 185.327 96.6858L164.737 97.3591C164.171 97.3776 163.617 97.1855 163.184 96.8198C162.75 96.4541 162.467 95.9407 162.389 95.3786C162.311 94.8164 162.444 94.2452 162.761 93.775C163.079 93.3048 163.559 92.969 164.109 92.8321L184.102 87.8601C184.447 85.3254 185.377 82.9059 186.818 80.7931C188.258 78.6803 190.17 76.9322 192.402 75.6871C194.634 74.442 197.125 73.7341 199.677 73.6195C202.23 73.5048 204.774 73.9865 207.108 75.0265C209.814 76.2314 212.144 78.1443 213.855 80.5637C215.566 82.9832 216.594 85.8197 216.83 88.7747C217.066 91.7297 216.503 94.6938 215.198 97.355C213.894 100.016 211.897 102.276 209.418 103.897Z" fill="#E6E6E6"/>
<path d="M200.432 97.6045C204.574 97.6045 207.932 94.2423 207.932 90.0949C207.932 85.9474 204.574 82.5852 200.432 82.5852C196.29 82.5852 192.932 85.9474 192.932 90.0949C192.932 94.2423 196.29 97.6045 200.432 97.6045Z" fill="#CCCCCC"/>
<path d="M151.315 169.882C147.747 172.196 143.423 173.038 139.249 172.233C135.075 171.427 131.374 169.037 128.92 165.561C126.466 162.086 125.45 157.795 126.084 153.586C126.717 149.378 128.953 145.578 132.321 142.981L126.688 123.141C126.533 122.595 126.585 122.011 126.834 121.501C127.084 120.991 127.513 120.592 128.039 120.38C128.565 120.169 129.15 120.159 129.683 120.354C130.215 120.549 130.657 120.934 130.922 121.436L140.578 139.656C143.423 139.349 146.299 139.788 148.923 140.929C151.548 142.071 153.83 143.876 155.548 146.168C156.896 147.972 157.861 150.034 158.382 152.226C158.903 154.418 158.97 156.694 158.578 158.914C158.186 161.133 157.344 163.248 156.104 165.128C154.864 167.009 153.252 168.615 151.368 169.848L151.315 169.882Z" fill="#3F3D56"/>
<path d="M142.363 163.568C146.505 163.568 149.863 160.206 149.863 156.059C149.863 151.911 146.505 148.549 142.363 148.549C138.22 148.549 134.862 151.911 134.862 156.059C134.862 160.206 138.22 163.568 142.363 163.568Z" fill="var(--ing-palette-primary-main)"/>
<path d="M56.6441 182.397C54.1015 184.047 51.1537 184.963 48.125 185.044C45.0962 185.125 42.1039 184.367 39.4771 182.856C36.8503 181.344 34.6909 179.136 33.2363 176.475C31.7817 173.814 31.0884 170.802 31.2325 167.772C31.3767 164.742 32.3528 161.81 34.0534 159.3C35.754 156.789 38.1133 154.797 40.8717 153.542C43.6301 152.287 46.6807 151.818 49.6881 152.187C52.6955 152.555 55.543 153.747 57.9175 155.632L75.7816 145.359C76.2732 145.077 76.8518 144.986 77.4061 145.105C77.9603 145.224 78.451 145.544 78.7835 146.004C79.116 146.464 79.2669 147.03 79.207 147.595C79.1471 148.159 78.8807 148.681 78.4591 149.061L63.1372 162.849C64.4225 166.362 64.4802 170.208 63.3009 173.759C62.1216 177.309 59.7749 180.355 56.6441 182.397Z" fill="#E6E6E6"/>
<path d="M47.1839 176.388C51.3262 176.388 54.6842 173.026 54.6842 168.878C54.6842 164.731 51.3262 161.368 47.1839 161.368C43.0416 161.368 39.6836 164.731 39.6836 168.878C39.6836 173.026 43.0416 176.388 47.1839 176.388Z" fill="#CCCCCC"/>
<path d="M0.817711 395.5H490.182C490.399 395.5 490.607 395.414 490.76 395.26C490.914 395.107 491 394.898 491 394.681C491 394.464 490.914 394.256 490.76 394.102C490.607 393.949 490.399 393.863 490.182 393.863H0.817711C0.600842 393.863 0.392857 393.949 0.239508 394.102C0.0861585 394.256 0 394.464 0 394.681C0 394.898 0.0861585 395.107 0.239508 395.26C0.392857 395.414 0.600842 395.5 0.817711 395.5Z" fill="#CCCCCC"/>
<path d="M34.4468 371.868C36.2391 372.499 38.1634 372.657 40.0343 372.327C41.9053 371.997 43.6598 371.19 45.1288 369.984C48.8704 366.84 50.0429 361.66 50.9976 356.863L53.8206 342.676L47.9104 346.751C43.6599 349.681 39.3137 352.705 36.3694 356.95C33.4252 361.194 32.1419 366.988 34.5065 371.581" fill="#E6E6E6"/>
<path d="M35.3597 390.031C34.6154 384.605 33.8515 379.109 34.3728 373.624C34.8364 368.753 36.3203 363.995 39.342 360.094C40.9459 358.027 42.8975 356.257 45.1092 354.861C45.6856 354.497 46.2167 355.412 45.6423 355.775C41.8155 358.196 38.8558 361.773 37.1898 365.987C35.3498 370.674 35.0541 375.782 35.3715 380.76C35.563 383.771 35.9695 386.761 36.3793 389.749C36.4116 389.884 36.3914 390.026 36.3229 390.147C36.2543 390.268 36.1426 390.358 36.0102 390.399C35.8751 390.436 35.7311 390.417 35.6095 390.348C35.4878 390.279 35.3983 390.164 35.3603 390.03L35.3597 390.031Z" fill="#F2F2F2"/>
<path d="M40.7139 381.323C41.4825 382.493 42.5391 383.445 43.7818 384.087C45.0245 384.729 46.4114 385.04 47.809 384.989C51.4004 384.819 54.3945 382.309 57.0903 379.926L65.0627 372.878L59.7867 372.626C55.9926 372.444 52.1001 372.274 48.4857 373.446C44.8712 374.617 41.5388 377.437 40.8791 381.183" fill="#E6E6E6"/>
<path d="M33.257 393.15C36.8379 386.805 40.9947 379.757 48.4143 377.501C50.4784 376.877 52.6425 376.654 54.7901 376.844C55.4668 376.902 55.2983 377.947 54.6222 377.889C51.0225 377.588 47.4294 378.539 44.4478 380.58C41.6453 382.616 39.2694 385.184 37.455 388.136C36.297 389.902 35.2596 391.742 34.2222 393.58C33.8904 394.169 32.9219 393.744 33.257 393.15Z" fill="#F2F2F2"/>
<path d="M439.489 372.833C437.631 373.61 435.605 373.894 433.606 373.659C431.606 373.424 429.701 372.677 428.074 371.491C423.925 368.393 422.37 362.984 421.068 357.969L417.221 343.132L423.721 347.083C428.396 349.923 433.176 352.859 436.547 357.171C439.918 361.482 441.629 367.533 439.406 372.535" fill="var(--ing-palette-primary-main)"/>
<path d="M438.88 392.957C439.707 382.498 440.419 370.736 433.373 362.064C431.412 359.656 429.009 357.644 426.294 356.139C425.439 355.663 424.801 357.046 425.654 357.522C430.191 360.066 433.714 364.098 435.629 368.938C437.482 373.584 437.961 378.627 437.9 383.591C437.862 386.631 437.621 389.663 437.383 392.694C437.305 393.662 438.803 393.935 438.88 392.957Z" fill="#F2F2F2"/>
</g>
<defs>
<clipPath id="clip0_1485_50123">
<rect width="491" height="395" fill="white" transform="translate(0 0.5)"/>
</clipPath>
</defs>
</svg>
