<svg width="542" height="379" viewBox="0 0 542 379" fill="none" xmlns="http://www.w3.org/2000/svg">
<path d="M443.139 0.303711H331.498C327.36 0.303711 324.006 3.65411 324.006 7.78704V90.1037C324.006 94.2366 327.36 97.587 331.498 97.587H443.139C447.277 97.587 450.631 94.2366 450.631 90.1037V7.78704C450.631 3.65411 447.277 0.303711 443.139 0.303711Z" fill="#F2F6FB"/>
<path d="M343.634 77.5872L362.537 48.8627C364.331 46.1354 368.263 45.8544 370.42 48.2985L378.047 56.9173C381.526 60.8432 387.836 60.2412 390.496 55.7357L408.683 24.892C410.504 21.8022 414.851 21.5895 416.995 24.4751L436.287 50.7517C436.736 51.3638 437.596 51.4952 438.207 51.0453C438.819 50.5953 438.95 49.7344 438.5 49.1223L419.204 22.8394C415.887 18.3745 409.139 18.7047 406.317 23.4938L388.131 54.3363C386.42 57.2344 382.346 57.6231 380.102 55.0921L372.478 46.4755C369.123 42.6743 363.032 43.1097 360.243 47.3492L341.34 76.0735C340.923 76.7078 341.098 77.5609 341.731 77.9789C342.365 78.3969 343.217 78.2215 343.634 77.5872Z" fill="#E1E5F0"/>
<path d="M351.353 67.577C353.629 67.577 355.474 65.7296 355.474 63.4506C355.474 61.1717 353.629 59.3242 351.353 59.3242C349.077 59.3242 347.232 61.1717 347.232 63.4506C347.232 65.7296 349.077 67.577 351.353 67.577Z" fill="#3ABF7C"/>
<path d="M397.308 45.3192C399.584 45.3192 401.429 43.4718 401.429 41.1928C401.429 38.9139 399.584 37.0664 397.308 37.0664C395.033 37.0664 393.188 38.9139 393.188 41.1928C393.188 43.4718 395.033 45.3192 397.308 45.3192Z" fill="#FFCB3D"/>
<path d="M207.119 0.303711H84.615C83.3736 0.303711 82.3672 1.30883 82.3672 2.54871V95.342C82.3672 96.5819 83.3736 97.587 84.615 97.587H207.119C208.361 97.587 209.367 96.5819 209.367 95.342V2.54871C209.367 1.30883 208.361 0.303711 207.119 0.303711Z" fill="#F2F6FB"/>
<path d="M183.609 52.5713H188.032C189.702 52.5713 190.307 52.745 190.918 53.0711C191.528 53.3972 192.007 53.8757 192.334 54.4854C192.66 55.0952 192.834 55.7 192.834 57.3679V97.5867H178.807V57.3679C178.807 55.7 178.981 55.0952 179.307 54.4854C179.634 53.8757 180.113 53.3972 180.723 53.0711C181.334 52.745 181.939 52.5713 183.609 52.5713Z" fill="#D8DEED"/>
<path d="M167.578 63.3252H172.251C173.921 63.3252 174.526 63.4989 175.137 63.825C175.747 64.1511 176.227 64.6296 176.553 65.2393C176.88 65.8491 177.053 66.4539 177.053 68.1218V97.5869H162.775V68.1218C162.775 66.4539 162.949 65.8491 163.276 65.2393C163.602 64.6296 164.081 64.1511 164.692 63.825C165.302 63.4989 165.908 63.3252 167.578 63.3252Z" fill="#D8DEED"/>
<path d="M151.797 29.8135H156.219C157.889 29.8135 158.495 29.9871 159.105 30.3132C159.716 30.6393 160.195 31.1179 160.521 31.7276C160.848 32.3374 161.022 32.9422 161.022 34.6101V97.5867H146.994V34.6101C146.994 32.9422 147.168 32.3374 147.495 31.7276C147.821 31.1179 148.3 30.6393 148.911 30.3132C149.521 29.9871 150.127 29.8135 151.797 29.8135Z" fill="#E1E5F0"/>
<path d="M135.765 38.5664H140.188C141.858 38.5664 142.463 38.7401 143.074 39.0662C143.684 39.3923 144.164 39.8708 144.49 40.4806C144.817 41.0903 144.991 41.6951 144.991 43.363V97.5866H130.963V43.363C130.963 41.6951 131.137 41.0903 131.463 40.4806C131.79 39.8708 132.269 39.3923 132.879 39.0662C133.49 38.7401 134.095 38.5664 135.765 38.5664Z" fill="#D8DEED"/>
<path d="M119.984 59.0732H124.407C126.077 59.0732 126.682 59.2469 127.293 59.573C127.903 59.8991 128.382 60.3776 128.709 60.9874C129.035 61.5971 129.209 62.202 129.209 63.8698V97.5864H115.182V63.8698C115.182 62.202 115.356 61.5971 115.682 60.9874C116.009 60.3776 116.488 59.8991 117.098 59.573C117.709 59.2469 118.314 59.0732 119.984 59.0732Z" fill="#D8DEED"/>
<path d="M103.953 48.8193H108.375C110.045 48.8193 110.651 48.993 111.261 49.3191C111.872 49.6452 112.351 50.1237 112.678 50.7335C113.004 51.3432 113.178 51.9481 113.178 53.6159V97.586H99.1504V53.6159C99.1504 51.9481 99.3243 51.3432 99.6508 50.7335C99.9773 50.1237 100.456 49.6452 101.067 49.3191C101.677 48.993 102.283 48.8193 103.953 48.8193Z" fill="#D8DEED"/>
<path d="M528.44 295.377V295.447C528.44 296.345 527.654 297.093 526.755 297.093H498.469L508.435 315.353C515.553 328.374 522.634 341.357 529.714 354.378L541.44 375.855C541.852 376.604 541.515 377.576 540.728 378.025L540.578 378.1C539.792 378.549 538.78 378.287 538.406 377.576L494.536 297.093H465.315L421.446 377.576C421.071 378.287 420.06 378.512 419.273 378.1L419.123 378.025C418.336 377.576 417.999 376.604 418.411 375.855L430.137 354.378C437.255 341.357 444.336 328.374 451.416 315.353L461.382 297.093H423.881C422.944 297.093 422.195 296.345 422.195 295.447V295.26C422.195 294.362 422.982 293.613 423.881 293.613H449.356C465.952 293.613 482.586 293.613 499.219 293.613H525.133L528.291 268.095C530.463 250.734 532.599 233.335 534.772 215.936L538.331 187.2C538.443 186.19 539.305 185.442 540.241 185.554L540.429 185.592C541.328 185.704 541.965 186.639 541.852 187.575L528.478 295.185C528.468 295.25 528.456 295.314 528.44 295.377Z" fill="#D8DEED"/>
<path d="M165.706 233.226C165.333 233.885 164.625 234.33 163.814 234.33H109.979C108.78 234.33 107.844 233.357 107.844 232.16C107.844 230.962 108.818 229.989 109.979 229.989H162.343L180.597 180.936C181.009 179.814 182.246 179.252 183.369 179.664C184.493 180.076 185.055 181.31 184.643 182.433L165.874 232.871C165.828 232.996 165.772 233.115 165.706 233.226Z" fill="#474961"/>
<path d="M13.9229 295.002V295.072C13.9229 295.97 14.7096 296.718 15.6088 296.718H43.894L33.9282 314.978C26.8102 327.999 19.7297 340.982 12.6492 354.003L0.923218 375.48C0.511124 376.229 0.848289 377.201 1.63501 377.65L1.78487 377.725C2.57159 378.174 3.5831 377.912 3.95773 377.201L47.827 296.718H77.0483L120.918 377.201C121.292 377.912 122.304 378.137 123.09 377.725L123.24 377.65C124.027 377.201 124.364 376.229 123.952 375.48L112.226 354.003C105.108 340.982 98.0276 327.999 90.9471 314.978L80.9813 296.718H118.482C119.419 296.718 120.168 295.97 120.168 295.072V294.885C120.168 293.987 119.382 293.238 118.482 293.238H93.0076C76.4114 293.238 59.7778 293.238 43.1441 293.238H17.2306L14.0728 267.72C11.8999 250.359 9.76451 232.96 7.59164 215.561L4.03265 186.825C3.92027 185.815 3.05861 185.067 2.12203 185.179L1.93472 185.217C1.0356 185.329 0.398727 186.264 0.511124 187.2L13.8855 294.81C13.8952 294.875 13.9077 294.939 13.9229 295.002Z" fill="#D8DEED"/>
<path d="M240.987 296.943H211.354C210.454 296.943 209.668 296.195 209.668 295.297V295.11C209.668 294.212 210.454 293.463 211.428 293.463H238.889C255.523 293.463 272.156 293.463 288.752 293.463H314.227C315.126 293.463 315.913 294.212 315.913 295.11V295.297C315.913 296.195 315.164 296.943 314.227 296.943H278.075L288.041 315.202C295.121 328.223 302.202 341.207 309.32 354.228L321.046 375.705C321.458 376.454 321.12 377.426 320.334 377.875L320.184 377.95C319.397 378.362 318.386 378.137 318.011 377.426L274.142 296.943H244.92L201.051 377.426C200.677 378.137 199.665 378.399 198.878 377.95L198.728 377.875C197.942 377.426 197.605 376.454 198.017 375.705L209.743 354.228C216.823 341.207 223.904 328.223 231.022 315.202L240.987 296.943ZM209.78 282.28V260.525C209.78 243.933 209.78 227.379 209.78 210.824V191.054C209.78 187.954 212.296 185.441 215.4 185.441H276.539C279.643 185.441 282.159 187.954 282.159 191.054V282.345C282.159 285.444 279.643 287.957 276.539 287.957C276.537 287.957 276.535 287.957 276.533 287.957L215.394 287.893C212.292 287.89 209.78 285.378 209.78 282.28Z" fill="#D8DEED"/>
<path d="M330.263 378.212H270.734C269.797 378.212 269.048 377.464 269.048 376.528C269.048 375.593 269.797 374.845 270.734 374.845H330.263C331.199 374.845 331.949 375.593 331.949 376.528C331.949 377.464 331.199 378.212 330.263 378.212ZM221.17 378.212C220.234 378.212 219.484 377.565 219.484 376.788V376.269C219.484 375.492 220.271 374.845 221.17 374.845H259.57C260.506 374.845 261.256 375.492 261.256 376.269V376.788C261.256 377.565 260.469 378.212 259.57 378.212H221.17Z" fill="#A339FF"/>
<path d="M330.853 374.948C330.67 374.881 330.471 374.844 330.263 374.844H270.734C270.463 374.844 270.208 374.907 269.981 375.018C269.935 374.856 269.91 374.685 269.91 374.507L271.221 353.816C271.146 352.693 272.008 351.833 273.095 351.795L296.959 351.646C297.371 351.646 297.745 351.758 298.082 352.02C302.353 356.585 306.437 359.129 309.396 360.626C311.682 361.785 319.324 365.003 322.771 366.575C324.531 367.361 326.217 368.296 327.866 369.306C327.978 369.381 328.053 369.418 328.165 369.531C329.027 370.316 330.338 371.738 330.825 373.422C330.9 373.647 330.9 373.834 330.938 374.058C330.975 374.245 330.938 374.432 330.938 374.619V374.657C330.917 374.757 330.888 374.855 330.853 374.948ZM259.786 374.855C259.716 374.848 259.644 374.844 259.57 374.844H221.171C221.169 374.844 221.168 374.844 221.166 374.844L229.862 351.683L256.686 355.312L259.786 374.855Z" fill="#474961"/>
<path d="M269.322 287.109C268.026 288.048 266.897 288.865 265.933 289.56L265.451 297.505C265.226 301.706 264.964 305.396 264.665 308.648C264.44 311.205 261.555 340.176 260.506 350.807C260.281 353.218 258.67 355.264 256.46 355.921C253.126 356.944 228.1 355.775 227.164 355.337C225.965 354.789 225.328 354.533 224.691 353.912C222.444 351.793 222.593 348.432 222.556 347.19C222.331 337.801 221.657 309.561 221.657 289.796C221.657 289.732 221.657 289.667 221.657 289.602C219.187 287.484 217.003 284.299 215.294 280.345C212.694 274.37 211.109 266.6 211.064 258.165C211.064 258.061 211.064 252.985 211.064 242.937C211.064 242.898 211.064 242.898 211.064 242.859C211.109 240.086 213.752 237.899 216.88 237.899H251.463C256.265 238.056 261.023 238.212 265.825 238.368C273.299 238.565 283.933 238.855 297.726 239.238C303.119 239.387 307.991 242.493 310.398 247.316C311.544 249.614 312.241 251.503 312.488 252.982C313.971 255.599 314.791 258.656 314.715 261.912C314.715 261.985 314.715 262.021 314.715 262.094C314.116 292.094 307.11 334.831 306.623 349.283C306.586 349.831 306.436 351.035 305.649 352.313C303.214 356.218 297.52 355.342 284.22 355.67C272.906 355.962 268.336 356.838 266.013 353.626C264.739 351.875 264.777 349.867 264.814 348.955C265.865 328.18 267.46 307.183 269.322 287.109Z" fill="#474BFF"/>
<path opacity="0.176986" d="M269.309 287.247C268.01 288.189 266.882 289.005 265.925 289.694L267.362 265.977C267.399 264.333 267.587 254.396 260.132 248.076C254.699 243.509 248.106 243.217 243.723 243.034C236.979 242.742 231.735 244.641 230.723 245.007C229.449 245.482 228.812 245.737 228.176 246.066C220.908 249.866 221.47 268.132 221.545 271.457C221.618 275.594 221.656 281.997 221.657 289.447C219.26 287.331 217.14 284.204 215.471 280.345C212.872 274.37 211.286 266.6 211.242 258.165C211.242 258.061 211.242 252.985 211.242 242.937C211.242 242.898 211.242 242.898 211.242 242.859C211.286 240.086 213.93 237.899 217.057 237.899H251.641C256.443 238.056 261.201 238.212 266.003 238.368C273.477 238.565 284.111 238.855 297.904 239.238C303.297 239.387 308.169 242.493 310.575 247.316C311.838 249.846 312.555 251.88 312.727 253.418C309.872 248.022 304.245 244.379 297.782 244.503C294.635 244.576 291.526 244.649 288.379 244.722C279.95 244.941 272.944 251.474 272.045 260.014C271.094 268.818 270.173 277.933 269.309 287.247Z" fill="#444444"/>
<path d="M259.821 160.437C262.752 160.49 267.365 161.045 271.921 163.69C272.707 164.138 273.866 164.884 275.138 165.966C276.222 166.9 279.401 169.998 282.431 178.732C283.516 181.793 286.695 187.765 288.527 191.05C289.126 192.132 288.415 193.476 287.143 193.588C283.135 193.875 278.191 195.518 273.519 195.527C273.903 202.51 274.174 210.838 274.278 220.127C274.278 220.127 274.876 231.182 271.435 234.765C270.839 235.396 259.666 234.739 247.798 235.116C235.07 235.52 221.512 236.829 218.358 233.527C213.256 228.185 216.173 226.739 220.855 196.312C220.121 196.387 219.438 196.454 218.83 196.51C214.101 196.958 204.197 196.659 199.43 196.472C198.164 196.435 197.345 195.013 197.866 193.816C199.43 190.187 202.186 183.64 203.005 180.31C205.351 170.808 208.292 167.329 209.298 166.281C210.452 165.084 211.611 164.269 212.314 163.7C214.671 161.79 222.106 160.412 234.618 159.566C240.011 157.732 246.168 158.259 250.154 158.613C252.941 158.866 256.455 159.178 259.821 160.437Z" fill="#A339FF"/>
<path opacity="0.176986" d="M259.944 160.447C262.89 160.544 267.306 161.163 271.672 163.698C272.459 164.147 273.62 164.896 274.894 165.981C275.98 166.916 279.165 170.022 282.199 178.777C283.285 181.845 286.694 187.751 288.53 191.043C289.13 192.128 288.418 193.475 287.144 193.588C285.973 193.672 284.655 193.916 283.402 194.122C282.906 194.204 281.535 194.364 280.924 194.492C277.972 195.114 276.251 195.527 273.499 195.527C273.485 195.527 273.471 195.527 273.457 195.527C272.864 184.76 272.002 177.189 271.071 174.219C270.434 172.198 269.511 169.879 269.511 169.879C269.061 168.569 268.336 167.222 266.875 165.388C264.906 162.946 262.472 161.424 259.944 160.447ZM251.126 164.437C250.452 168.403 249.216 169.574 249.216 169.574C246.369 167.928 236.216 162.791 237.153 159.984C237.228 159.797 237.377 159.423 238.351 158.825C242.023 156.58 246.518 157.665 248.092 158.114C248.092 158.114 255.322 157.29 256.708 161.519C258.094 165.747 256.446 168.74 256.446 168.74C255.247 168.017 253.474 166.582 251.126 164.437Z" fill="#444444"/>
<path d="M274.231 225.684L273.499 195.526L283.425 194.122L286.458 231.101C286.718 231.236 286.971 231.369 287.216 231.5C289.363 232.649 291.142 234.741 292.553 237.776C292.625 237.929 292.66 238.097 292.658 238.265C292.649 238.885 292.139 239.381 291.518 239.372L212.626 238.231C193.792 234.501 198.915 208.987 202.603 196.59C207.779 196.752 215.09 196.881 218.959 196.516C222.615 196.184 228.963 195.453 232.696 194.894L226.002 214.925C243.978 215.816 261.631 220.817 274.231 225.684ZM253.22 155.678L253.051 162.579C245.884 165.219 240.8 161.157 240.8 161.157C240.8 161.157 241.069 156.013 241.607 145.726C241.52 145.539 241.436 145.343 241.354 145.134C240.679 143.45 238.252 137.922 238.777 136.014C238.873 135.611 236.871 129.614 239.803 126.589C242.587 123.716 250.305 123.797 250.615 123.816C251.927 123.853 253.238 123.816 254.661 123.516C254.811 123.516 254.961 123.479 255.111 123.479C256.385 123.367 263.54 123.03 267.212 128.343C267.549 128.792 267.848 129.278 268.111 129.877C268.673 131.262 268.935 132.758 268.823 134.255L268.298 140.915C268.223 141.589 268.111 142.262 267.961 142.898C266.874 147.613 265.114 151.467 263.24 153.899C261.854 155.732 260.356 156.78 259.045 156.817C258.67 156.855 256.647 156.817 254.287 156.106C254.133 156.055 254.172 156.091 253.22 155.678Z" fill="#F2A98A"/>
<path d="M233.636 194.832C233.512 195.116 233.181 195.247 232.896 195.123C232.612 194.999 232.481 194.669 232.605 194.385C233.33 192.719 233.622 191.788 234.184 189.356C234.254 189.054 234.555 188.866 234.858 188.935C235.16 189.005 235.349 189.306 235.279 189.608C234.703 192.103 234.391 193.097 233.636 194.832ZM226.399 214.142C226.708 214.113 226.982 214.34 227.012 214.648C227.041 214.957 226.814 215.231 226.505 215.26C226.432 215.267 226.289 215.283 226.086 215.31C225.746 215.355 225.365 215.416 224.955 215.492C223.783 215.71 222.613 216.014 221.526 216.416C220.884 216.654 220.29 216.919 219.755 217.213C219.483 217.363 219.141 217.264 218.992 216.992C218.842 216.72 218.941 216.379 219.213 216.23C219.8 215.907 220.444 215.62 221.135 215.364C222.289 214.937 223.519 214.617 224.749 214.388C225.179 214.308 225.578 214.245 225.937 214.197C226.064 214.18 226.176 214.167 226.274 214.156C226.334 214.149 226.376 214.145 226.399 214.142Z" fill="#482D1F"/>
<path opacity="0.2" d="M286.392 231.14C283.3 229.526 279.127 227.627 274.162 225.705L273.43 195.527L283.356 194.122L286.392 231.14Z" fill="#8C2A00"/>
<path d="M253.23 155.688L253.125 159.512L247.953 153.312C248.027 153.349 248.102 153.386 248.18 153.423C248.93 153.798 249.866 154.209 251.065 154.733C252.115 155.201 252.789 155.497 253.23 155.688Z" fill="#482D1F"/>
<path d="M249.075 137.893L249.041 137.174C249.041 137.174 248.891 135.827 247.955 134.48C247.88 134.405 247.243 133.582 246.269 133.17C244.508 132.497 242.186 133.283 240.912 134.892C239.563 136.538 239.563 138.745 240.275 140.429C240.987 142.113 242.373 142.899 242.86 143.123L245.033 143.797L245.042 143.793C243.143 146.573 241.49 148.997 241.49 148.997C241.49 148.997 238.364 146.117 236.978 143.834C236.304 142.712 233.906 139.98 233.494 135.677C233.382 134.255 232.932 129.429 236.154 125.874C237.278 124.639 238.552 124.041 239.076 123.779C242.036 122.469 244.209 123.255 249.903 123.367C250.352 123.367 251.102 123.405 252.076 123.367C253.837 123.33 255.073 123.255 255.41 123.255C258.22 123.143 264.326 124.003 267.024 128.157C267.173 128.456 267.361 128.718 267.511 128.942C266.724 129.204 265.862 129.691 264.813 129.878C261.966 130.327 259.531 129.765 258.07 129.242C255.223 131.936 252.338 134.592 249.491 137.286C249.361 137.476 249.222 137.679 249.075 137.893Z" fill="#DE6903"/>
<path d="M266.135 142.086C266.248 141.637 266.697 141.3 267.147 141.375C267.446 141.412 267.671 141.637 267.784 142.161C267.896 143.47 266.472 145.117 266.06 144.331C265.798 143.807 266.023 142.722 266.135 142.086ZM258.221 141.065C258.333 140.616 258.783 140.279 259.232 140.354C259.532 140.392 259.757 140.616 259.869 141.14C259.981 142.45 258.558 144.096 258.146 143.31C257.846 142.786 258.071 141.701 258.221 141.065Z" fill="#482D1F"/>
<path d="M263.578 142.341L263.615 146.082C263.615 146.097 263.558 146.154 263.54 146.154C263.336 146.154 263.126 146.14 262.799 146.109C262.736 146.102 262.669 146.096 262.574 146.086C262.453 146.074 262.387 146.067 262.324 146.061C262.108 146.039 261.929 146.022 261.737 146.005C261.531 145.987 261.349 146.14 261.332 146.346C261.314 146.552 261.466 146.733 261.672 146.751C261.86 146.767 262.036 146.784 262.249 146.805C262.312 146.812 262.377 146.818 262.498 146.831C262.595 146.84 262.662 146.847 262.727 146.853C263.076 146.887 263.306 146.902 263.54 146.902C263.972 146.902 264.365 146.51 264.365 146.079L264.327 142.333C264.325 142.127 264.156 141.961 263.949 141.963C263.742 141.965 263.576 142.134 263.578 142.341Z" fill="#482D1F"/>
<path d="M260.956 148.886C260.693 148.773 260.057 148.474 260.019 148.1C260.019 148.025 259.982 147.913 260.057 147.875C260.244 147.688 260.693 147.875 261.368 148.062C262.567 148.362 263.541 148.437 263.541 148.437C263.541 148.437 263.166 149.035 262.941 149.185C262.492 149.597 261.33 149.073 260.956 148.886Z" fill="#482D1F"/>
<path d="M262.617 142.751C262.02 145.032 259.942 146.715 257.471 146.715C254.533 146.715 252.151 144.336 252.151 141.402C252.151 140.751 252.268 140.128 252.482 139.552L249.512 138.275C249.216 138.183 249.051 137.868 249.143 137.572C249.235 137.276 249.55 137.111 249.846 137.203L252.981 138.551C253.925 137.071 255.583 136.089 257.471 136.089C260.409 136.089 262.79 138.468 262.79 141.402C262.79 141.482 262.789 141.561 262.785 141.64L263.954 141.76C264.461 139.354 266.599 137.548 269.159 137.548C272.097 137.548 274.479 139.927 274.479 142.861C274.479 145.796 272.097 148.174 269.159 148.174C266.226 148.174 263.848 145.804 263.839 142.877L262.617 142.751ZM253.666 139.632C253.415 140.17 253.275 140.77 253.275 141.402C253.275 143.716 255.153 145.593 257.471 145.593C259.788 145.593 261.667 143.716 261.667 141.402C261.667 139.088 259.788 137.211 257.471 137.211C255.88 137.211 254.495 138.096 253.784 139.399C253.781 139.412 253.778 139.424 253.774 139.436C253.751 139.51 253.714 139.576 253.666 139.632ZM264.975 142.542C264.967 142.648 264.963 142.754 264.963 142.861C264.963 145.176 266.842 147.052 269.159 147.052C271.476 147.052 273.355 145.176 273.355 142.861C273.355 140.547 271.476 138.671 269.159 138.671C267.026 138.671 265.264 140.261 264.998 142.319C265.002 142.356 265.002 142.394 264.998 142.433C264.994 142.471 264.986 142.507 264.975 142.542Z" fill="#482D1F"/>
<path d="M74.872 377.876C74.8349 377.853 74.7985 377.828 74.7628 377.801L37.1498 349.813C36.4006 349.252 36.2507 348.167 36.8126 347.419C37.3746 346.67 38.461 346.521 39.2103 347.082L76.421 374.77H96.6787C97.6153 374.77 98.402 375.556 98.402 376.491C98.402 377.427 97.6153 378.212 96.6787 378.212H75.8867C75.5057 378.212 75.1557 378.089 74.872 377.876ZM194.645 378.212H135.116C134.179 378.212 133.43 377.464 133.43 376.529C133.43 375.593 134.179 374.845 135.116 374.845H194.645C195.581 374.845 196.331 375.593 196.331 376.529C196.331 377.464 195.581 378.212 194.645 378.212Z" fill="#DE3190"/>
<path d="M195.022 374.981C194.847 374.919 194.657 374.886 194.459 374.886H134.93C134.773 374.886 134.621 374.907 134.477 374.946C134.358 374.702 134.291 374.427 134.291 374.134L133.729 353.443C133.654 352.321 134.515 351.46 135.602 351.423L161.339 351.273C161.751 351.273 162.126 351.385 162.463 351.647C166.734 356.212 170.817 358.756 173.777 360.253C176.062 361.413 183.705 364.631 187.151 366.202C188.912 366.988 190.598 367.923 192.246 368.934C192.359 369.008 192.433 369.046 192.546 369.158C193.408 369.944 194.719 371.366 195.206 373.049C195.281 373.274 195.281 373.461 195.318 373.685C195.356 373.873 195.318 374.06 195.318 374.247V374.284C195.265 374.541 195.162 374.776 195.022 374.981ZM97.2512 374.992C97.0212 374.876 96.7635 374.811 96.4933 374.811H76.2355L39.166 347.228L53.1456 327.438L75.6984 343.79C76.9347 347.98 78.2084 352.171 79.4822 356.399C80.1565 358.607 80.8309 360.777 81.5052 362.947C83.6031 363.77 85.4013 364.518 86.6751 365.08C89.1102 366.127 91.1707 367.1 93.4185 368.559C93.4185 368.559 95.3665 369.757 96.453 371.478C96.7901 372.039 97.0898 372.675 97.2772 373.349C97.3521 373.648 97.3521 373.947 97.3895 374.209C97.3778 374.455 97.3222 374.73 97.2512 374.992Z" fill="#474961"/>
<path d="M144.687 239.169L154.919 239.035C157.991 238.848 161.849 240.756 164.734 242.926C165.333 243.375 165.858 243.862 166.345 244.386C166.794 244.872 167.244 245.396 167.619 245.957C169.267 248.314 170.129 251.121 170.091 254.002C170.016 260.25 169.267 265.114 168.78 266.723C165.596 276.564 157.429 313.494 165.633 329.471C165.633 329.471 169.791 337.516 168.892 343.54C168.546 345.961 167.214 348.793 166.797 349.636C166.807 349.649 166.816 349.661 166.826 349.674C163.695 354.185 124.801 360.814 94.9179 351.01C90.8363 349.671 84.8778 348.129 78.0595 345.099C77.7598 344.986 77.4601 344.837 77.1978 344.65C72.5899 341.694 67.9819 338.775 63.374 335.819L51.7978 328.411C49.5875 326.989 48.9507 324.145 50.3742 322.087L59.7775 308.393L65.397 300.199C66.9704 297.879 68.6188 295.484 70.3046 293.052C71.1068 293.078 69.6582 293.015 65.9589 292.865C53.0622 292.341 36.2507 289.872 29.8819 279.657C26.6601 274.456 26.0981 268.993 25.8359 266.486C24.3748 251.856 31.683 244.32 34.0778 241.941C35.6743 240.355 39.694 237.81 46.1368 234.306L88.0821 236.777L128.56 238.274C128.628 238.24 137.033 237.622 144.687 239.169Z" fill="#FFCB3D"/>
<path opacity="0.2" d="M144.557 239.171L154.919 239.035C157.991 238.848 161.849 240.756 164.734 242.926C165.333 243.375 165.858 243.862 166.345 244.386C166.794 244.872 167.244 245.396 167.619 245.957C169.267 248.314 170.129 251.121 170.091 254.002C170.016 260.25 169.267 265.115 168.78 266.723C165.596 276.564 157.429 313.494 165.633 329.471C165.633 329.471 169.792 337.516 168.892 343.54C168.541 345.999 167.172 348.881 166.779 349.674C163.402 345.164 150.04 324.579 155.335 289.387C155.485 288.489 158.771 269.091 158.771 263.74C158.771 244.417 154.085 241.667 145.958 239.511C145.496 239.389 145.028 239.275 144.557 239.171Z" fill="#8C2A00"/>
<path d="M87.5122 268.056C85.6638 270.849 83.7172 273.562 78.9907 280.02C74.2484 286.499 72.2957 289.22 70.429 292.04C70.2008 292.385 70.2956 292.85 70.6408 293.077C70.986 293.305 71.4508 293.211 71.6791 292.866C73.5274 290.073 75.474 287.36 80.2005 280.903C84.9428 274.424 86.8955 271.702 88.7622 268.882C88.9904 268.537 88.8956 268.073 88.5504 267.845C88.2052 267.617 87.7404 267.712 87.5122 268.056Z" fill="#482D1F"/>
<path d="M68.5661 166.095C71.4887 165.898 75.2405 166.438 78.4723 169.545C81.6192 172.538 80.1207 175.157 84.841 183.164C87.2012 187.131 89.449 189.75 88.6248 192.219C88.3251 193.142 87.4385 194.003 85.9649 194.801C82.6931 195.225 80.6826 195.475 79.9333 195.549C79.7316 195.568 79.5006 195.59 79.263 195.614L78.6596 206.17L78.6221 206.544L77.5732 225.14L77.3484 228.77C77.3484 229.069 77.3109 229.331 77.2735 229.63C77.236 229.967 77.1985 230.266 77.1611 230.603C77.0487 231.464 76.8614 232.287 76.6366 233.11C76.5242 233.447 76.4493 233.783 76.2994 234.12L38.0121 233.821L33.9111 195.615C30.8753 195.511 27.6468 195.4 24.2257 195.282C22.4025 194.608 21.3036 193.822 20.9289 192.924C19.9174 190.492 22.7646 187.649 25.7242 183.383C31.6808 174.852 29.8452 172.345 33.7413 169.015C38.905 164.599 44.1713 163.941 47.7393 164.182C47.8185 164.159 47.8978 164.136 47.9773 164.114C49.8505 163.59 51.8735 163.365 53.9339 163.477L62.1758 164.001C64.4483 164.122 66.5982 164.88 68.5661 166.095Z" fill="#DE3190"/>
<path opacity="0.176986" d="M68.4297 166.105C71.3712 165.882 75.1897 166.39 78.4717 169.545C81.6186 172.538 80.1201 175.158 84.8404 183.165C87.2006 187.131 89.4484 189.75 88.6242 192.22C88.3245 193.143 87.4379 194.003 85.9643 194.801C82.6925 195.225 80.682 195.475 79.9327 195.55C79.6837 195.572 79.3901 195.602 79.0945 195.632L79.6539 185.844C79.0171 178.772 75.2333 171.176 69.7637 167.023C69.3293 166.694 68.8843 166.388 68.4297 166.105Z" fill="#444444"/>
<path d="M77.844 217.393L78.4564 206.536L78.4939 206.161L79.0994 195.569L85.3188 194.808L87.2543 218.198C91.3825 218.535 95.5362 218.854 99.7146 219.154C104.248 219.491 108.781 219.79 113.239 220.052C113.854 219.694 118.988 219.221 124.904 220.052C126.722 220.308 129.39 221.053 132.907 222.289C139.575 224.239 144.05 225.623 146.331 226.443C149.752 227.672 146.331 229.968 141.561 229.968C140.602 229.968 126.93 230.47 122.958 231.028C123.025 231.019 123.095 231.009 123.168 231L125.509 231.635C126.715 231.93 127.866 232.377 128.994 233.011C130 233.575 131.005 234.139 132.011 234.703C132.286 234.881 132.536 235.172 132.668 235.541C133.095 236.65 132.968 238.652 132.011 238.648L73.9274 236.866C74.9021 236.794 75.875 236.718 76.8477 236.64C67.9217 237.296 58.9763 237.702 48.8397 237.638C42.9205 237.601 41.422 237.414 39.6237 236.478C31.9063 232.475 30.4078 220.875 29.1715 210.735C28.6619 206.805 28.2807 201.636 28.529 195.486C40.4393 195.896 49.7601 196.212 56.4915 196.435C56.4893 196.737 56.4861 197.027 56.4821 197.303C56.4447 201.194 56.3323 204.786 56.6694 210.099C56.8193 212.307 56.8568 214.14 56.9317 215.338C63.8216 216.078 70.7938 216.763 77.844 217.393ZM65.5131 161.958L65.0033 163.932C66.7565 164.589 68.2774 165.818 69.9314 167.07C69.7066 168.043 69.2945 168.716 68.8075 169.203C65.8479 172.159 56.3822 169.652 47.2037 164.039C47.9597 163.828 49.999 162.998 53.6349 162.898C53.928 162.89 54.2711 162.89 54.6643 162.898C55.5396 161.09 56.3802 159.456 57.2983 157.434C57.2844 157.426 57.2744 157.42 57.2689 157.417L58.2054 150.607C58.168 150.195 58.2804 150.532 57.9057 150.382C56.9692 150.046 56.145 149.409 55.5081 148.586C54.4217 147.09 54.1969 144.994 54.9461 143.123C55.8078 141.365 57.8683 140.093 59.6665 140.392C60.3408 140.504 60.9402 140.804 61.5022 141.253L61.5397 141.29C61.727 141.477 61.9892 141.552 62.214 141.589C62.8509 141.627 63.4128 141.215 63.4877 140.579L64.5367 130.851C64.5742 130.215 64.1993 129.941 64.8362 129.978C65.7603 130.053 67.2881 130.053 69.4197 129.978C69.607 129.978 71.0521 129.978 71.202 129.978C72.0972 130.127 78.96 129.766 82.4441 135.378C82.7438 135.939 83.0435 136.463 83.2683 137.025C83.8302 138.409 84.0175 139.943 83.8302 141.477L82.9311 148.25C82.8187 148.923 82.6689 149.597 82.4815 150.27C80.0839 158.539 75.8506 164.077 72.6287 164.039C70.9804 163.965 69.332 163.665 67.796 163.067C67.5945 162.966 67.7242 163.046 65.5131 161.958Z" fill="#DB9E75"/>
<path opacity="0.2" d="M77.6614 217.59L78.2815 206.598L78.319 206.224L78.9254 195.614L85.3187 194.809L87.111 218.398C83.946 218.14 80.796 217.871 77.6614 217.59ZM123.155 231.042L125.281 231.615C126.487 231.91 127.678 232.3 128.806 232.934C129.812 233.498 131.005 234.139 132.011 234.703C132.286 234.881 132.535 235.172 132.668 235.542C133.095 236.65 132.967 238.653 132.011 238.648L73.7832 236.926C81.5978 236.348 89.3021 235.561 97.675 234.766C100.26 234.541 121.526 231.585 122.725 231.099C122.857 231.08 123.001 231.061 123.155 231.042Z" fill="#8C2A00"/>
<path d="M52.193 216.27C51.8842 216.301 51.6085 216.076 51.5771 215.768C51.5458 215.46 51.7707 215.184 52.0794 215.153L56.8747 214.667C57.1835 214.635 57.4592 214.86 57.4906 215.168C57.5219 215.477 57.297 215.752 56.9883 215.783L52.193 216.27ZM56.3494 196.658C56.0435 196.606 55.8381 196.315 55.8906 196.01C55.9432 195.704 56.2337 195.499 56.5396 195.552C56.5519 195.554 56.5864 195.559 56.64 195.564C57.1245 195.611 57.6857 195.562 58.2026 195.35C59.1437 194.963 59.7328 194.112 59.817 192.558C59.9255 190.553 59.8432 188.958 59.6417 187.747C59.5941 187.46 59.5435 187.221 59.4937 187.027C59.4654 186.917 59.4451 186.851 59.4363 186.826C59.3327 186.534 59.4859 186.213 59.7784 186.11C60.0709 186.006 60.3921 186.159 60.4957 186.451C60.5643 186.645 60.6588 187.012 60.7504 187.563C60.9655 188.857 61.0521 190.533 60.9392 192.618C60.832 194.6 59.9772 195.834 58.6306 196.388C57.9181 196.681 57.183 196.744 56.5316 196.681C56.4497 196.673 56.388 196.665 56.3494 196.658Z" fill="#482D1F"/>
<path d="M65.6595 161.794L61.8008 160.11L64.5356 165.685L65.6595 161.794Z" fill="#482D1F"/>
<path d="M64.2203 147.359L63.1865 143.684C62.8493 142.786 62.2873 142.001 61.5755 141.365C61.0136 140.916 60.4142 140.616 59.7398 140.504C57.9416 140.205 55.8811 141.477 55.0195 143.235C54.1953 144.994 54.3826 147.089 55.5814 148.586C56.317 149.578 57.3413 150.281 58.5481 150.59C58.0265 153.489 57.2673 157.491 57.2673 157.491C57.2673 157.491 56.3468 157.064 54.5057 156.211C50.0472 153.721 47.6246 149.077 47.2381 142.278C39.981 145.071 33.0453 143.122 30.3313 138.97C28.2708 135.789 28.7241 131.552 28.8702 130.963C30.3313 125.075 35.3514 124.19 35.3514 124.19C35.3514 124.19 42.5817 120.486 50.2991 131.786C50.3283 131.829 50.3574 131.872 50.3866 131.916C51.2273 131.048 52.2652 130.416 53.3711 129.952C56.4806 128.68 58.6909 129.578 64.6101 129.84C65.8089 129.915 67.6071 129.952 69.8549 129.878C70.0422 129.878 70.1921 129.878 70.3419 129.878C71.6906 129.84 78.983 129.802 82.4671 135.415C82.4296 135.527 82.3771 135.632 82.2926 135.789C82.2926 135.789 75.0584 148.266 64.2203 147.359ZM78.5463 146.229C77.7971 146.304 76.5608 146.341 75.5867 145.929C73.9009 145.293 75.6991 144.508 77.2726 144.657C78.0219 144.695 78.5463 145.106 78.8835 145.443C79.1083 145.742 78.921 146.191 78.5463 146.229ZM84.8776 147.014C84.0909 147.164 82.9295 147.314 81.8806 146.977C80.1198 146.491 81.8056 145.518 83.4165 145.555C84.2407 145.593 84.7652 145.892 85.1398 146.229C85.4021 146.491 85.2522 146.94 84.8776 147.014Z" fill="#482D1F"/>
<path d="M81.5074 150.906C81.2452 150.419 81.5074 149.409 81.6947 148.773C81.8071 148.324 82.2941 148.062 82.7062 148.137C82.9685 148.212 83.2682 148.399 83.2682 148.923C83.3431 150.195 81.8446 151.729 81.5074 150.906ZM75.3635 150.045C75.0638 149.559 75.3635 148.549 75.5508 147.912C75.6632 147.463 76.1502 147.202 76.5623 147.276C76.8245 147.351 77.1242 147.538 77.1242 148.062C77.1992 149.334 75.7381 150.868 75.3635 150.045Z" fill="#482D1F"/>
<path d="M81.5293 148.019C81.5885 147.821 81.4757 147.613 81.2774 147.554C81.0791 147.495 80.8704 147.607 80.8113 147.805L80.1744 149.938L80.1635 149.986L79.5267 153.952C79.5243 153.966 79.492 153.987 79.4251 153.978C79.036 153.885 78.5844 153.773 78.1031 153.649C77.9028 153.597 77.6985 153.718 77.6467 153.918C77.595 154.118 77.7155 154.322 77.9159 154.374C78.4022 154.499 78.859 154.612 79.2863 154.712C79.7719 154.783 80.1932 154.51 80.2661 154.073L80.8995 150.129L81.5293 148.019Z" fill="#482D1F"/>
<path d="M65.6604 161.981L62.7383 160.521L64.012 167.406L65.6604 161.981Z" fill="#482D1F"/>
<path d="M76.8247 157.304C76.5624 157.229 75.9256 157.005 75.8506 156.556C75.8506 156.481 75.8132 156.369 75.8506 156.294C75.963 156.107 77.1619 156.294 77.1619 156.294C78.6604 156.556 79.0725 156.519 79.1474 156.743C79.1849 156.855 79.1474 157.005 78.8102 157.304C78.3981 157.866 77.1993 157.454 76.8247 157.304Z" fill="#482D1F"/>
<path d="M409.214 375.218H460.894C461.831 375.218 462.58 375.966 462.58 376.902C462.58 377.837 461.831 378.585 460.894 378.585H401.365H357.533C356.597 378.585 355.848 377.837 355.848 376.902C355.848 375.966 356.597 375.218 357.533 375.218H409.214Z" fill="#FF5645"/>
<path d="M357.907 375.218H357.533C357.424 375.218 357.318 375.228 357.216 375.247C357.11 375.069 357.032 374.87 356.987 374.657V374.619C356.987 374.432 356.95 374.245 356.987 374.058C357.025 373.834 357.025 373.647 357.1 373.422C357.351 372.554 357.998 371.537 359.04 370.371C359.632 369.709 360.327 369.146 361.099 368.706C362.819 367.724 364.171 367.014 365.154 366.575C368.601 365.003 376.243 361.785 378.529 360.626C381.488 359.129 385.572 356.585 389.843 352.02C390.18 351.758 390.554 351.646 390.966 351.646L412.453 351.795C413.54 351.795 414.402 352.693 414.327 353.816L416.133 363.95C418.035 363.129 419.746 362.337 421.857 361.112C423.618 360.102 426.09 358.455 428.862 355.986C430.398 354.639 431.972 353.292 433.508 351.945L456.698 351.646L461.468 375.254C461.55 375.271 461.63 375.294 461.707 375.322L461.73 375.437C461.492 375.302 461.216 375.223 460.922 375.218C460.912 375.218 460.903 375.218 460.893 375.218H409.213H400.619H357.907Z" fill="#474961"/>
<path opacity="0.176986" d="M409.325 375.218H409.213H357.533C357.424 375.218 357.318 375.228 357.216 375.247C357.11 375.069 357.032 374.87 356.987 374.657V374.619C356.987 374.432 356.95 374.245 356.987 374.058C357.025 373.834 357.025 373.647 357.1 373.422C357.351 372.554 357.998 371.537 359.04 370.371C359.632 369.709 360.327 369.146 361.099 368.706C362.819 367.724 364.171 367.014 365.154 366.575C368.601 365.003 376.243 361.785 378.529 360.626C381.488 359.129 385.572 356.585 389.843 352.02C390.18 351.758 390.554 351.646 390.966 351.646L412.453 351.795C413.54 351.795 414.402 352.693 414.327 353.816L416.149 364.04C414.156 364.897 411.934 365.805 408.82 367.286C407.021 368.146 405.298 369.119 403.612 370.204C402.788 370.953 401.365 372.487 400.915 374.283C400.84 374.582 400.84 374.881 400.803 375.143C400.803 375.169 400.816 375.193 400.844 375.218H409.438H409.325ZM461.73 375.437C461.492 375.302 461.216 375.223 460.922 375.218L461.118 375.218C461.326 375.218 461.524 375.255 461.707 375.322L461.73 375.437Z" fill="#444444"/>
<path d="M407.775 239.458C408.42 239.355 409.03 239.322 409.606 239.358L478.126 239.096L509.52 239.021C510.794 239.096 516.168 240.738 517.404 242.144C518.603 242.78 526.266 250.695 524.993 265.4C524.768 267.87 524.281 273.37 521.134 278.608C517.837 284.071 512.293 288.075 505.512 290.357C499.518 292.378 492.512 293.089 485.244 292.303C469.884 289.534 454.562 286.803 439.202 284.034V284.595L439.277 284.857C439.277 284.857 441.15 288.374 442.761 292.003C444.372 295.595 446.62 312.583 446.62 312.695C450.291 318.532 454 326.427 456.847 336.38C457.971 340.383 458.571 343.526 458.795 344.724C459.248 347.291 459.607 350.392 459.873 354.026C459.877 354.081 459.879 354.135 459.879 354.19C459.879 355.43 458.873 356.435 457.632 356.435C457.268 356.435 456.981 356.435 456.772 356.435L423.468 356.398L413.225 356.347C412.883 356.437 412.524 356.485 412.155 356.485L384.807 356.373H382.597C380.424 356.373 378.588 354.652 378.476 352.482C378.213 348.104 377.876 342.342 377.464 335.682C376.34 318.882 375.741 313.531 375.067 300.585C374.954 298.415 374.842 296.469 374.767 294.636C374.467 285.917 373.68 277.761 372.144 267.097C371.283 261.185 370.871 257.518 370.833 254.413C370.796 251.532 371.657 248.688 373.306 246.331C374.13 245.171 375.067 244.16 376.19 243.3C379.075 241.092 381.141 239.59 388.379 239.483C394.105 239.399 400.73 239.425 407.775 239.458Z" fill="#3ABF7C"/>
<path opacity="0.176986" d="M407.976 239.428C407.883 239.44 407.79 239.455 407.696 239.47C405.073 239.919 402.114 241.453 399.828 243.212C398.705 244.073 397.731 245.083 396.944 246.243C395.295 248.563 394.434 251.331 394.434 254.175V254.362C394.471 257.468 394.883 261.135 395.708 267.046C397.244 277.71 398.03 285.83 398.33 294.585C398.405 296.381 398.517 298.364 398.63 300.534C399.267 313.443 399.903 318.794 401.027 335.631C401.477 342.291 401.814 348.016 402.039 352.431C402.151 354.601 403.987 356.323 406.16 356.323H408.37L413.103 356.346C412.798 356.417 412.481 356.454 412.155 356.454L384.807 356.342H382.597C380.424 356.342 378.588 354.621 378.476 352.451C378.213 348.073 377.876 342.311 377.464 335.651C376.34 318.851 375.741 313.5 375.067 300.554C374.954 298.384 374.842 296.438 374.767 294.605C374.467 285.887 373.68 277.73 372.144 267.066C371.283 261.154 370.871 257.487 370.833 254.382C370.796 251.501 371.657 248.657 373.306 246.3C374.13 245.14 375.067 244.13 376.19 243.269C379.075 241.061 381.141 239.56 388.379 239.453C394.16 239.367 400.856 239.394 407.976 239.428L407.976 239.428Z" fill="#444444"/>
<path d="M439.017 283.201C438.552 282.745 438.068 282.267 437.562 281.767C437.425 281.632 437.425 281.632 437.288 281.496C435.86 280.083 434.692 278.919 432.428 276.658C432.135 276.365 431.66 276.365 431.368 276.658C431.075 276.95 431.075 277.424 431.368 277.716C433.634 279.979 434.803 281.144 436.233 282.559C436.37 282.695 436.37 282.695 436.507 282.831C437.014 283.332 437.5 283.811 437.966 284.268C438.261 284.558 438.735 284.554 439.025 284.259C439.316 283.965 439.312 283.491 439.017 283.201Z" fill="#482D1F"/>
<path d="M488.196 161.816C490.402 161.068 492.806 160.716 495.303 160.849C505.23 161.335 512.873 169.23 512.386 178.472C512.147 182.99 509.994 186.995 506.694 189.839L514.99 220.127C516.264 224.916 515.814 229.78 513.941 233.971C513.679 234.57 513.379 235.168 513.079 235.729C512.742 236.328 512.368 236.927 511.993 237.488C511.581 238.087 511.131 238.685 510.644 239.247H469.847C469.51 238.685 469.173 238.124 468.873 237.488C468.573 236.927 468.311 236.328 468.086 235.729C467.861 235.168 467.674 234.57 467.487 233.971C467.449 233.859 467.412 233.746 467.374 233.634L456.768 196.71L449.029 197.562C448.354 197.636 447.717 197.187 447.642 196.551L447.305 193.932C447.292 193.815 447.297 193.7 447.319 193.591C446.047 192.819 444.881 191.893 443.896 190.827C442.473 189.292 441.386 187.496 440.749 185.439C438.202 177.282 443.859 168.564 453.374 166.019C457.204 164.995 461.083 165.117 464.517 166.16C465.972 165.149 467.567 164.372 469.285 163.889L477.489 161.457C481.267 160.898 484.901 161.028 488.196 161.816Z" fill="#FF5645"/>
<path opacity="0.176986" d="M456.712 196.717L449.029 197.562C448.354 197.637 447.717 197.188 447.642 196.552L447.305 193.932C447.292 193.815 447.297 193.701 447.319 193.591C446.047 192.819 444.881 191.893 443.896 190.827C442.473 189.293 441.386 187.497 440.749 185.439C438.202 177.282 443.859 168.564 453.374 166.02C457.226 164.99 461.126 165.118 464.574 166.177C456.822 171.483 452.977 183.377 455.539 192.632L456.712 196.717Z" fill="#444444"/>
<path d="M450.217 167.668C450.217 167.668 449.505 170.512 453.289 169.726C457.073 168.94 458.159 168.566 458.159 168.566L457.185 165.984L450.217 167.668Z" fill="#482D1F"/>
<path d="M463.263 160.24C463.139 160.273 463.017 160.304 462.895 160.333L463.28 160.278L463.263 160.24ZM473.289 154.203L474.231 153.824L478.764 161.644L471.291 163.982L478.615 198.724C478.615 198.724 479.237 196.217 480.034 191.695C480.072 191.708 480.111 191.718 480.151 191.727L500.868 196.329C500.955 196.349 501.042 196.359 501.128 196.36C500.403 199.25 499.631 202.725 498.807 206.32C496.672 215.599 496.335 219.902 492.926 226.038C489.029 233.035 485.433 233.222 484.009 233.746C480.825 234.981 477.641 234.794 475.655 234.307C473.273 233.731 468.909 232.803 465.206 226.079L467.376 233.634C467.413 233.746 467.451 233.858 467.488 233.971C467.675 234.569 467.863 235.168 468.087 235.729C468.312 236.328 468.575 236.927 468.874 237.488C469.174 238.124 469.511 238.685 469.848 239.246H474.647L412.469 239.325C412.295 239.325 412.135 239.266 412.007 239.166C401.695 232.943 396.588 228.192 396.685 224.914C399.804 224.44 404.256 223.789 410.04 222.961C413.635 222.447 417.285 222.458 420.876 222.992L432.167 224.674C440.616 221.969 451.889 218.417 454.704 217.805L449.87 197.469L456.77 196.71L460.013 208.003C458.118 194.631 458.608 180.698 456.896 167.283L452.952 167.369C450.63 168.304 445.759 169.876 445.235 166.546C445.235 166.546 451.679 163.889 456.212 161.944L456.549 161.644C456.849 161.382 457.111 161.233 457.485 161.12C457.56 161.083 457.635 161.083 457.71 161.083L459.508 160.821L459.76 160.785C459.163 160.814 458.747 160.799 458.597 160.784C455.467 160.559 451.816 154.834 450.177 146.565C450.028 145.892 449.991 145.218 449.916 144.545L449.618 137.847C449.544 136.351 449.842 134.854 450.549 133.544C450.848 132.983 451.146 132.459 451.481 132.048C455.318 126.884 462.397 127.445 463.663 127.595C463.812 127.595 463.961 127.632 464.11 127.632C465.526 127.969 466.793 128.081 468.134 128.044C468.73 128.044 469.214 128.53 469.252 129.129L469.438 138.708C469.475 139.606 474.02 137.885 474.02 137.847C476.202 136.201 478.938 145.069 477.82 146.378C477.001 147.276 474.691 148.548 474.02 148.773C473.611 148.923 473.312 149.259 473.238 149.633C473.493 151.528 473.511 153.052 473.289 154.203Z" fill="#DB9E75"/>
<path opacity="0.2" d="M449.868 197.5L456.768 196.741L467.374 233.665C467.411 233.777 467.449 233.89 467.486 234.002C467.673 234.6 467.861 235.199 468.086 235.76C468.31 236.359 468.573 236.958 468.872 237.519C469.172 238.155 469.509 238.716 469.846 239.278H474.645L412.467 239.356C412.293 239.356 412.133 239.297 412.005 239.198C401.693 232.974 396.586 228.223 396.683 224.945C399.802 224.471 404.254 223.82 410.038 222.993C413.633 222.478 417.283 222.489 420.874 223.024L432.165 224.705C440.614 222 451.887 218.448 454.702 217.836L449.868 197.5Z" fill="#8C2A00"/>
<path d="M394.989 230.026C399.009 225.084 407.285 221.082 421.137 230.3C423.249 231.658 422.534 236.112 420.21 236.162L396.261 236.565C394.461 236.625 393.648 231.689 394.989 230.026Z" fill="#474961"/>
<path d="M484.798 136.587C489.603 139.738 494.19 144.369 493.374 147.426C492.737 149.895 490.339 151.205 487.904 152.552C485.938 153.629 482.306 155.296 477.077 155.646C477.077 155.65 477.077 155.654 477.077 155.658C475.841 155.845 474.642 156.032 473.406 156.219C472.769 156.294 472.17 155.845 472.132 155.209C472.32 153.862 472.507 152.515 472.694 151.168C472.862 150.496 473.04 149.647 473.148 148.737C473.746 148.593 475.08 148.207 476.103 147.014C477.227 145.705 477.827 143.722 477.077 141.813C476.403 139.98 474.53 138.558 472.732 138.708C471.72 138.783 470.933 139.344 470.821 139.419C470.009 140.034 469.332 140.875 468.964 141.379C467.2 140.696 464.464 139.236 462.205 136.351C461.68 135.702 461.068 134.742 460.369 133.469C456.637 134.315 453.503 134.103 450.966 132.833C451.52 131.78 452.384 130.827 453.557 129.974C455.317 128.696 455.511 128.541 457.732 127.918C459.123 127.528 461.752 127.404 463.634 127.595H463.703C465.839 127.82 467.599 127.894 468.761 127.894C474.455 128.007 476.665 127.258 479.55 128.68C480.074 128.942 481.311 129.616 482.397 130.888C483.937 132.685 484.567 134.766 484.798 136.587ZM450.862 149.454C452.28 154.508 453.788 156.368 453.596 156.368C453.404 156.368 452.905 156.63 449.046 155.545C447.136 155.021 445.337 154.498 444.513 152.964C443.352 150.793 446.813 146.31 449.885 143.316C449.885 145.532 450.252 147.203 450.862 149.454ZM448.605 142.038C448.231 141.963 448.081 141.514 448.343 141.252C448.68 140.953 449.242 140.579 449.992 140.541C451.528 140.466 453.213 141.364 451.565 141.888C450.516 142.262 449.317 142.15 448.605 142.038ZM455.873 142.038C455.499 141.963 455.349 141.514 455.649 141.252C455.986 140.953 456.548 140.579 457.334 140.541C458.87 140.466 460.556 141.402 458.908 141.888C457.784 142.262 456.623 142.15 455.873 142.038Z" fill="#482D1F"/>
<path d="M451.416 144.919C451.491 145.556 451.566 146.603 451.229 147.052C450.742 147.726 449.581 146.005 449.843 144.807C449.955 144.283 450.217 144.134 450.517 144.134C450.967 144.134 451.341 144.47 451.416 144.919ZM458.085 144.695C458.197 145.331 458.272 146.379 457.897 146.828C457.41 147.501 456.249 145.78 456.511 144.583C456.624 144.059 456.886 143.909 457.186 143.909C457.635 143.909 458.01 144.246 458.085 144.695Z" fill="#482D1F"/>
<path d="M478.187 198.921C478.099 198.623 478.269 198.311 478.567 198.223C478.865 198.135 479.177 198.305 479.265 198.603L482.974 211.137C483.062 211.434 482.892 211.747 482.594 211.834C482.297 211.922 481.984 211.752 481.896 211.455L478.187 198.921ZM503.559 192.471C503.568 192.537 503.566 192.606 503.55 192.674L502.914 195.478C502.697 196.454 501.724 197.057 500.745 196.84C500.442 196.773 500.251 196.473 500.318 196.17C500.386 195.868 500.686 195.677 500.989 195.744C501.367 195.828 501.736 195.599 501.817 195.233L502.365 192.822C502.265 192.769 502.18 192.686 502.125 192.577C501.986 192.3 502.099 191.963 502.376 191.824C503.976 191.025 505.464 189.973 506.732 188.743C506.954 188.527 507.31 188.532 507.526 188.754C507.743 188.977 507.738 189.332 507.515 189.548C506.346 190.682 505.003 191.673 503.559 192.471ZM480.41 187.473C480.408 187.498 480.404 187.523 480.398 187.548L479.762 190.352C479.678 190.73 479.907 191.098 480.272 191.179C480.575 191.247 480.766 191.546 480.698 191.849C480.631 192.152 480.331 192.342 480.028 192.275C479.052 192.058 478.447 191.086 478.665 190.107L479.302 187.3C479.327 187.191 479.382 187.097 479.456 187.025C479.014 186.491 478.681 186.023 478.404 185.548C478.155 185.121 477.946 184.684 477.725 184.138C477.575 183.765 477.482 183.515 477.149 182.602C477.043 182.311 477.194 181.989 477.485 181.883C477.777 181.777 478.099 181.927 478.205 182.219C478.533 183.117 478.624 183.362 478.767 183.717C478.969 184.217 479.155 184.607 479.375 184.982C479.668 185.485 480.038 185.988 480.575 186.608C480.778 186.843 480.752 187.197 480.517 187.4C480.484 187.429 480.448 187.453 480.41 187.473ZM465.871 159.592C464.485 160.228 463.544 161.353 461.381 161.569C459.658 161.981 458.197 161.495 457.447 161.12C457.522 161.083 457.597 161.083 457.672 161.083L459.47 160.821C460.332 160.821 461.716 160.671 463.327 160.222L465.871 159.592Z" fill="#482D1F"/>
<path d="M456.174 152.253C456.436 152.178 457.073 151.954 457.185 151.542C457.185 151.467 457.223 151.355 457.185 151.28C457.035 151.056 456.548 151.168 455.874 151.243C454.675 151.355 453.701 151.243 453.701 151.243C453.701 151.243 454.001 151.991 454.188 152.178C454.6 152.777 455.799 152.403 456.174 152.253Z" fill="#482D1F"/>
<path d="M453.364 145.231L453.366 145.177L453.363 145.204L453.364 145.231ZM452.916 149.18L452.914 149.222C452.914 149.63 453.194 150.01 453.602 150.078C453.677 150.085 453.718 150.088 453.76 150.09C454.156 150.116 454.441 150.12 455.462 150.12C455.668 150.12 455.836 149.953 455.836 149.746C455.836 149.539 455.668 149.372 455.462 149.372C454.459 149.372 454.182 149.368 453.809 149.344C453.77 149.341 453.731 149.338 453.692 149.335C453.7 149.335 453.669 149.292 453.664 149.237L454.111 145.26L454.113 145.206L454.038 142.998C454.031 142.792 453.857 142.63 453.651 142.637C453.444 142.644 453.282 142.817 453.289 143.024L453.363 145.204L452.916 149.18Z" fill="#482D1F"/>
<path d="M514.692 234.158H36.2884C34.8401 234.158 33.666 235.331 33.666 236.777C33.666 238.224 34.8401 239.397 36.2884 239.397H514.692C516.141 239.397 517.315 238.224 517.315 236.777C517.315 235.331 516.141 234.158 514.692 234.158Z" fill="#D8DEED"/>
<path d="M333.849 228.546L337.451 214.028H310.407C307.597 214.028 305.274 211.895 305.274 209.313V168.192C305.237 165.573 307.522 163.44 310.369 163.44H392.676C395.486 163.44 397.808 165.573 397.808 168.155V209.313C397.808 211.895 395.486 214.028 392.676 214.028H359.717L358.23 228.546H367.988C369.487 228.546 370.648 229.744 370.648 231.203C370.648 232.699 369.449 233.859 367.988 233.859H326.217C324.718 233.859 323.557 232.662 323.557 231.203C323.482 229.744 324.718 228.546 326.217 228.546H333.849Z" fill="#474961"/>
<path fill-rule="evenodd" clip-rule="evenodd" d="M360.835 203.446L360.946 228.584H358.26L360.835 203.446Z" fill="white"/>
<path d="M323.631 6.66504H200.377C196.239 6.66504 192.885 10.0154 192.885 14.1484V105.071C192.885 109.204 196.239 112.554 200.377 112.554H323.631C327.769 112.554 331.124 109.204 331.124 105.071V14.1484C331.124 10.0154 327.769 6.66504 323.631 6.66504Z" fill="#F2F6FB"/>
<path d="M275.034 86.4656C288.42 78.7478 293.022 61.6808 285.312 48.3452C277.602 35.0097 260.499 30.4555 247.113 38.1733C233.727 45.891 229.125 62.9581 236.835 76.2936C244.546 89.6292 261.648 94.1833 275.034 86.4656ZM270.56 78.7267C261.452 83.9774 249.826 80.8815 244.589 71.8233C239.352 62.765 242.48 51.1628 251.587 45.9121C260.695 40.6614 272.321 43.7573 277.558 52.8156C282.795 61.8738 279.667 73.476 270.56 78.7267Z" fill="#E1E5F0"/>
<path d="M244.877 34.3033C229.351 43.2546 224.013 63.0541 232.959 78.5283C241.906 94.0025 261.746 99.2857 277.272 90.3345C292.798 81.3832 298.136 61.5837 289.189 46.1095L281.435 50.5799C287.909 61.7768 284.044 76.1114 272.798 82.5956C261.551 89.0798 247.187 85.2548 240.713 74.0579C234.239 62.861 238.104 48.5264 249.351 42.0422L244.877 34.3033Z" fill="#474BFF"/>
<path d="M244.641 33.0488C228.692 42.244 223.208 62.5838 232.399 78.481C241.59 94.3781 261.972 99.8056 277.92 90.6104L272.559 81.3368C261.738 87.5758 247.918 83.8957 241.691 73.1241C235.463 62.3525 239.181 48.5613 250.002 42.3224L244.641 33.0488Z" fill="#D8DEED"/>
<path d="M192.885 12.6536C192.885 9.34622 195.569 6.66504 198.88 6.66504H325.128C328.439 6.66504 331.124 9.3455 331.124 12.6536V18.6422H192.885V12.6536Z" fill="#E1E5F0"/>
<path d="M200.928 15.3751C202.359 15.3751 203.518 14.2173 203.518 12.7891C203.518 11.3609 202.359 10.2031 200.928 10.2031C199.498 10.2031 198.338 11.3609 198.338 12.7891C198.338 14.2173 199.498 15.3751 200.928 15.3751Z" fill="#FF5645"/>
<path d="M209.381 15.3751C210.812 15.3751 211.972 14.2173 211.972 12.7891C211.972 11.3609 210.812 10.2031 209.381 10.2031C207.951 10.2031 206.791 11.3609 206.791 12.7891C206.791 14.2173 207.951 15.3751 209.381 15.3751Z" fill="#FFCB3D"/>
<path d="M218.106 15.3751C219.536 15.3751 220.696 14.2173 220.696 12.7891C220.696 11.3609 219.536 10.2031 218.106 10.2031C216.675 10.2031 215.516 11.3609 215.516 12.7891C215.516 14.2173 216.675 15.3751 218.106 15.3751Z" fill="#3ABF7C"/>
</svg>
