<svg width="267" height="230" viewBox="0 0 267 230" fill="none" xmlns="http://www.w3.org/2000/svg">
  <g clip-path="url(#clip0_222_36534)">
    <path
      d="M111.064 199.814L113.98 190.314C110.471 186.452 106.073 183.504 101.167 181.728C105.96 189.67 101.315 200.032 103.251 209.106C103.876 211.931 105.129 214.579 106.917 216.854C108.705 219.129 110.981 220.973 113.578 222.248L118.004 227.733C120.323 223.679 121.737 219.169 122.147 214.516C122.557 209.863 121.954 205.176 120.378 200.778C119.47 198.32 118.256 195.986 116.765 193.831C114.135 196.923 111.064 199.814 111.064 199.814Z"
      fill="#F2F2F2" />
    <path
      d="M95.0289 201.027L93.4034 191.224C88.5407 189.332 83.2898 188.656 78.1066 189.255C85.9382 194.226 86.401 205.572 92.179 212.829C93.9984 215.079 96.3007 216.891 98.9152 218.129C101.53 219.368 104.389 220.003 107.282 219.986L113.689 222.921C113.957 218.257 113.212 213.59 111.504 209.243C109.796 204.895 107.166 200.969 103.796 197.736C101.887 195.941 99.7594 194.393 97.4638 193.13C96.4889 197.071 95.0289 201.027 95.0289 201.027Z"
      fill="#F2F2F2" />
    <path d="M190.473 225.295L185.981 225.295L183.844 207.965L190.474 207.965L190.473 225.295Z"
      fill="#FFB6B6" />
    <path
      d="M191.618 229.65L177.135 229.65V229.466C177.135 227.971 177.729 226.537 178.786 225.479C179.843 224.422 181.277 223.828 182.772 223.828H182.772L185.418 221.82L190.354 223.828L191.619 223.828L191.618 229.65Z"
      fill="#2F2E41" />
    <path d="M263.034 208.907L259.971 212.193L245.839 201.941L250.36 197.091L263.034 208.907Z"
      fill="#FFB6B6" />
    <path
      d="M267 211.038L257.125 221.635L256.991 221.511C255.897 220.491 255.253 219.078 255.2 217.584C255.148 216.089 255.691 214.635 256.71 213.541L257.046 210.236L261.88 207.993L262.742 207.068L267 211.038Z"
      fill="#2F2E41" />
    <path
      d="M256.387 199.167L251.639 209.099L222.485 189.791L218.243 184.011L204.336 165.058L198.683 174.03L194.75 183.409C193.468 184.246 192.388 185.357 191.587 186.661C190.787 187.966 190.286 189.433 190.121 190.955L189.941 192.615L192.426 214.965L182.979 217.867L177.553 187.842L179.327 181.336L181.153 172.204L190.347 143.345H214.949L229.06 173.388L230.092 179.51L234.093 184.103L256.387 199.167Z"
      fill="#2F2E41" />
    <path
      d="M205.259 96.1288L209.4 99.2832L214.395 100.818C214.395 100.818 216.46 129.87 218.32 131.731C220.181 133.592 218.503 133.642 218.877 136.06C219.25 138.477 220.159 143.433 220.159 143.433C207.6 150.083 196.774 150.261 188.077 142.48C187.966 141.999 188.022 141.494 188.237 141.049C188.452 140.604 188.812 140.246 189.259 140.034C190.877 139.175 187.767 135.166 189.089 134.495C190.412 133.825 188.552 128.009 188.552 128.009L189.772 115.876L188.808 113.936L191.161 102.068L195.244 100.576L196.875 96.6456L205.259 96.1288Z"
      fill="#3F3D56" />
    <path
      d="M207.853 147.764C207.835 147.239 207.931 146.717 208.136 146.234C208.341 145.75 208.65 145.318 209.04 144.967C209.43 144.616 209.893 144.355 210.395 144.202C210.897 144.049 211.427 144.008 211.946 144.082L217.783 132.734L221.035 138.513L214.994 148.403C214.812 149.268 214.319 150.036 213.608 150.562C212.898 151.088 212.02 151.335 211.14 151.256C210.259 151.177 209.439 150.778 208.833 150.134C208.227 149.491 207.879 148.647 207.853 147.764Z"
      fill="#FFB6B6" />
    <path
      d="M217.683 144.988L230.202 125.58L230.16 125.491C230.113 125.389 227.278 119.265 224.531 113.655C224.108 112.792 223.687 111.94 223.279 111.124C223.103 110.772 222.929 110.428 222.758 110.091C221.604 107.815 220.596 105.935 219.995 105.042C218.664 103.022 216.682 101.519 214.379 100.781L214.321 100.766L214.266 100.789C213.14 101.265 212.209 102.11 211.627 103.186C211.045 104.261 210.847 105.503 211.066 106.706C212.152 112.51 214.571 117.982 218.134 122.69L220.163 125.366L213.11 140.703L217.683 144.988Z"
      fill="#3F3D56" />
    <path
      d="M174.634 70.5955C174.978 70.9914 175.232 71.4581 175.377 71.9627C175.522 72.4673 175.554 72.9975 175.472 73.516C175.39 74.0345 175.195 74.5287 174.902 74.9638C174.608 75.3989 174.222 75.7642 173.772 76.0342L176.382 88.5257L170.217 86.0845L168.684 74.5966C168.281 73.8101 168.18 72.9029 168.401 72.0471C168.622 71.1912 169.149 70.4461 169.882 69.9529C170.616 69.4597 171.504 69.2528 172.38 69.3712C173.256 69.4896 174.058 69.9253 174.634 70.5955Z"
      fill="#FFB6B6" />
    <path
      d="M168.745 78.9432L171.238 101.905L171.326 101.948C171.399 101.984 174.557 103.533 178.434 105.379C179.088 105.69 178.994 107.038 179.678 107.361C180.148 107.583 181.392 106.777 181.867 107C186.105 108.982 190.389 110.909 192.097 111.431C194.402 112.162 196.888 112.082 199.141 111.204L199.196 111.179L199.224 111.127C199.8 110.048 199.991 108.805 199.766 107.603C199.541 106.401 198.913 105.311 197.985 104.514C193.488 100.69 188.164 97.963 182.432 96.5493L179.171 95.7489L174.994 79.3921L168.745 78.9432Z"
      fill="#3F3D56" />
    <path
      d="M200.843 94.8278C205.367 94.8278 209.035 91.1592 209.035 86.6338C209.035 82.1084 205.367 78.4398 200.843 78.4398C196.319 78.4398 192.651 82.1084 192.651 86.6338C192.651 91.1592 196.319 94.8278 200.843 94.8278Z"
      fill="#FFB6B6" />
    <path
      d="M192.71 81.143C193.383 79.1826 196.737 77.8229 202.174 77.6338C207.611 77.4447 208.99 83.8534 208.99 83.8534C212.619 86.7983 205.114 94.6828 204.751 94.3988L204.914 92.9175C205.184 90.4638 206.333 88.5494 204.872 85.9922L203.469 86.0084C201.658 86.3568 199.846 86.7053 198.034 87.0537L200.179 85.1648L200.119 85.0712C199.206 85.5465 198.214 85.848 197.191 85.9604C196.038 86.0281 194.778 85.5692 194.226 84.5548C194.078 84.2759 193.988 83.9703 193.961 83.6561C192.406 84.2773 191.695 86.1942 191.695 86.1942C191.695 86.1942 192.036 83.1035 192.71 81.143Z"
      fill="#2F2E41" />
    <path
      d="M33.0057 81.6346C32.8946 81.4936 32.7749 81.3596 32.6473 81.2333C32.6785 81.1904 32.7097 81.1437 32.7409 81.1008L33.0057 81.6346Z"
      fill="#2F2E41" />
    <path
      d="M34.599 114.591C33.2589 116.971 30.5827 118.3 27.9299 118.951C24.9501 119.731 21.8124 119.671 18.8651 118.775C18.4911 118.655 18.1171 118.514 17.7548 118.359C17.929 117.896 18.0671 117.42 18.1678 116.936C18.3034 116.281 18.3713 115.614 18.3703 114.945C18.0752 115.521 17.6928 116.048 17.2367 116.508C16.8849 116.877 16.4854 117.198 16.0486 117.462C14.6939 116.64 13.5209 115.55 12.6011 114.259C12.6595 114.115 12.718 113.971 12.7725 113.827C13.0554 113.074 13.2794 112.3 13.4425 111.513C13.6639 110.447 13.7748 109.362 13.7737 108.275C13.2934 109.212 12.6704 110.069 11.9272 110.815C11.7043 111.054 11.4676 111.279 11.2182 111.489C10.832 110.316 10.6827 109.078 10.779 107.846C10.8753 106.615 11.2153 105.415 11.7792 104.316C13.3218 101.464 16.3135 99.7686 18.978 97.9256C21.6464 96.0826 24.3149 93.5889 24.5408 90.3509C24.6927 88.1651 23.6799 85.9752 24.085 83.8244C24.2554 82.9174 24.6714 82.0746 25.2876 81.3877C25.9038 80.7009 26.6967 80.1963 27.5798 79.9291C28.4629 79.6618 29.4024 79.6421 30.296 79.8721C31.1895 80.102 32.0028 80.5729 32.6473 81.2333C31.1359 83.3763 29.6322 85.5934 29.0206 88.1416C28.3974 90.7367 28.9077 93.7798 30.9528 95.4981C31.654 96.0904 32.5149 96.5112 33.0564 97.2515C33.777 98.2334 33.7809 99.5426 33.8978 100.751C34.1315 103.1 34.8989 105.36 35.3119 107.686C35.7287 110.008 35.752 112.529 34.599 114.591Z"
      fill="#2F2E41" />
    <path d="M7.12866 211.217L10.684 213.964L22.9713 201.555L17.7239 197.5L7.12866 211.217Z"
      fill="#A0616A" />
    <path
      d="M7.27987 208.532L13.1591 212.54L11.2985 214.948L13.7903 222.769C13.9134 223.155 13.9099 223.571 13.7802 223.955C13.6505 224.339 13.4015 224.671 13.0694 224.904C12.7374 225.136 12.3398 225.257 11.9346 225.247C11.5294 225.238 11.1378 225.099 10.8171 224.851L4.12628 219.68L4.81338 216.406L2.52271 218.44L0 216.49L7.27987 208.532Z"
      fill="#2F2E41" />
    <path
      d="M25.166 88.5572C25.1655 89.9466 25.506 91.3149 26.1576 92.542C26.8092 93.769 27.7519 94.8174 28.9031 95.5949C30.0543 96.3725 31.3788 96.8555 32.7602 97.0015C34.1415 97.1476 35.5377 96.9522 36.8259 96.4326C38.1142 95.9129 39.2553 95.0849 40.1489 94.0212C41.0426 92.9575 41.6616 91.6906 41.9515 90.3318C42.2414 88.973 42.1934 87.5637 41.8116 86.2278C41.4299 84.8919 40.7262 83.6701 39.7622 82.6697L39.7215 82.629C39.6536 82.5577 39.5857 82.4864 39.5144 82.4185L39.5131 82.4182L39.512 82.4175L39.5113 82.4164L39.511 82.4151C39.4228 82.3336 39.3345 82.2521 39.2428 82.174C37.7493 80.8634 35.6501 79.4409 33.5082 79.4409C28.8204 79.4409 25.166 83.8683 25.166 88.5572Z"
      fill="#2F2E41" />
    <path
      d="M73.5359 84.1981C73.5765 84.6509 73.5174 85.107 73.3627 85.5344C73.208 85.9618 72.9615 86.3501 72.6406 86.6719C72.3197 86.9937 71.9321 87.2412 71.5052 87.397C71.0783 87.5528 70.6224 87.613 70.1697 87.5735L49.1558 106.551L45.5396 100.839L67.3326 83.9804C67.4494 83.224 67.8395 82.5368 68.4289 82.049C69.0184 81.5611 69.7663 81.3064 70.5309 81.3333C71.2956 81.3601 72.0238 81.6666 72.5776 82.1946C73.1314 82.7226 73.4724 83.4355 73.5359 84.1981Z"
      fill="#A0616A" />
    <path
      d="M40.1748 112.28C40.1748 112.28 40.9567 113.724 43.6274 111.494C45.7656 109.708 56.0092 101.957 58.2161 98.7803C58.72 98.9801 59.276 99.0064 59.7965 98.8552C60.3171 98.704 60.7725 98.3839 61.0911 97.9453L55.0446 92.6486C53.2354 92.8569 53.2742 94.0725 53.4626 94.7627L48.9016 96.8297L37.1235 104.358L39.5911 111.246L40.1748 112.28Z"
      fill="var(--lng-palette-primary-main)" />
    <path
      d="M28.7646 125.587L28.3242 127.685L27.9502 135.424L44.4155 136.329L43.9042 124.427L42.3082 121.804L28.7646 125.587Z"
      fill="#A0616A" />
    <path
      d="M35.743 97.6389C39.673 97.6389 42.859 94.4521 42.859 90.5211C42.859 86.5901 39.673 83.4034 35.743 83.4034C31.8129 83.4034 28.627 86.5901 28.627 90.5211C28.627 94.4521 31.8129 97.6389 35.743 97.6389Z"
      fill="#A0616A" />
    <path
      d="M23.1093 116.775L23.0656 110.858C23.0645 108.729 23.7848 106.663 25.1088 104.996C26.4328 103.329 28.2824 102.16 30.3559 101.68L30.3827 101.674L31.7898 99.7774L37.5066 100.349L38.5545 102.491L42.6969 104.959L44.2918 110.087C44.9836 110.548 45.5732 111.147 46.0239 111.846C46.4747 112.544 46.7769 113.328 46.9119 114.149C47.4534 117.608 45.0317 121.07 44.7437 121.467L44.0015 125.648L27.8553 128.498L27.7242 128.514L23.1093 116.775Z"
      fill="var(--lng-palette-primary-main)" />
    <path
      d="M44.4506 89.2522C43.6206 89.778 42.7594 90.253 41.8718 90.6744C40.9709 91.1073 40.0286 91.448 39.0592 91.6914C38.7819 91.0827 38.4425 90.5043 38.0464 89.9653C38.1483 90.6039 38.151 91.2545 38.0542 91.894C36.4475 92.1533 34.8018 92.0182 33.2588 91.5005L31.9188 89.2522L31.8175 91.7615C30.7073 91.9641 29.601 92.1551 28.4908 92.3538C28.4245 92.3616 28.3583 92.3772 28.296 92.3888C27.6065 89.2795 28.5843 85.8545 30.7579 83.7816C31.8372 82.7632 33.1834 82.0723 34.64 81.7895C36.0965 81.5067 37.6034 81.6435 38.9852 82.1841C39.1605 82.2542 39.3397 82.3321 39.5111 82.414L39.5114 82.4155L39.5122 82.4168L39.5135 82.4176L39.515 82.4179C39.6163 82.4685 39.702 82.5893 39.815 82.5776C44.6765 82.036 44.8324 85.8077 44.4506 89.2522Z"
      fill="#2F2E41" />
    <path d="M32.6125 202.039L36.1734 204.779L48.4358 192.345L43.1804 188.301L32.6125 202.039Z"
      fill="#A0616A" />
    <path
      d="M33.0813 199.602L38.9686 203.598L37.1129 206.01L39.6205 213.826C39.7443 214.212 39.7416 214.627 39.6127 215.012C39.4838 215.396 39.2354 215.729 38.9039 215.962C38.5723 216.195 38.1749 216.317 37.7697 216.308C37.3645 216.299 36.9727 216.161 36.6515 215.914L29.9502 210.756L30.6307 207.481L28.3441 209.52L25.8175 207.575L33.0813 199.602Z"
      fill="#2F2E41" />
    <path
      d="M21.0578 186.863L21.0576 186.817L22.7452 183.908L21.022 180.121L20.9703 170.393L21.2496 168.933C21.6253 166.969 21.516 164.942 20.9311 163.03L20.8997 157.108C20.8391 155.625 23.1366 154.32 22.6008 153.084C17.5367 141.394 27.7721 132.477 27.8413 132.405L28.0504 132.188L29.1853 133.048L30.2654 133.049L44.8418 135.706L44.9471 135.902C45.5204 136.978 46.6268 140.685 46.6925 142.363C47.4189 143.204 55.6939 152.782 56.4295 153.447C61.4004 157.946 64.2464 165.392 65.5004 169.43C65.8118 170.428 65.8746 171.487 65.6833 172.515C65.4919 173.543 65.0522 174.508 64.4025 175.327L45.5842 195.944L40.5201 191.269L50.7025 172.709L49.9682 170.827C48.6508 170.583 47.4585 169.891 46.5948 168.866L44.5329 166.418C43.9621 165.742 43.5993 164.915 43.4886 164.038L42.2382 163.887L37.7593 159.183L34.6519 187.331L33.8071 189.554L19.0949 206.855L12.8621 202.958L21.0578 186.863Z"
      fill="#2F2E41" />
    <path
      d="M18.811 66.0018C18.5284 66.3577 18.3272 66.7713 18.2216 67.2134C18.116 67.6555 18.1087 68.1154 18.2 68.5607C18.2913 69.0059 18.4792 69.4258 18.7503 69.7906C19.0214 70.1554 19.3692 70.4563 19.7691 70.6721L15.0909 84.5251L18.9109 99.2057L25.0707 96.4203L21.2696 85.3471L24.1134 69.2293C24.4314 68.5332 24.483 67.7447 24.2585 67.0131C24.034 66.2815 23.549 65.6577 22.8954 65.2598C22.2419 64.862 21.4651 64.7178 20.7123 64.8545C19.9595 64.9913 19.283 65.3995 18.811 66.0018Z"
      fill="#A0616A" />
    <path
      d="M24.4493 111.302C24.4493 111.302 23.0025 112.079 21.9964 108.747C21.1909 106.08 15.709 91.5998 15.6102 87.733C15.0795 87.6229 14.6005 87.3393 14.2486 86.9269C13.8968 86.5145 13.6921 85.9967 13.6669 85.4552L21.6286 84.3531C23.0257 85.5215 22.3255 86.5158 21.7889 86.9889L24.5006 91.5833L30.1685 103.987L25.505 110.758L24.4493 111.302Z"
      fill="var(--lng-palette-primary-main)" />
    <path
      d="M28.4893 92.3531C29.3069 89.8868 30.773 87.6861 32.7337 85.9817C34.6945 84.2773 37.0777 83.1322 39.6333 82.6663C39.6435 82.663 39.6774 82.6494 39.7216 82.629C39.7487 82.612 39.7827 82.5951 39.8166 82.5781C39.7148 82.5204 39.6163 82.4695 39.5145 82.4185L39.5132 82.4182L39.5121 82.4175L39.5113 82.4164L39.5111 82.4151C39.4228 82.3336 39.3346 82.2521 39.2429 82.174L38.9849 82.1842C38.9849 82.1842 29.9183 80.748 28.4893 92.3531Z"
      fill="#FD6584" />
    <path
      d="M145.481 171.669C146.471 170.182 145.885 168.052 144.173 166.913C142.461 165.773 140.271 166.056 139.282 167.544C138.292 169.031 138.878 171.161 140.59 172.3C142.302 173.439 144.492 173.157 145.481 171.669Z"
      fill="#F2F2F2" />
    <path
      d="M125.395 116.143C126.384 114.656 125.798 112.526 124.086 111.387C122.374 110.247 120.184 110.53 119.195 112.018C118.205 113.505 118.791 115.635 120.503 116.774C122.215 117.913 124.405 117.631 125.395 116.143Z"
      fill="#F2F2F2" />
    <path
      d="M209.394 201.624C210.383 200.137 209.798 198.007 208.086 196.868C206.374 195.728 204.184 196.011 203.194 197.498C202.205 198.986 202.79 201.116 204.502 202.255C206.214 203.394 208.404 203.112 209.394 201.624Z"
      fill="#F2F2F2" />
    <path
      d="M39.5691 22.991C40.5586 21.5033 39.9729 19.3737 38.2609 18.2344C36.5489 17.0952 34.3589 17.3776 33.3693 18.8653C32.3798 20.353 32.9655 22.4825 34.6775 23.6218C36.3895 24.7611 38.5795 24.4787 39.5691 22.991Z"
      fill="#F2F2F2" />
    <path
      d="M118.821 5.45643C119.81 3.96874 119.224 1.83917 117.512 0.69988C115.8 -0.439405 113.61 -0.156977 112.621 1.33071C111.631 2.81839 112.217 4.94799 113.929 6.08727C115.641 7.22656 117.831 6.94411 118.821 5.45643Z"
      fill="#F2F2F2" />
    <path
      d="M81.313 152.569C82.3025 151.082 81.7168 148.952 80.0048 147.813C78.2928 146.673 76.1027 146.956 75.1132 148.444C74.1237 149.931 74.7094 152.061 76.4214 153.2C78.1334 154.339 80.3234 154.057 81.313 152.569Z"
      fill="#E6E6E6" />

    <path
      d="M51.4984 85.54C49.5006 85.5342 47.575 84.7922 46.0898 83.4558C44.6045 82.1194 43.6637 80.2824 43.4473 78.2959L38.8107 35.2241C38.5829 33.0856 39.2125 30.944 40.5614 29.2692C41.9102 27.5944 43.8682 26.5232 46.0057 26.2906L183.675 11.4637C185.813 11.2358 187.954 11.8655 189.628 13.2146C191.303 14.5638 192.374 16.5222 192.607 18.6603L197.243 61.7318C197.471 63.8704 196.841 66.0121 195.492 67.6869C194.144 69.3618 192.186 70.4331 190.048 70.6657L52.3788 85.4926C52.0864 85.5241 51.7925 85.54 51.4984 85.54Z"
      fill="#E6E6E6" />
    <path
      d="M182.159 13.4634C181.9 13.4635 181.641 13.4774 181.384 13.5051L48.6787 27.7974C47.7508 27.8974 46.8517 28.1791 46.0326 28.6267C45.2136 29.0742 44.4907 29.6787 43.9052 30.4056C43.3197 31.1326 42.8831 31.9678 42.6203 32.8635C42.3575 33.7592 42.2737 34.698 42.3736 35.6261L44.7179 57.4036C45.0968 60.9242 46.1653 64.3357 47.8624 67.4432C49.5594 70.5508 51.8518 73.2936 54.6086 75.515C57.3654 77.7364 60.5327 79.3929 63.9295 80.3899C67.3264 81.387 70.8863 81.705 74.406 81.326L167.72 71.276C171.229 70.8981 174.629 69.8326 177.727 68.1403C180.824 66.448 183.558 64.162 185.772 61.4129C187.986 58.6638 189.637 55.5054 190.631 52.1181C191.625 48.7308 191.942 45.1808 191.564 41.6709L189.211 19.8118C189.023 18.0706 188.2 16.46 186.899 15.2885C185.597 14.117 183.909 13.4671 182.159 13.4634Z"
      fill="white" />
    <path
      d="M154.213 36.1275L80.0418 44.1157C79.8298 44.1388 79.6152 44.1199 79.4105 44.06C79.2057 44.0001 79.0147 43.9004 78.8485 43.7667C78.6823 43.6329 78.5441 43.4677 78.4417 43.2805C78.3394 43.0932 78.275 42.8877 78.2521 42.6755C78.2293 42.4634 78.2485 42.2488 78.3086 42.044C78.3688 41.8393 78.4687 41.6484 78.6026 41.4824C78.7366 41.3163 78.9019 41.1782 79.0892 41.0761C79.2766 40.974 79.4822 40.9098 79.6943 40.8873L153.865 32.8991C154.077 32.876 154.292 32.8949 154.497 32.9548C154.701 33.0146 154.892 33.1143 155.059 33.2481C155.225 33.3818 155.363 33.547 155.465 33.7343C155.568 33.9215 155.632 34.1271 155.655 34.3392C155.678 34.5514 155.659 34.766 155.598 34.9707C155.538 35.1754 155.438 35.3663 155.304 35.5324C155.17 35.6985 155.005 35.8365 154.818 35.9386C154.63 36.0407 154.425 36.1049 154.213 36.1275Z"
      fill="var(--lng-palette-primary-main)" />
    <path
      d="M155.279 46.0356L81.1084 54.0238C80.6804 54.0699 80.2516 53.944 79.9164 53.6739C79.5812 53.4037 79.3669 53.0115 79.3209 52.5834C79.2748 52.1553 79.4006 51.7264 79.6707 51.3911C79.9407 51.0558 80.3329 50.8415 80.7609 50.7954L154.932 42.8072C155.36 42.7611 155.789 42.8869 156.124 43.1571C156.459 43.4272 156.673 43.8195 156.719 44.2476C156.765 44.6757 156.64 45.1046 156.37 45.4399C156.099 45.7752 155.707 45.9895 155.279 46.0356Z"
      fill="var(--lng-palette-primary-main)" />
    <path
      d="M90.8185 63.0006L82.1749 63.9315C81.7469 63.9776 81.3182 63.8518 80.9829 63.5817C80.6477 63.3115 80.4335 62.9193 80.3874 62.4912C80.3413 62.063 80.4671 61.6342 80.7372 61.2988C81.0072 60.9635 81.3994 60.7493 81.8274 60.7032L90.4709 59.7723C90.683 59.7491 90.8976 59.768 91.1023 59.8279C91.3071 59.8878 91.4981 59.9875 91.6643 60.1212C91.8305 60.255 91.9687 60.4202 92.0711 60.6074C92.1734 60.7947 92.2378 61.0002 92.2607 61.2124C92.2835 61.4246 92.2643 61.6391 92.2042 61.8439C92.144 62.0486 92.0441 62.2395 91.9102 62.4056C91.7762 62.5716 91.6109 62.7097 91.4235 62.8118C91.2362 62.9139 91.0306 62.9781 90.8185 63.0006Z"
      fill="var(--lng-palette-primary-main)" />
    <path
      d="M48.58 37.0416C50.1937 37.0416 51.5018 35.7332 51.5018 34.1192C51.5018 32.5052 50.1937 31.1968 48.58 31.1968C46.9664 31.1968 45.6583 32.5052 45.6583 34.1192C45.6583 35.7332 46.9664 37.0416 48.58 37.0416Z"
      fill="#3F3D56" />
    <path
      d="M179.327 22.4294C180.94 22.4294 182.249 21.121 182.249 19.507C182.249 17.893 180.94 16.5846 179.327 16.5846C177.713 16.5846 176.405 17.893 176.405 19.507C176.405 21.121 177.713 22.4294 179.327 22.4294Z"
      fill="#3F3D56" />
    <path
      d="M139.826 82.4258C139.558 82.1899 139.345 81.8972 139.204 81.5689C139.063 81.2406 138.996 80.8849 139.01 80.5278C139.157 76.283 138.458 72.0514 136.954 68.0795C136.826 67.7455 136.775 67.3874 136.803 67.0311C136.831 66.6748 136.938 66.3292 137.117 66.0195C137.288 65.7219 137.522 65.4654 137.802 65.2678C138.083 65.0703 138.404 64.9367 138.741 64.8762C142.137 62.8264 145.619 62.251 149.091 63.1662C149.651 63.0837 150.222 63.2036 150.701 63.5043C151.181 63.805 151.537 64.2668 151.707 64.8067C153.113 69.3716 153.895 74.1056 154.032 78.8801C154.045 79.4529 153.851 80.0112 153.485 80.4524C153.12 80.8937 152.608 81.1883 152.043 81.2821L141.768 82.98C141.424 83.0376 141.071 83.0178 140.735 82.9219C140.399 82.8261 140.089 82.6566 139.826 82.4258Z"
      fill="var(--lng-palette-primary-main)" />
    <path
      d="M140.739 70.0581L149.387 68.6291C149.458 68.6175 149.526 68.592 149.587 68.554C149.649 68.5161 149.702 68.4664 149.744 68.4079C149.786 68.3493 149.816 68.2831 149.832 68.2129C149.849 68.1427 149.851 68.07 149.839 67.9989C149.828 67.9278 149.802 67.8597 149.764 67.7986C149.726 67.7374 149.676 67.6843 149.617 67.6424C149.559 67.6005 149.493 67.5706 149.422 67.5544C149.352 67.5381 149.279 67.5359 149.208 67.5478L140.56 68.9769C140.417 69.0009 140.29 69.0806 140.205 69.1987C140.121 69.3167 140.087 69.4634 140.11 69.6066C140.134 69.7498 140.214 69.8777 140.331 69.9624C140.449 70.047 140.596 70.0815 140.739 70.0581Z"
      fill="white" />
    <path
      d="M141.453 74.3831L150.101 72.9541C150.245 72.9304 150.373 72.8507 150.457 72.7326C150.542 72.6144 150.576 72.4675 150.553 72.3241C150.529 72.1807 150.449 72.0526 150.331 71.968C150.213 71.8834 150.066 71.8491 149.923 71.8728L141.275 73.3019C141.204 73.3135 141.136 73.339 141.074 73.3769C141.013 73.4149 140.96 73.4645 140.918 73.5231C140.876 73.5816 140.846 73.6479 140.829 73.718C140.813 73.7882 140.811 73.8609 140.822 73.932C140.834 74.0031 140.86 74.0712 140.898 74.1324C140.936 74.1936 140.986 74.2466 141.044 74.2885C141.103 74.3304 141.169 74.3603 141.239 74.3766C141.31 74.3928 141.382 74.395 141.453 74.3831Z"
      fill="white" />
    <path
      d="M142.168 78.7081L150.816 77.2791C150.959 77.2554 151.087 77.1757 151.172 77.0576C151.256 76.9394 151.291 76.7925 151.267 76.6491C151.243 76.5057 151.164 76.3776 151.045 76.293C150.927 76.2084 150.78 76.1741 150.637 76.1978L141.989 77.6269C141.918 77.6386 141.85 77.6642 141.789 77.7022C141.728 77.7402 141.675 77.7899 141.633 77.8484C141.591 77.9069 141.561 77.9731 141.545 78.0431C141.529 78.1132 141.526 78.1858 141.538 78.2568C141.55 78.3278 141.575 78.3958 141.613 78.4569C141.651 78.518 141.701 78.571 141.759 78.613C141.818 78.6549 141.884 78.6848 141.954 78.7012C142.024 78.7175 142.097 78.7199 142.168 78.7081Z"
      fill="white" />
  </g>
  <defs>
    <clipPath id="clip0_222_36534">
      <rect width="267" height="230" fill="white" />
    </clipPath>
  </defs>
</svg>
  