<svg width="478" height="286" viewBox="0 0 478 286" fill="none" xmlns="http://www.w3.org/2000/svg">
  <g clip-path="url(#clip0_222_36910)">
    <path
      d="M365.702 282.766C359.596 277.591 355.886 269.416 356.859 261.457C357.832 253.498 363.857 246.182 371.672 244.492C379.488 242.802 388.397 247.48 390.771 255.137C392.077 240.375 393.583 224.995 401.408 212.424C408.494 201.042 420.767 192.897 434.069 191.44C447.37 189.983 461.374 195.486 469.67 206.015C477.965 216.543 479.996 231.85 474.186 243.938C469.906 252.842 462.021 259.469 453.759 264.861C427.063 282.135 395.044 289.16 363.593 284.643L365.702 282.766Z"
      fill="#F2F2F2" />
    <path
      d="M456.516 195.791C445.541 204.756 435.473 214.783 426.456 225.726C412.346 242.794 400.928 261.93 392.599 282.468C391.99 283.966 394.416 284.618 395.018 283.137C408.645 249.759 430.399 220.34 458.29 197.57C459.543 196.547 457.759 194.777 456.516 195.791Z"
      fill="white" />
    <path
      d="M154.054 281.36C162.442 274.252 167.537 263.023 166.201 252.092C164.864 241.161 156.589 231.112 145.854 228.79C135.12 226.469 122.883 232.895 119.622 243.411C117.828 223.136 115.76 202.012 105.012 184.746C95.2792 169.112 78.4222 157.925 60.1531 155.924C41.8839 153.922 22.6488 161.481 11.255 175.942C-0.138794 190.403 -2.92852 211.427 5.05141 228.029C10.9299 240.26 21.7603 249.362 33.1078 256.767C69.3102 280.391 114.219 290.244 156.951 283.938"
      fill="#F2F2F2" />
    <path
      d="M29.3211 161.9C44.3954 174.214 58.2245 187.985 70.6083 203.016C82.9941 218.031 93.8985 234.216 103.168 251.343C108.35 260.95 113.004 270.834 117.111 280.951C117.949 283.009 114.617 283.904 113.788 281.869C106.514 264.034 97.5142 246.957 86.918 230.883C76.3733 214.867 64.3043 199.915 50.8805 186.236C43.288 178.503 35.2772 171.194 26.8845 164.344C25.1643 162.939 27.615 160.507 29.3211 161.9Z"
      fill="white" />
    <path
      d="M342.898 285.374H142.778V79.4538C142.778 35.6428 178.318 0 222.003 0H263.673C307.358 0 342.898 35.6428 342.898 79.4538V285.374Z"
      fill="#F2F2F2" />
    <path
      d="M301.229 285.374H142.778V79.4539C142.734 62.6665 148.034 46.3034 157.908 32.7469C158.272 32.2494 158.635 31.7584 159.009 31.2727C163.785 24.9912 169.468 19.4592 175.871 14.8593C176.232 14.5953 176.596 14.336 176.964 14.0766C182.322 10.3582 188.118 7.31846 194.22 5.02659C194.582 4.88886 194.951 4.75086 195.32 4.61849C200.838 2.64346 206.559 1.29057 212.376 0.584806C212.736 0.535402 213.107 0.496742 213.477 0.458082C219.145 -0.149764 224.863 -0.149764 230.531 0.458082C230.9 0.496742 231.271 0.535397 231.635 0.585335C237.451 1.29114 243.17 2.64387 248.687 4.61851C249.056 4.75088 249.425 4.88887 249.788 5.02688C255.815 7.28983 261.543 10.2842 266.843 13.9432C267.212 14.1969 267.58 14.4563 267.943 14.7156C271.532 17.285 274.904 20.1473 278.023 23.2735C280.524 25.7811 282.855 28.454 284.999 31.2743C285.372 31.7584 285.735 32.2495 286.099 32.7462C295.972 46.3027 301.273 62.6662 301.229 79.4539V285.374Z"
      fill="#CCCCCC" />
    <path
      d="M288.345 193.274C293.19 193.274 297.117 189.335 297.117 184.476C297.117 179.617 293.19 175.678 288.345 175.678C283.5 175.678 279.572 179.617 279.572 184.476C279.572 189.335 283.5 193.274 288.345 193.274Z"
      fill="var(--lng-palette-primary-main)" />
    <path d="M326.504 279.206H319.782L316.584 253.205L326.505 253.205L326.504 279.206Z"
      fill="#FFB8B8" />
    <path
      d="M314.981 277.28H327.944V285.466H306.819C306.819 284.391 307.03 283.326 307.44 282.333C307.85 281.34 308.452 280.438 309.21 279.678C309.967 278.917 310.867 278.314 311.858 277.903C312.848 277.492 313.909 277.28 314.981 277.28Z"
      fill="#2F2E41" />
    <path d="M359.949 279.206H353.227L350.029 253.205L359.95 253.205L359.949 279.206Z"
      fill="#FFB8B8" />
    <path
      d="M348.426 277.28H361.389V285.466H340.264C340.264 284.391 340.475 283.326 340.885 282.333C341.295 281.34 341.896 280.438 342.654 279.678C343.412 278.917 344.312 278.314 345.302 277.903C346.293 277.492 347.354 277.28 348.426 277.28Z"
      fill="#2F2E41" />
    <path
      d="M292.785 186.219C292.301 185.504 291.98 184.692 291.843 183.839C291.706 182.987 291.757 182.114 291.993 181.284C292.229 180.453 292.643 179.685 293.207 179.032C293.771 178.38 294.471 177.859 295.258 177.507L318.107 114.347L329.351 120.501L303.261 180.859C303.763 182.223 303.749 183.724 303.221 185.078C302.693 186.432 301.688 187.545 300.397 188.206C299.105 188.866 297.617 189.029 296.214 188.663C294.811 188.296 293.591 187.427 292.785 186.219Z"
      fill="#FFB8B8" />
    <path
      d="M356.516 198.087C355.769 197.657 355.124 197.069 354.629 196.363C354.133 195.656 353.798 194.85 353.647 194C353.495 193.15 353.532 192.277 353.754 191.442C353.975 190.608 354.377 189.832 354.929 189.17L347.851 122.358L360.646 122.944L363.588 188.663C364.636 189.668 365.279 191.023 365.397 192.472C365.514 193.922 365.097 195.364 364.226 196.525C363.354 197.687 362.087 198.487 360.666 198.775C359.245 199.063 357.768 198.818 356.516 198.087Z"
      fill="#FFB8B8" />
    <path
      d="M336.103 102.649C343.54 102.649 349.569 96.6022 349.569 89.1436C349.569 81.6851 343.54 75.6387 336.103 75.6387C328.666 75.6387 322.637 81.6851 322.637 89.1436C322.637 96.6022 328.666 102.649 336.103 102.649Z"
      fill="#FFB8B8" />
    <path
      d="M356.43 182.891H315.831L315.88 182.575C315.953 182.101 323.116 135.046 317.833 119.652C317.303 118.139 317.35 116.483 317.964 115.002C318.578 113.522 319.717 112.322 321.161 111.633C328.711 108.067 343.206 103.676 355.439 114.332C357.239 115.926 358.645 117.918 359.545 120.151C360.445 122.384 360.815 124.796 360.626 127.197L356.43 182.891Z"
      fill="var(--lng-palette-primary-main)" />
    <path
      d="M323.629 142L305.351 138.281L313.919 117.92C314.431 115.948 315.703 114.26 317.455 113.227C319.207 112.194 321.295 111.9 323.263 112.41C325.231 112.919 326.916 114.191 327.951 115.945C328.985 117.699 329.283 119.793 328.78 121.768L323.629 142Z"
      fill="var(--lng-palette-primary-main)" />
    <path
      d="M347.038 148.905L345.939 123.644C345.106 118.895 347.817 114.406 351.985 113.672C356.155 112.941 360.227 116.235 361.064 121.018L365.194 144.622L347.038 148.905Z"
      fill="var(--lng-palette-primary-main)" />
    <path
      d="M355.079 179.867C361.611 204.818 362.324 236.54 360.562 271.143L351.789 270.043L335.889 204.061L327.117 271.143L317.248 270.593C314.299 234.286 311.429 203.118 316.151 182.616L355.079 179.867Z"
      fill="#2F2E41" />
    <path
      d="M344.976 99.5807C342.464 102.264 337.798 100.824 337.471 97.1575C337.445 96.8728 337.447 96.5863 337.476 96.302C337.645 94.678 338.581 93.2036 338.357 91.4888C338.306 91.0621 338.148 90.6554 337.896 90.3073C335.894 87.6189 331.195 91.5097 329.306 89.076C328.147 87.5837 329.509 85.2341 328.62 83.5662C327.447 81.3648 323.971 82.4507 321.792 81.2451C319.367 79.9038 319.512 76.1726 321.108 73.9031C323.055 71.1354 326.468 69.6585 329.839 69.4457C333.209 69.2328 336.557 70.1466 339.703 71.3765C343.279 72.7738 346.824 74.705 349.024 77.8579C351.7 81.6921 351.958 86.8468 350.619 91.3302C349.805 94.0575 347.027 97.3892 344.976 99.5807Z"
      fill="#2F2E41" />
    <path
      d="M461.042 285.728H56.2529C56.08 285.727 55.9145 285.658 55.7925 285.535C55.6705 285.413 55.6019 285.246 55.6019 285.073C55.6019 284.9 55.6705 284.733 55.7925 284.611C55.9145 284.488 56.08 284.419 56.2529 284.418H461.042C461.214 284.419 461.38 284.488 461.502 284.611C461.624 284.733 461.693 284.9 461.693 285.073C461.693 285.246 461.624 285.413 461.502 285.535C461.38 285.658 461.214 285.727 461.042 285.728Z"
      fill="#3F3D56" />
    <path
      d="M257.641 225.715H186.366C185.427 225.72 184.524 225.351 183.856 224.69C183.188 224.029 182.809 223.129 182.802 222.187V62.6367C182.809 61.6953 183.188 60.7952 183.856 60.1339C184.524 59.4726 185.427 59.1041 186.366 59.1092H257.641C258.58 59.1041 259.482 59.4726 260.151 60.1339C260.819 60.7952 261.198 61.6953 261.205 62.6367V222.187C261.198 223.129 260.819 224.029 260.151 224.69C259.482 225.351 258.58 225.72 257.641 225.715Z"
      fill="white" />
    <path d="M261.205 110.735H182.802V111.835H261.205V110.735Z" fill="#CCCCCC" />
    <path d="M261.479 173.479H183.076V174.578H261.479V173.479Z" fill="#CCCCCC" />
    <path d="M208.571 59.1091H207.474V226.265H208.571V59.1091Z" fill="#CCCCCC" />
    <path d="M235.984 59.1091H234.888V226.265H235.984V59.1091Z" fill="#CCCCCC" />
  </g>
  <defs>
    <clipPath id="clip0_222_36910">
      <rect width="477" height="286" fill="white" transform="translate(0.5)" />
    </clipPath>
  </defs>
</svg>
  