<svg width="520" height="366" viewBox="0 0 520 366" fill="none" xmlns="http://www.w3.org/2000/svg">
  <g clip-path="url(#clip0_222_36838)">
    <path
      d="M265.575 365.224C281.214 365.224 293.893 352.561 293.893 336.941C293.893 321.32 281.214 308.658 265.575 308.658C249.935 308.658 237.256 321.32 237.256 336.941C237.256 352.561 249.935 365.224 265.575 365.224Z"
      fill="var(--lng-palette-primary-main)" />
    <path
      d="M434.751 363.635C450.594 358.883 467.437 353.928 480.001 342.631C491.229 332.536 498.809 317.121 494.157 301.982C489.516 286.874 475.612 276.8 461.258 271.789C453.116 268.948 444.598 267.371 436.084 266.133C426.828 264.786 417.532 263.683 408.239 262.622C370.614 258.324 332.847 255.698 294.938 254.745C276.233 254.274 257.531 254.286 238.823 254.557C222.115 254.799 204.519 254.793 189.02 247.701C176.967 242.186 166.027 232.152 162.669 218.966C158.792 203.746 165.943 188.246 176.2 177.223C181.607 171.412 187.926 166.522 194.445 162.025C201.517 157.147 208.835 152.614 216.312 148.383C231.039 140.053 246.435 132.964 262.34 127.189C270.187 124.34 278.15 121.881 286.182 119.613C292.964 117.698 299.767 115.781 306.322 113.171C318.994 108.127 331.046 99.5831 334.268 85.5758C337.322 72.3001 332.173 57.8884 323.147 48.0262C312.704 36.6163 296.959 31.6146 281.863 30.8053C264.916 29.8967 248.36 34.1329 232.431 39.5091C215.442 45.2432 198.819 51.8365 181.471 56.4811C164.268 61.0823 146.732 64.3379 129.023 66.2183C120.353 67.1403 111.422 68.1814 102.701 67.4755C95.3921 66.8839 88.1205 64.7371 82.7339 59.5564C78.1152 55.1142 75.3638 49.0091 76.3097 42.5665C76.4815 41.3963 78.2614 41.8938 78.0906 43.0568C76.9392 50.8994 82.2768 58.1261 88.8543 61.8279C96.456 66.1063 105.706 66.1121 114.17 65.6228C132.521 64.5159 150.747 61.8843 168.661 57.7554C186.263 53.74 203.237 47.9999 220.191 41.8681C236.293 36.0444 252.755 30.3606 269.958 29.0992C284.884 28.0047 300.586 30.1765 313.59 37.9673C325.018 44.8144 333.422 56.233 336.099 69.3361C338.716 82.1403 335.092 95.0279 325.388 103.963C315.34 113.214 301.563 117.17 288.723 120.812C272.439 125.433 256.503 130.833 241.079 137.846C225.444 144.934 210.45 153.353 196.262 163.011C182.566 172.358 169.051 184.119 164.719 200.794C162.702 208.562 163.074 216.8 166.45 224.137C169.452 230.661 174.396 236.148 180.155 240.381C193.896 250.479 211.215 252.553 227.813 252.759C246.455 252.991 265.097 252.362 283.745 252.668C321.749 253.291 359.675 255.601 397.523 259.599C407.007 260.602 416.479 261.71 425.939 262.924C434.448 264.016 442.985 265.101 451.351 267.04C466.226 270.488 480.7 277.118 489.945 289.714C494.049 295.174 496.591 301.644 497.3 308.434C497.947 315.52 496.211 322.619 493.003 328.922C485.903 342.873 472.605 351.747 458.483 357.577C450.919 360.7 443.073 363.065 435.242 365.414C434.102 365.756 433.614 363.976 434.751 363.635Z"
      fill="#F2F2F2" />
    <path
      d="M77.5023 57.489C85.6622 57.489 92.2772 50.8823 92.2772 42.7325C92.2772 34.5827 85.6622 27.9759 77.5023 27.9759C69.3423 27.9759 62.7274 34.5827 62.7274 42.7325C62.7274 50.8823 69.3423 57.489 77.5023 57.489Z"
      fill="#F2F2F2" />
    <path
      d="M180.003 85.465C188.163 85.465 194.778 78.8582 194.778 70.7084C194.778 62.5586 188.163 55.9519 180.003 55.9519C171.843 55.9519 165.228 62.5586 165.228 70.7084C165.228 78.8582 171.843 85.465 180.003 85.465Z"
      fill="#F2F2F2" />
    <path
      d="M266.806 29.5131C274.966 29.5131 281.581 22.9064 281.581 14.7565C281.581 6.60673 274.966 0 266.806 0C258.646 0 252.031 6.60673 252.031 14.7565C252.031 22.9064 258.646 29.5131 266.806 29.5131Z"
      fill="#F2F2F2" />
    <path
      d="M320.98 92.2284C329.14 92.2284 335.755 85.6216 335.755 77.4718C335.755 69.322 329.14 62.7153 320.98 62.7153C312.821 62.7153 306.206 69.322 306.206 77.4718C306.206 85.6216 312.821 92.2284 320.98 92.2284Z"
      fill="#F2F2F2" />
    <path
      d="M247.722 164.781C255.882 164.781 262.496 158.175 262.496 150.025C262.496 141.875 255.882 135.268 247.722 135.268C239.562 135.268 232.947 141.875 232.947 150.025C232.947 158.175 239.562 164.781 247.722 164.781Z"
      fill="#F2F2F2" />
    <path
      d="M154.763 199.828C162.923 199.828 169.538 193.221 169.538 185.072C169.538 176.922 162.923 170.315 154.763 170.315C146.603 170.315 139.988 176.922 139.988 185.072C139.988 193.221 146.603 199.828 154.763 199.828Z"
      fill="#F2F2F2" />
    <path
      d="M253.262 254.55C261.422 254.55 268.037 247.944 268.037 239.794C268.037 231.644 261.422 225.037 253.262 225.037C245.102 225.037 238.487 231.644 238.487 239.794C238.487 247.944 245.102 254.55 253.262 254.55Z"
      fill="#F2F2F2" />
    <path
      d="M359.149 285.293C367.309 285.293 373.924 278.686 373.924 270.537C373.924 262.387 367.309 255.78 359.149 255.78C350.989 255.78 344.374 262.387 344.374 270.537C344.374 278.686 350.989 285.293 359.149 285.293Z"
      fill="#F2F2F2" />
    <path
      d="M482.889 278.53C491.049 278.53 497.664 271.923 497.664 263.773C497.664 255.623 491.049 249.017 482.889 249.017C474.729 249.017 468.114 255.623 468.114 263.773C468.114 271.923 474.729 278.53 482.889 278.53Z"
      fill="#F2F2F2" />
    <path
      d="M262.541 41.8123C218.283 42.1245 182.045 78.0457 181.416 122.245C181.41 122.654 181.408 125.523 181.408 129.276C181.408 134.779 183.597 140.056 187.493 143.947C191.388 147.838 196.672 150.024 202.181 150.025C204.913 150.024 207.617 149.486 210.14 148.441C212.663 147.397 214.955 145.865 216.885 143.936C218.815 142.006 220.345 139.715 221.389 137.194C222.432 134.673 222.968 131.972 222.966 129.244C222.963 126.691 222.962 124.924 222.962 124.816C222.961 117.985 224.74 111.271 228.124 105.335C231.509 99.3989 236.382 94.445 242.265 90.9607C248.148 87.4763 254.838 85.5814 261.676 85.4625C268.515 85.3435 275.266 87.0046 281.267 90.2823C287.268 93.5599 292.311 98.3413 295.9 104.156C299.49 109.971 301.502 116.619 301.739 123.445C301.975 130.272 300.429 137.043 297.25 143.092C294.072 149.141 289.373 154.259 283.613 157.944L283.621 157.953C283.621 157.953 254.053 176.964 245.039 203.043L245.047 203.045C243.462 208.388 242.658 213.931 242.662 219.504C242.662 221.794 242.797 241.836 243.058 258.103C243.149 263.715 245.446 269.067 249.452 273.004C253.459 276.94 258.855 279.146 264.475 279.145C267.299 279.144 270.096 278.587 272.703 277.503C275.31 276.42 277.678 274.832 279.668 272.831C281.659 270.831 283.234 268.456 284.303 265.846C285.371 263.235 285.912 260.439 285.895 257.618C285.804 242.721 285.756 225.374 285.756 224.115C285.756 208.101 301.223 192.146 313.929 181.741C328.559 169.759 339.088 153.431 343.317 135.012C344.252 131.22 344.768 127.337 344.855 123.432C344.855 112.664 342.722 102.002 338.578 92.0607C334.434 82.1195 328.361 73.0955 320.71 65.5086C313.058 57.9218 303.979 51.9221 293.996 47.8552C284.013 43.7882 273.323 41.7345 262.541 41.8123Z"
      fill="var(--lng-palette-primary-main)" />

    <path
      d="M386.886 167.853C397.086 167.853 405.355 159.595 405.355 149.407C405.355 139.22 397.086 130.962 386.886 130.962C376.686 130.962 368.418 139.22 368.418 149.407C368.418 159.595 376.686 167.853 386.886 167.853Z"
      fill="#2F2E41" />
    <path d="M352.758 357.925H345.211L341.62 328.85H352.76L352.758 357.925Z" fill="#A0616A" />
    <path
      d="M339.82 355.771H354.376V364.925H330.655C330.655 363.723 330.892 362.532 331.353 361.422C331.814 360.311 332.489 359.302 333.34 358.452C334.191 357.602 335.201 356.928 336.313 356.468C337.425 356.008 338.617 355.771 339.82 355.771Z"
      fill="#2F2E41" />
    <path d="M411.242 357.925H403.695L400.104 328.85H411.244L411.242 357.925Z" fill="#A0616A" />
    <path
      d="M398.304 355.771H412.86V364.925H389.139C389.139 363.723 389.377 362.532 389.837 361.422C390.298 360.311 390.973 359.302 391.824 358.452C392.675 357.602 393.685 356.928 394.797 356.468C395.909 356.008 397.101 355.771 398.304 355.771Z"
      fill="#2F2E41" />
    <path
      d="M384.08 167.961C392.43 167.961 399.2 161.2 399.2 152.859C399.2 144.519 392.43 137.758 384.08 137.758C375.729 137.758 368.959 144.519 368.959 152.859C368.959 161.2 375.729 167.961 384.08 167.961Z"
      fill="#A0616A" />
    <path
      d="M393.092 216.679L399.857 201.154C401.501 197.512 401.972 193.45 401.205 189.529C400.439 185.609 398.473 182.022 395.579 179.265C394.985 178.678 394.353 178.13 393.689 177.623C390.351 175.015 386.237 173.593 381.998 173.584C379.149 173.595 376.335 174.22 373.749 175.416C373.527 175.514 373.312 175.619 373.09 175.723C372.666 175.926 372.247 176.148 371.841 176.375C369.19 177.895 366.935 180.016 365.256 182.566C363.577 185.116 362.522 188.025 362.175 191.058L359.19 216.045C358.439 218.007 331.647 288.838 341.017 342.915C341.116 343.492 341.398 344.023 341.821 344.429C342.244 344.835 342.786 345.095 343.368 345.171L352.867 346.463C353.561 346.557 354.265 346.386 354.837 345.983C355.409 345.581 355.807 344.976 355.951 344.292L371.89 268.413C371.989 267.941 372.244 267.517 372.613 267.207C372.983 266.897 373.445 266.72 373.928 266.703C374.41 266.687 374.883 266.833 375.273 267.117C375.662 267.401 375.945 267.808 376.076 268.271L398.596 348.067C398.756 348.647 399.102 349.158 399.582 349.523C400.061 349.887 400.647 350.084 401.249 350.084C401.429 350.083 401.608 350.066 401.785 350.035L413.389 347.803C414.063 347.677 414.667 347.304 415.08 346.757C415.494 346.21 415.687 345.528 415.624 344.845C413.918 325.853 404.856 230.716 393.092 216.679Z"
      fill="#2F2E41" />
    <path
      d="M325.318 165.427C325.214 166.325 325.307 167.235 325.592 168.092C325.877 168.95 326.348 169.735 326.969 170.392C327.591 171.049 328.35 171.561 329.191 171.894C330.033 172.226 330.937 172.37 331.841 172.315L340.292 192.601L346.686 183.136L337.679 165.323C337.487 163.814 336.747 162.427 335.6 161.426C334.452 160.425 332.977 159.879 331.453 159.891C329.929 159.904 328.463 160.475 327.333 161.495C326.202 162.515 325.485 163.914 325.318 165.427Z"
      fill="#A0616A" />
    <path
      d="M383.241 237.105C384.14 236.997 385.004 236.695 385.773 236.218C386.542 235.741 387.196 235.101 387.691 234.344C388.186 233.587 388.508 232.731 388.635 231.836C388.763 230.941 388.692 230.03 388.429 229.165L406.211 216.229L395.505 212.225L380.26 225.123C378.835 225.661 377.657 226.703 376.95 228.051C376.243 229.399 376.055 230.959 376.422 232.436C376.79 233.913 377.687 235.204 378.944 236.064C380.2 236.925 381.73 237.295 383.241 237.105Z"
      fill="#A0616A" />
    <path
      d="M354.253 206.125C353.571 206.124 352.891 206.057 352.222 205.925C350.605 205.617 349.088 204.917 347.805 203.886C346.523 202.855 345.514 201.525 344.867 200.012L333.026 185.592C332.776 185.287 332.593 184.932 332.492 184.551C332.39 184.171 332.371 183.772 332.435 183.383C332.5 182.994 332.647 182.624 332.867 182.296C333.087 181.969 333.374 181.692 333.71 181.484L342.134 176.276C342.445 176.084 342.792 175.955 343.153 175.897C343.514 175.839 343.883 175.853 344.239 175.938C344.594 176.023 344.93 176.178 345.225 176.393C345.521 176.608 345.771 176.88 345.961 177.192L354.306 190.925L370.289 179.128C371.561 178.461 373.031 178.274 374.43 178.601C375.83 178.928 377.064 179.746 377.909 180.907C378.754 182.068 379.152 183.494 379.031 184.924C378.911 186.354 378.279 187.693 377.251 188.696L361.299 203.229C359.425 205.085 356.892 206.126 354.253 206.125Z"
      fill="#2F2E41" />
    <path
      d="M397.439 227.812C397.417 227.812 397.395 227.812 397.374 227.812C396.985 227.802 396.603 227.711 396.252 227.545C395.901 227.379 395.588 227.141 395.335 226.846L387.846 218.119C387.59 217.822 387.401 217.474 387.291 217.099C387.18 216.723 387.151 216.328 387.205 215.941C387.258 215.553 387.393 215.181 387.602 214.849C387.81 214.517 388.086 214.234 388.412 214.016L402.437 204.678L389.732 189.422C388.992 188.192 388.721 186.737 388.968 185.323C389.214 183.909 389.962 182.631 391.073 181.722C392.185 180.813 393.588 180.334 395.024 180.373C396.46 180.411 397.835 180.965 398.896 181.932L414.338 197.003C415.554 198.112 416.481 199.499 417.042 201.045C417.603 202.591 417.779 204.249 417.557 205.878C417.334 207.507 416.719 209.058 415.765 210.397C414.81 211.737 413.544 212.825 412.076 213.568L399.455 226.943C399.196 227.218 398.883 227.436 398.536 227.586C398.19 227.735 397.816 227.812 397.439 227.812Z"
      fill="#2F2E41" />
    <path
      d="M380.235 195.656C380.115 195.656 379.995 195.648 379.876 195.633C379.354 195.57 378.862 195.358 378.457 195.024C378.052 194.689 377.752 194.246 377.591 193.746L371.963 176.512C371.822 176.077 371.844 175.605 372.024 175.184C372.205 174.763 372.532 174.421 372.945 174.222L373.127 174.136C373.293 174.057 373.457 173.98 373.624 173.905C376.249 172.689 379.105 172.055 381.998 172.046C385.754 172.053 389.426 173.155 392.563 175.217C392.984 175.497 393.278 175.93 393.382 176.424C393.485 176.918 393.391 177.433 393.118 177.857L382.56 194.377C382.313 194.77 381.97 195.093 381.563 195.316C381.156 195.54 380.699 195.657 380.235 195.656Z"
      fill="#E6E6E6" />
    <path
      d="M401.447 141.173C404.785 141.173 407.491 138.47 407.491 135.137C407.491 131.803 404.785 129.101 401.447 129.101C398.11 129.101 395.404 131.803 395.404 135.137C395.404 138.47 398.11 141.173 401.447 141.173Z"
      fill="#2F2E41" />
    <path
      d="M380.73 128.502C376.485 128.502 372.414 130.187 369.412 133.185C366.41 136.183 364.724 140.249 364.724 144.489V151.252H373.053L377.036 144.489L378.232 151.252H403.508L396.736 144.489C396.736 140.249 395.05 136.183 392.048 133.185C389.047 130.187 384.975 128.502 380.73 128.502Z"
      fill="#2F2E41" />
    <path
      d="M404.553 131.002C405.222 128.915 406.605 127.13 408.461 125.961C410.317 124.792 412.525 124.314 414.699 124.611C418.551 125.254 421.596 128.346 423.41 131.799C425.224 135.252 426.062 139.117 427.282 142.822C428.502 146.527 430.231 150.252 433.311 152.65C436.39 155.048 441.115 155.699 444.139 153.232C443.794 155.803 442.648 158.2 440.863 160.085C439.079 161.97 436.746 163.247 434.195 163.735C431.644 164.223 429.004 163.898 426.648 162.805C424.292 161.713 422.34 159.908 421.068 157.647C419.472 154.811 419.06 151.488 418.587 148.27C418.113 145.052 417.499 141.722 415.593 139.084C413.688 136.445 410.122 134.722 407.096 135.924L404.553 131.002Z"
      fill="#2F2E41" />
    <path
      d="M208.047 140.211C202.538 140.21 197.254 138.024 193.358 134.133C189.462 130.242 187.274 124.964 187.273 119.462C187.273 115.709 187.276 112.839 187.282 112.431C187.457 99.5768 190.698 86.9492 196.737 75.5961C186.815 89.1616 181.36 105.471 181.125 122.269C181.12 122.677 181.117 125.547 181.117 129.299C181.118 134.802 183.306 140.079 187.202 143.97C191.098 147.861 196.381 150.048 201.891 150.048C206.418 150.047 210.821 148.569 214.431 145.84C218.041 143.111 220.66 139.28 221.891 134.929C218.087 138.335 213.156 140.217 208.047 140.211Z"
      fill="#3F3D56" />
    <path
      d="M263.949 85.5321C270.319 85.836 276.519 87.6791 282.018 90.9035C287.517 94.1278 292.15 98.6369 295.52 104.044C298.89 109.45 300.896 115.593 301.365 121.944C301.834 128.296 300.753 134.666 298.214 140.508C301.886 136.201 304.585 131.153 306.127 125.71C307.669 120.266 308.018 114.555 307.149 108.965C306.281 103.374 304.215 98.0367 301.094 93.3159C297.973 88.595 293.869 84.6019 289.063 81.6086C284.257 78.6153 278.861 76.6923 273.243 75.9706C267.625 75.249 261.917 75.7458 256.509 77.427C251.1 79.1082 246.119 81.9343 241.903 85.7128C237.687 89.4912 234.337 94.1331 232.081 99.322C235.981 94.7397 240.882 91.1132 246.408 88.7224C251.933 86.3315 257.935 85.24 263.949 85.5321Z"
      fill="#3F3D56" />
    <path
      d="M270.34 269.33C264.72 269.332 259.324 267.126 255.318 263.19C251.311 259.253 249.014 253.901 248.923 248.289C248.662 232.022 248.527 211.98 248.527 209.689C248.524 204.117 249.327 198.574 250.912 193.231L250.905 193.229C251.841 190.547 252.971 187.937 254.287 185.42C250.247 190.796 247.033 196.744 244.748 203.067L244.756 203.069C243.171 208.411 242.368 213.955 242.371 219.527C242.371 221.818 242.506 241.859 242.767 258.126C242.858 263.739 245.155 269.091 249.162 273.027C253.168 276.964 258.564 279.169 264.184 279.168C268.818 279.167 273.327 277.666 277.035 274.889C280.742 272.112 283.448 268.21 284.747 263.767C280.809 267.353 275.67 269.338 270.34 269.33Z"
      fill="#3F3D56" />
    <path d="M77.9013 358.206L85.4482 358.205L89.0391 329.13L77.8995 329.13L77.9013 358.206Z"
      fill="#FFB8B8" />
    <path
      d="M100.004 365.204L76.2841 365.205L76.2837 356.052L90.8393 356.051C93.2699 356.051 95.601 357.016 97.3198 358.732C99.0386 360.449 100.004 362.777 100.004 365.204Z"
      fill="#2F2E41" />
    <path d="M50.814 358.206L58.3609 358.205L61.9518 329.13L50.8121 329.13L50.814 358.206Z"
      fill="#FFB8B8" />
    <path
      d="M72.9171 365.204L49.1967 365.205L49.1963 356.052L63.752 356.051C66.1826 356.051 68.5137 357.016 70.2325 358.732C71.9513 360.449 72.9169 362.777 72.9171 365.204Z"
      fill="#2F2E41" />
    <path
      d="M57.4093 349.264L50.0373 348.876C49.6571 348.856 49.2847 348.761 48.9417 348.596C48.5986 348.432 48.2917 348.201 48.0387 347.917C47.7857 347.633 47.5916 347.301 47.4678 346.942C47.3439 346.582 47.2927 346.202 47.3172 345.822L56.1283 248.389L96.7045 259.324L100.614 258.259L88.3887 344.514C88.2845 345.163 87.9619 345.757 87.4741 346.198C86.9863 346.639 86.3625 346.9 85.7057 346.939L77.7587 347.309C77.3613 347.331 76.9637 347.271 76.591 347.131C76.2182 346.992 75.8784 346.777 75.5931 346.5C75.3078 346.223 75.0831 345.89 74.9333 345.521C74.7835 345.153 74.7118 344.758 74.7228 344.36L76.1627 292.592C76.1694 292.352 76.0862 292.119 75.9293 291.938C75.7724 291.757 75.5533 291.641 75.3151 291.613C75.077 291.586 74.837 291.648 74.6426 291.788C74.4482 291.928 74.3133 292.136 74.2646 292.37L60.3781 346.977C60.247 347.625 59.895 348.208 59.3821 348.625C58.8692 349.043 58.2271 349.27 57.5653 349.268C57.5136 349.268 57.4616 349.267 57.4093 349.264Z"
      fill="#2F2E41" />
    <path
      d="M79.2563 168.667C87.607 168.667 94.3766 161.906 94.3766 153.566C94.3766 145.225 87.607 138.464 79.2563 138.464C70.9056 138.464 64.136 145.225 64.136 153.566C64.136 161.906 70.9056 168.667 79.2563 168.667Z"
      fill="#FFB8B8" />
    <path
      d="M54.0821 197.933L55.7446 233.759L56.3456 246.793C56.3696 247.361 56.5625 247.908 56.8996 248.365C57.2368 248.823 57.7029 249.169 58.2382 249.36L97.2292 263.467C97.5442 263.584 97.8779 263.643 98.2139 263.64C98.598 263.642 98.9785 263.566 99.3327 263.418C99.6869 263.269 100.008 263.051 100.276 262.777C100.544 262.502 100.753 262.176 100.892 261.818C101.031 261.461 101.097 261.079 101.085 260.696L99.4865 196.279C99.3815 190.994 97.4336 185.911 93.9786 181.907C90.5236 177.902 85.7781 175.227 80.56 174.343C80.1829 174.285 79.7992 174.228 79.4155 174.177C76.1798 173.775 72.8955 174.087 69.7935 175.09C66.6916 176.093 63.8473 177.763 61.4609 179.982C58.9898 182.252 57.0481 185.036 55.773 188.138C54.498 191.24 53.9208 194.584 54.0821 197.933Z"
      fill="#CCCCCC" />
    <path
      d="M115.855 256.319C114.933 256.033 114.09 255.536 113.395 254.867C112.699 254.198 112.17 253.376 111.848 252.466C111.527 251.557 111.424 250.585 111.545 249.628C111.667 248.672 112.011 247.757 112.55 246.956L99.3276 229.396L110.738 228.691L121.545 245.475C122.701 246.368 123.507 247.64 123.819 249.067C124.131 250.493 123.929 251.985 123.251 253.278C122.572 254.572 121.459 255.586 120.106 256.142C118.754 256.698 117.249 256.76 115.855 256.319Z"
      fill="#FFB8B8" />
    <path
      d="M106.558 243.779C106.208 243.637 105.89 243.427 105.621 243.161C105.353 242.895 105.139 242.579 104.994 242.23L85.0737 194.828C84.6829 193.9 84.4789 192.904 84.4736 191.897C84.4683 190.891 84.6617 189.893 85.0427 188.96C85.4238 188.028 85.985 187.18 86.6944 186.465C87.4037 185.749 88.2473 185.181 89.1768 184.791C90.1064 184.401 91.1037 184.198 92.1118 184.194C93.1199 184.189 94.119 184.383 95.052 184.765C95.985 185.146 96.8336 185.707 97.5494 186.416C98.2651 187.125 98.834 187.968 99.2234 188.897L119.144 236.299C119.438 237.002 119.441 237.793 119.153 238.498C118.864 239.203 118.307 239.765 117.604 240.061L108.761 243.768C108.413 243.915 108.039 243.992 107.661 243.994C107.283 243.996 106.908 243.922 106.558 243.779Z"
      fill="#CCCCCC" />
    <path
      d="M74.395 242.107L93.5281 205.517C93.897 204.814 94.5304 204.285 95.2892 204.047C96.0481 203.809 96.8704 203.882 97.5757 204.249L125.347 218.735C126.052 219.103 126.581 219.736 126.819 220.494C127.058 221.251 126.985 222.073 126.618 222.777L107.485 259.367C107.116 260.07 106.482 260.599 105.723 260.837C104.965 261.075 104.142 261.002 103.437 260.635L75.6653 246.149C74.9608 245.781 74.4314 245.148 74.1932 244.39C73.9551 243.632 74.0277 242.811 74.395 242.107Z"
      fill="#3F3D56" />
    <path
      d="M87.2263 225.39C86.8862 224.487 86.3395 223.677 85.6299 223.023C84.9204 222.368 84.0676 221.889 83.1396 221.623C82.2116 221.356 81.2341 221.31 80.285 221.488C79.336 221.666 78.4418 222.063 77.6737 222.647L59.3415 210.502L59.3103 221.919L76.7237 231.703C77.6849 232.803 79.0035 233.531 80.4482 233.758C81.8928 233.985 83.3713 233.696 84.6243 232.943C85.8773 232.19 86.8248 231.02 87.3005 229.639C87.7763 228.258 87.75 226.754 87.2263 225.39Z"
      fill="#FFB8B8" />
    <path
      d="M64.0481 227.958L49.0659 216.105C47.4451 215.561 45.9806 214.633 44.7981 213.399C43.6156 212.166 42.7503 210.665 42.2767 209.024C41.8031 207.383 41.7351 205.652 42.0788 203.979C42.4224 202.307 43.1674 200.742 44.2496 199.42L57.8531 181.614C58.7984 180.461 60.1279 179.685 61.5985 179.43C63.0692 179.174 64.5827 179.456 65.8624 180.224C67.1421 180.991 68.1026 182.193 68.5683 183.609C69.0339 185.026 68.9737 186.562 68.3985 187.938L57.635 205.523L73.4528 213.016C73.8206 213.19 74.1472 213.44 74.4111 213.75C74.6749 214.06 74.8699 214.422 74.9833 214.812C75.0967 215.203 75.1258 215.613 75.0687 216.015C75.0116 216.418 74.8696 216.804 74.6521 217.147L68.2671 227.24C68.0512 227.58 67.7661 227.872 67.4303 228.095C67.0945 228.319 66.7154 228.47 66.3176 228.538C66.3018 228.54 66.2859 228.543 66.27 228.545C65.8791 228.604 65.4802 228.582 65.0981 228.481C64.7159 228.38 64.3586 228.202 64.0481 227.958Z"
      fill="#CCCCCC" />
    <path
      d="M67.831 163.678C67.7661 163.488 67.7456 163.286 67.7709 163.088C67.7962 162.889 67.8667 162.699 67.977 162.531C68.0873 162.364 68.2345 162.224 68.4073 162.122C68.5801 162.021 68.7739 161.96 68.9738 161.945C69.3834 161.967 69.7841 162.072 70.1519 162.253C70.5197 162.434 70.8469 162.688 71.1138 162.999C71.661 163.629 72.2981 164.175 73.0045 164.62C73.7359 164.989 74.7279 164.936 75.1449 164.234C75.5365 163.575 75.2682 162.692 75.0311 161.926C74.4279 159.978 74.0904 157.957 74.0277 155.919C73.9594 153.644 74.2808 151.27 75.542 149.495C77.1696 147.205 80.08 146.335 82.8343 146.398C85.5886 146.462 88.2982 147.311 91.0264 147.848C91.9683 148.033 93.0754 148.128 93.7053 147.399C94.3751 146.623 94.1291 145.369 93.8442 144.322C93.1049 141.606 92.3205 138.798 90.6028 136.604C88.7455 134.325 86.0924 132.833 83.1779 132.429C80.3798 132.083 77.5394 132.405 74.8902 133.369C70.574 134.728 66.776 137.37 64.0043 140.943C61.147 144.743 59.9123 149.518 60.5703 154.224C61.2131 158.323 63.3878 162.026 66.6562 164.587L67.831 163.678Z"
      fill="#2F2E41" />
    <path
      d="M259.335 358.326C255.313 356.576 251.752 353.916 248.935 350.556C246.117 347.197 244.12 343.229 243.101 338.967C242.082 334.704 242.069 330.263 243.062 325.995C244.056 321.726 246.029 317.747 248.827 314.37C245.583 316.735 242.881 319.762 240.899 323.25C238.916 326.738 237.699 330.607 237.329 334.601C236.958 338.594 237.442 342.621 238.748 346.413C240.055 350.205 242.154 353.677 244.906 356.597C247.659 359.517 251.002 361.82 254.713 363.351C258.425 364.882 262.42 365.607 266.433 365.479C270.447 365.35 274.387 364.37 277.993 362.604C281.598 360.838 284.786 358.327 287.345 355.236C283.354 358.15 278.667 359.969 273.753 360.511C268.838 361.053 263.868 360.299 259.335 358.326Z"
      fill="#3F3D56" />
  </g>
  <defs>
    <clipPath id="clip0_222_36838">
      <rect width="520" height="366" fill="white" />
    </clipPath>
  </defs>
</svg>
  