<svg width="281" height="261" viewBox="0 0 281 261" fill="none" xmlns="http://www.w3.org/2000/svg">
  <g clip-path="url(#clip0_222_36615)">
    <path
      d="M189.414 185.026H88.6114C80.1384 185.026 73.2452 178.16 73.2452 169.719V69.3071C73.2452 60.8669 80.1384 54.0004 88.6114 54.0004H189.414C197.887 54.0004 204.78 60.8669 204.78 69.3071V169.719C204.78 178.16 197.887 185.026 189.414 185.026ZM88.6114 56.4494C81.4828 56.4494 75.7038 62.206 75.7038 69.3071V169.719C75.7038 176.82 81.4828 182.577 88.6114 182.577H159.221C183.025 182.577 202.321 163.355 202.321 139.643V69.3071C202.321 62.206 196.542 56.4494 189.414 56.4494L88.6114 56.4494Z"
      fill="#F2F2F2" />
    <path
      d="M99.4789 66.8912C94.708 66.8912 90.8268 70.7574 90.8268 75.5098V88.9997C90.8268 93.7521 94.708 97.6183 99.4789 97.6183H113.021C117.792 97.6183 121.673 93.7521 121.673 88.9997V75.5098C121.673 70.7574 117.792 66.8912 113.021 66.8912H99.4789Z"
      fill="#F2F2F2" />
    <path
      d="M99.4789 104.867C94.708 104.867 90.8268 108.733 90.8268 113.486V126.976C90.8268 131.728 94.708 135.594 99.4789 135.594H113.021C117.792 135.594 121.673 131.728 121.673 126.976V113.486C121.673 108.733 117.792 104.867 113.021 104.867H99.4789Z"
      fill="#F2F2F2" />
    <path
      d="M99.4789 142.843C94.708 142.843 90.8268 146.709 90.8268 151.462V164.951C90.8268 169.704 94.708 173.57 99.4789 173.57H113.021C117.792 173.57 121.673 169.704 121.673 164.951V151.462C121.673 146.709 117.792 142.843 113.021 142.843H99.4789Z"
      fill="#F2F2F2" />
    <path
      d="M108.459 33.9789C102.448 33.9789 97.5574 38.8503 97.5574 44.8385V61.8362C97.5574 67.8244 102.448 72.6959 108.459 72.6959H125.523C131.534 72.6959 136.425 67.8244 136.425 61.8362V44.8385C136.425 38.8503 131.534 33.9789 125.523 33.9789H108.459Z"
      fill="var(--ing-palette-primary-main)" />
    <path
      d="M164.637 81.4803C158.626 81.4803 153.735 86.3518 153.735 92.34V109.338C153.735 115.326 158.626 120.197 164.637 120.197H181.701C187.712 120.197 192.603 115.326 192.603 109.338V92.34C192.603 86.3518 187.712 81.4803 181.701 81.4803H164.637Z"
      fill="var(--ing-palette-primary-main)" />
    <path d="M140.214 252.569L136.747 252.54L135.213 238.91L140.329 238.953L140.214 252.569Z"
      fill="#A0616A" />
    <path
      d="M129.11 258.06C129.103 258.91 129.79 259.61 130.647 259.617L137.539 259.675L138.746 257.238L139.189 259.687L141.789 259.711L141.133 250.977L140.228 250.917L136.537 250.664L135.347 250.584L135.326 253.055L129.789 256.796C129.368 257.081 129.114 257.553 129.11 258.06Z"
      fill="#2F2E41" />
    <path d="M157.851 252.569L154.385 252.54L152.85 238.91L157.966 238.953L157.851 252.569Z"
      fill="#A0616A" />
    <path
      d="M146.747 258.06C146.74 258.91 147.428 259.61 148.284 259.617L155.176 259.675L156.383 257.238L156.826 259.687L159.427 259.711L158.77 250.977L157.865 250.917L154.175 250.664L152.984 250.584L152.963 253.055L147.427 256.796C147.005 257.081 146.752 257.553 146.747 258.06Z"
      fill="#2F2E41" />
    <path
      d="M126.611 142.373L140.662 142.815L153.974 145.762C153.974 145.762 152.643 147.383 157.08 151.803C157.08 151.803 162.997 162.117 158.855 172.136L157.08 212.212C157.08 212.212 162.255 240.463 158.301 249.454L153.076 249.779L144.233 212.538L139.923 172.43L137.852 211.917C137.852 211.917 145.774 239.02 140.772 249.779L135.112 249.454L125.428 211.917C125.428 211.917 121.286 168.6 121.878 160.349C122.469 152.098 126.611 142.373 126.611 142.373Z"
      fill="#2F2E41" />
    <path
      d="M173.799 79.0469C171.878 79.5423 170.724 81.4952 171.221 83.4086C171.449 84.2854 171.986 84.9987 172.684 85.4699L172.684 85.4748L172.411 92.0495L177.462 94.3779L177.866 84.2604L177.83 84.2615C178.268 83.4843 178.42 82.5453 178.178 81.6144C177.68 79.7009 175.72 78.5514 173.799 79.0469Z"
      fill="#A0616A" />
    <path
      d="M145.569 102.512C144.508 101.464 143.893 100.044 143.87 98.4993C143.839 96.4272 144.881 94.5465 146.658 93.4686C148.704 92.2271 151.263 92.3528 153.177 93.7882L169.038 105.684L171.864 88.5471L177.932 90.4928L176.484 112.807C176.383 114.368 175.497 115.743 174.115 116.486C172.733 117.228 171.093 117.209 169.728 116.436L146.807 103.446C146.346 103.185 145.932 102.87 145.569 102.512Z"
      fill="#3F3D56" />
    <path
      d="M121.384 69.4614C122.398 71.1604 121.838 73.3565 120.132 74.3665C119.351 74.8293 118.465 74.9592 117.637 74.8045L117.633 74.8081L113.18 79.6683L107.947 77.7794L114.812 70.3117L114.836 70.3372C115.074 69.4781 115.63 68.7052 116.46 68.2138C118.166 67.2038 120.371 67.7623 121.384 69.4614Z"
      fill="#A0616A" />
    <path
      d="M123.308 105.718L97.8492 98.8681C96.3334 98.4601 95.1558 97.3233 94.6988 95.8268C94.2419 94.3303 94.585 92.7328 95.6162 91.5532L110.36 74.6913L116.044 77.565L105.939 91.7167L125.61 94.3926C127.984 94.7156 129.89 96.421 130.465 98.7377C130.965 100.749 130.376 102.816 128.89 104.266C127.782 105.347 126.341 105.924 124.847 105.923C124.336 105.923 123.82 105.856 123.308 105.718Z"
      fill="#3F3D56" />
    <path
      d="M159.604 148.269L124.003 149.896C123.025 148.417 123.29 146.193 124.659 143.408C129.83 132.892 125.903 112.999 123.262 102.641C122.521 99.7347 124.51 96.8454 127.505 96.5471L130.862 96.2127L133.965 86.7775H144.832L149.34 91.9081L156.991 96.5381C155.599 110.827 149.665 131.005 158.118 141.124C159.967 143.337 160.492 145.731 159.604 148.269Z"
      fill="#3F3D56" />
    <path
      d="M138.016 86.9954C143.862 86.9954 148.601 82.2747 148.601 76.4515C148.601 70.6283 143.862 65.9076 138.016 65.9076C132.17 65.9076 127.431 70.6283 127.431 76.4515C127.431 82.2747 132.17 86.9954 138.016 86.9954Z"
      fill="#A0616A" />
    <path
      d="M149.994 69.7022C151.466 64.3538 135.416 59.7674 132.297 64.0745C131.863 63.4622 130.26 63.0902 129.525 63.2781C128.789 63.4659 128.171 63.9355 127.567 64.3901C126.738 65.025 125.878 65.6824 125.369 66.5953C124.856 67.5045 124.776 68.7443 125.467 69.5332C126.013 70.1606 126.974 73.4945 127.797 73.6598C128.37 73.7762 128.853 73.8702 129.267 73.9378C129.637 73.4006 130.58 72.7257 130.512 72.0758C131.07 72.444 130.866 73.0917 130.753 73.7537C130.379 75.9581 121.936 93.0228 126.772 87.9942C127.251 88.276 127.843 88.539 128.525 88.7794C129.683 87.04 130.633 84.9888 131.26 82.8436L131.264 82.8832C131.48 84.7474 132.847 86.2771 134.657 86.7992C141.915 88.8939 147.786 85.8203 149.806 80.2775C149.067 78.7823 148.744 78.9447 148.811 78.9003C149.734 78.2806 151.002 78.6858 151.399 79.7218C151.516 80.0272 151.622 80.2879 151.714 80.4842C152.766 76.7348 154.018 77.276 149.994 69.7022Z"
      fill="#2F2E41" />
    <path
      d="M144.987 65.8218L144.245 62.046C144.183 61.7286 144.124 61.3842 144.267 61.0942C144.452 60.7215 144.926 60.5671 145.339 60.6265C145.752 60.6859 146.061 61.0616 146.472 61.1339C147.9 61.3854 149.788 59.9802 150.3 63.5352C150.513 65.0174 152.887 65.174 153.68 66.4461C154.473 67.7182 154.571 69.5543 153.488 70.5936C152.624 71.4236 151.236 71.5194 150.114 71.0954C148.991 70.6714 148.09 69.815 147.303 68.9119C146.516 68.0088 145.804 67.0315 144.896 66.2488"
      fill="#2F2E41" />
    <path
      d="M150.559 71.5647C147.663 71.1617 145.689 70.1124 144.691 68.4462C143.386 66.2652 144.261 63.8636 144.298 63.7625L144.911 63.9892C144.902 64.0112 144.109 66.2096 145.256 68.1187C146.148 69.6037 147.963 70.5464 150.649 70.9204L150.559 71.5647Z"
      fill="var(--ing-palette-primary-main)" />
    <path
      d="M164.151 30.7667C155.636 30.7667 148.708 23.8652 148.708 15.3833C148.708 6.90147 155.636 0 164.151 0C172.666 0 179.594 6.90147 179.594 15.3833C179.594 23.8652 172.666 30.7667 164.151 30.7667ZM164.151 6.15334C159.042 6.15334 154.885 10.2936 154.885 15.3833C154.885 20.4731 159.042 24.6134 164.151 24.6134C169.261 24.6134 173.417 20.4731 173.417 15.3833C173.417 10.2936 169.261 6.15334 164.151 6.15334Z"
      fill="var(--ing-palette-primary-main)" />
    <path
      d="M187.911 41.2211C187.154 41.2211 186.396 40.9462 185.8 40.3888L171.306 26.8578C170.06 25.6965 169.997 23.7496 171.164 22.5102C172.328 21.2663 174.283 21.2047 175.528 22.369L190.023 35.9C191.268 37.0613 191.332 39.0082 190.165 40.2476C189.557 40.8951 188.735 41.2211 187.911 41.2211Z"
      fill="var(--ing-palette-primary-main)" />
    <path
      d="M253.42 252.224C254.47 252.289 255.05 250.989 254.256 250.232L254.177 249.919C254.187 249.894 254.197 249.869 254.208 249.844C255.27 247.321 258.869 247.339 259.922 249.865C260.857 252.107 262.047 254.353 262.339 256.724C262.471 257.77 262.412 258.837 262.179 259.863C264.368 255.098 265.521 249.895 265.521 244.663C265.521 243.348 265.449 242.033 265.301 240.722C265.179 239.649 265.012 238.583 264.795 237.527C263.623 231.816 261.085 226.378 257.425 221.835C255.665 220.877 254.197 219.379 253.311 217.584C252.992 216.936 252.743 216.239 252.625 215.53C252.825 215.556 253.38 212.518 253.229 212.331C253.508 211.909 254.007 211.7 254.312 211.288C255.828 209.241 257.917 209.598 259.007 212.38C261.336 213.551 261.359 215.493 259.93 217.361C259.02 218.549 258.896 220.157 258.098 221.43C258.18 221.534 258.265 221.636 258.347 221.74C259.852 223.663 261.154 225.73 262.252 227.902C261.941 225.488 262.399 222.581 263.18 220.707C264.069 218.571 265.734 216.773 267.201 214.927C268.963 212.709 272.576 213.677 272.886 216.488C272.889 216.515 272.892 216.542 272.895 216.57C272.677 216.692 272.463 216.822 272.255 216.96C271.066 217.743 271.477 219.579 272.886 219.796L272.918 219.801C272.839 220.582 272.704 221.358 272.507 222.12C274.389 229.368 270.327 232.008 264.526 232.127C264.398 232.192 264.273 232.258 264.145 232.32C264.733 233.968 265.202 235.659 265.55 237.373C265.862 238.887 266.079 240.418 266.2 241.955C266.351 243.894 266.338 245.843 266.174 247.779L266.184 247.711C266.601 245.578 267.763 243.587 269.451 242.206C271.965 240.149 275.516 239.392 278.228 237.738C279.534 236.942 281.207 237.971 280.979 239.479L280.968 239.551C280.564 239.714 280.17 239.904 279.789 240.117C279.571 240.239 279.358 240.369 279.149 240.507C277.96 241.29 278.371 243.126 279.78 243.343L279.812 243.348C279.835 243.351 279.855 243.354 279.878 243.358C279.185 244.996 278.22 246.517 277.012 247.828C275.835 254.156 270.782 254.757 265.376 252.914H265.373C264.782 255.478 263.919 257.983 262.809 260.37H253.649C253.616 260.269 253.587 260.164 253.557 260.063C254.404 260.115 255.258 260.066 256.092 259.913C255.412 259.082 254.733 258.245 254.053 257.414C254.036 257.398 254.023 257.381 254.01 257.365C253.666 256.94 253.317 256.518 252.973 256.093L252.973 256.092C252.951 254.787 253.108 253.486 253.42 252.224Z"
      fill="#F2F2F2" />

  </g>
  <defs>
    <clipPath id="clip0_222_36615">
      <rect width="281" height="261" fill="white" />
    </clipPath>
  </defs>
</svg>
  