<svg width="834" height="634" viewBox="0 0 834 634" fill="none" xmlns="http://www.w3.org/2000/svg">
<g clip-path="url(#clip0_719_40777)">
<path d="M771.425 575.462C744.125 596.252 710.865 617.312 678.165 627.242C668.738 630.19 659.011 632.072 649.165 632.852C639.96 633.592 630.695 632.873 621.715 630.722C598.115 624.852 576.225 614.572 555.045 602.562C548.125 598.632 541.285 594.522 534.485 590.322C523.385 583.462 512.395 576.362 501.375 569.432C499.725 568.382 498.085 567.352 496.435 566.332H496.425C493.765 564.662 491.098 563.016 488.425 561.392C487.955 561.102 487.485 560.822 487.005 560.532C481.955 557.472 476.818 554.482 471.595 551.562C470.955 551.212 470.315 550.852 469.675 550.502C459.569 544.897 449.182 539.813 438.555 535.272C431.575 532.332 424.505 529.682 417.365 527.422H417.355C414.625 526.562 411.885 525.752 409.135 525.012C400.889 522.75 392.485 521.105 383.995 520.092C372.295 518.676 360.461 518.77 348.785 520.372C347.995 520.482 347.215 520.592 346.425 520.722C314.825 525.782 285.985 542.842 254.245 546.862C253.215 546.992 252.195 547.112 251.165 547.202C250.725 547.242 250.285 547.292 249.845 547.322C240.621 548.112 231.338 547.884 222.165 546.642C196.535 543.262 171.575 532.772 149.105 519.552C96.5747 488.642 53.9747 441.132 28.0747 386.112C23.6271 376.683 19.6784 367.026 16.2448 357.182C6.64467 329.885 1.35788 301.258 0.574713 272.332C-1.85529 171.972 55.1747 71.2822 144.715 25.8922C234.265 -19.4978 352.065 -4.4878 424.285 65.2422C468.095 107.542 493.445 164.862 526.415 216.072C559.385 267.272 606.245 316.182 666.685 323.642C697.475 327.442 729.695 320.092 759.205 329.652C775.545 334.952 789.485 345.092 800.715 358.012C808.265 366.78 814.583 376.536 819.495 387.012C823.094 394.586 826.016 402.463 828.225 410.552C828.635 412.042 829.015 413.532 829.385 415.022C844.085 475.062 820.595 538.002 771.425 575.462Z" fill="#F2F2F2"/>
<path d="M279.665 466.772H185.665C171.581 466.772 160.165 478.189 160.165 492.272V492.272C160.165 506.356 171.581 517.772 185.665 517.772H279.665C293.748 517.772 305.165 506.356 305.165 492.272C305.165 478.189 293.748 466.772 279.665 466.772Z" fill="#3F3D56"/>
<path d="M251.165 504.772V547.202C241.509 548.137 231.777 547.949 222.165 546.642V504.772H251.165Z" fill="#3F3D56"/>
<path d="M348.785 520.372C347.995 520.482 347.215 520.592 346.425 520.722C314.825 525.782 285.985 542.842 254.245 546.862C253.215 546.992 252.195 547.112 251.165 547.202C250.725 547.242 250.285 547.292 249.845 547.322C242.095 539.732 234.345 531.652 227.065 523.282C223.115 518.752 219.295 514.132 215.705 509.452C206.385 497.372 198.485 484.952 193.265 472.752C193.795 466.902 190.155 453.372 188.415 443.012L188.405 443.002C187.665 438.652 187.265 434.872 187.635 432.442C189.755 418.422 201.205 420.032 204.725 406.292C207.9 403.657 211.281 401.279 214.835 399.182C215.425 398.832 216.025 398.482 216.645 398.132L254.845 371.732L269.445 386.052L291.665 407.852L315.745 431.462L295.305 452.112C295.305 452.112 312.385 471.802 332.355 498.052C337.715 505.102 343.285 512.632 348.785 520.372Z" fill="#2F2E41"/>
<path d="M678.165 504.772V627.242C668.738 630.19 659.01 632.072 649.165 632.852V504.772H678.165Z" fill="#3F3D56"/>
<path d="M715.665 494.772H621.665C607.581 494.772 596.165 506.189 596.165 520.272V520.272C596.165 534.356 607.581 545.772 621.665 545.772H715.665C729.748 545.772 741.165 534.356 741.165 520.272C741.165 506.189 729.748 494.772 715.665 494.772Z" fill="#3F3D56"/>
<path d="M487.005 560.532C481.955 557.472 476.818 554.482 471.595 551.562C470.955 551.212 470.315 550.852 469.675 550.502L473.115 549.032L482.395 545.042L482.485 545.002L482.585 545.342L487.005 560.532Z" fill="#FFB6B6"/>
<path d="M501.375 569.432C499.725 568.382 498.085 567.352 496.435 566.332H496.425C493.765 564.662 491.098 563.015 488.425 561.392C487.955 561.102 487.485 560.822 487.005 560.532C481.955 557.472 476.818 554.482 471.595 551.562C470.955 551.212 470.315 550.852 469.675 550.502C459.569 544.896 449.182 539.813 438.555 535.272C431.575 532.332 424.505 529.682 417.365 527.422H417.355L411.745 518.032L386.495 475.742L380.945 466.452C380.945 466.452 362.015 472.052 335.225 477.422C325.475 479.382 314.695 481.302 303.385 482.922C291.295 484.642 278.615 486.012 266.015 486.672C260.005 486.992 254.015 487.152 248.115 487.102C232.865 487.002 218.215 485.572 205.385 482.172C201.105 478.152 188.205 472.682 178.965 467.672H178.955C175.075 465.572 171.855 463.562 170.165 461.772C160.425 451.472 168.745 443.442 160.085 432.202C159.968 428.078 160.179 423.952 160.715 419.862C160.805 419.182 160.895 418.492 161.005 417.792L163.735 371.432L184.015 368.752L214.875 364.672L248.305 360.252L251.985 389.072C251.985 389.072 278.015 387.752 310.995 388.192C363.965 388.912 434.845 394.192 444.445 416.852C445.345 418.982 446.245 421.132 447.145 423.282C449.285 428.422 451.405 433.589 453.505 438.782C461.115 457.582 468.375 476.562 475.005 494.502C479.125 505.662 483.005 516.422 486.575 526.492C489.445 534.592 492.105 542.252 494.535 549.302C496.755 555.742 498.765 561.672 500.555 566.992C500.835 567.822 501.105 568.642 501.375 569.432Z" fill="#2F2E41"/>
<path d="M314.819 288.545L250.764 234.144L292.439 191.967L321.514 239.59L429.288 260.957C432.528 258.518 436.409 257.075 440.455 256.803C444.502 256.531 448.54 257.443 452.078 259.427C455.615 261.41 458.499 264.38 460.378 267.975C462.257 271.569 463.049 275.633 462.658 279.67C462.268 283.707 460.711 287.543 458.177 290.71C455.644 293.878 452.244 296.24 448.392 297.508C444.539 298.776 440.401 298.896 436.482 297.854C432.562 296.811 429.031 294.65 426.318 291.635L314.819 288.545Z" fill="#A0616A"/>
<path d="M194.154 162.647C186.751 186.729 257.253 244.167 257.253 244.167C258.036 238.385 298.009 288.24 300.729 283.725C308.458 270.893 316.962 239.173 325.885 235.119C330.988 232.801 301.715 200.576 301.715 200.576C301.715 200.576 286.782 180.82 267.066 155.781C261.623 148.599 254.452 142.911 246.219 139.246C237.987 135.581 228.961 134.058 219.982 134.82C219.982 134.82 201.556 138.564 194.154 162.647Z" fill="#3F3D56"/>
<path d="M225.325 109.334C249.252 109.334 268.649 89.9368 268.649 66.0096C268.649 42.0824 249.252 22.6855 225.325 22.6855C201.398 22.6855 182.001 42.0824 182.001 66.0096C182.001 89.9368 201.398 109.334 225.325 109.334Z" fill="#A0616A"/>
<path d="M246.987 137.967C256.321 143.516 261.904 153.711 265.109 164.086C271.043 183.293 274.615 203.151 275.746 223.223L279.131 283.312L321.057 411.259C284.721 442.005 148.138 418.247 148.138 418.247C148.138 418.247 143.946 416.85 148.138 412.657C152.331 408.464 156.413 412.179 152.22 407.986C148.028 403.793 150.918 408.464 152.315 404.271C153.713 400.079 152.315 402.874 150.918 401.476C149.52 400.079 161.737 387.501 161.737 387.501L150.557 314.058L136.581 165.918C153.352 144.955 187.08 132.597 187.08 132.597L195.794 116.91L239.369 120.396L246.987 137.967Z" fill="#3F3D56"/>
<path d="M261.039 42.992C264.406 45.5034 266.901 49.0078 268.172 53.0115C268.66 46.4685 268.691 39.8994 268.265 33.3521C267.754 28.7512 264.515 27.7164 260.764 26.5172C257.377 25.4338 253.546 24.21 252.516 19.7436C238.897 6.49521 215.19 7.16326 198.965 11.7845C190.038 14.3275 184.901 17.5948 184.441 19.5087L184.346 19.9027L183.983 20.084C177.102 23.5248 175.762 34.3903 175.851 42.8992C176.018 58.9306 181.554 77.1382 184.672 78.6173C184.837 78.6956 184.879 78.665 184.95 78.6054C189.645 74.8531 195.374 78.8906 197.891 81.0854C199.376 71.1216 204.157 61.9428 211.47 55.0149C218.784 48.087 228.208 43.8097 238.237 42.8661C241.513 42.5495 244.762 42.0047 247.962 41.2355C249.585 40.8157 251.253 40.5967 252.929 40.5836C255.815 40.5398 258.645 41.3802 261.039 42.992Z" fill="#2F2E41"/>
<path d="M206.449 353.817L193.196 347.03C192.486 346.524 191.982 345.779 191.775 344.932C191.569 344.085 191.674 343.192 192.071 342.416C192.469 341.64 193.132 341.033 193.94 340.705C194.748 340.378 195.647 340.352 196.473 340.633L209.725 347.42C210.435 347.926 210.94 348.67 211.146 349.518C211.353 350.365 211.248 351.258 210.85 352.034C210.453 352.81 209.79 353.417 208.982 353.744C208.173 354.072 207.275 354.098 206.449 353.817Z" fill="var(--ing-palette-primary-main)"/>
<path d="M161.846 335.633L140.045 254.471L198.304 243.442L195.171 299.151L271.718 377.97C275.77 377.804 279.783 378.821 283.268 380.897C286.752 382.973 289.557 386.017 291.341 389.66C293.125 393.302 293.811 397.385 293.314 401.41C292.818 405.436 291.161 409.23 288.546 412.33C285.931 415.43 282.47 417.702 278.586 418.869C274.701 420.036 270.561 420.048 266.671 418.902C262.78 417.757 259.306 415.505 256.673 412.42C254.04 409.335 252.362 405.55 251.843 401.528L161.846 335.633Z" fill="#A0616A"/>
<path d="M134.083 163.471C114.308 179.083 139.689 266.406 139.689 266.406C143.619 262.094 148.186 325.831 152.989 323.661C166.64 317.493 191.661 296.223 201.308 297.957C206.824 298.948 201.045 255.797 201.045 255.797C201.045 255.797 199.982 231.056 197.984 199.249C197.586 190.247 194.916 181.491 190.224 173.798C185.532 166.104 178.97 159.723 171.148 155.248C171.148 155.248 153.858 147.86 134.083 163.471Z" fill="#3F3D56"/>
<path d="M819.495 387.013L28.0746 386.113C23.627 376.683 19.6782 367.027 16.2446 357.183L800.715 358.013C808.265 366.78 814.583 376.537 819.495 387.013Z" fill="#3F3D56"/>
<path d="M567.425 596.832C563.335 598.812 559.208 600.722 555.045 602.562C548.125 598.632 541.285 594.522 534.485 590.322L559.705 579.242L567.425 596.832Z" fill="#FFB6B6"/>
<path d="M751.305 459.032C747.205 464.532 742.975 469.922 738.615 475.202C734.595 480.072 730.468 484.849 726.235 489.532C724.485 491.472 722.715 493.403 720.905 495.312C717.575 498.882 714.171 502.392 710.695 505.842C704.435 507.812 691.755 511.282 678.165 514.522C668.275 516.872 657.905 519.102 649.165 520.522C644.272 521.401 639.323 521.929 634.355 522.102C628.455 522.152 622.465 521.992 616.455 521.672C609.675 521.312 602.885 520.752 596.175 520.032C578.725 518.202 561.825 515.352 547.245 512.422C541.905 511.362 536.885 510.282 532.265 509.232C523.515 507.262 516.195 505.422 510.895 504.022C504.925 502.462 501.525 501.452 501.525 501.452L486.575 526.492L478.815 539.482L473.115 549.032L471.595 551.562C470.955 551.213 470.315 550.853 469.675 550.503C459.569 544.897 449.182 539.813 438.555 535.272C431.575 532.332 424.505 529.682 417.365 527.422H417.355C414.625 526.562 411.885 525.752 409.135 525.012C409.995 522.702 410.865 520.376 411.745 518.032C413.385 513.662 415.058 509.252 416.765 504.802C420.455 495.163 424.275 485.382 428.205 475.652C431.425 467.662 434.705 459.702 438.025 451.852C439.555 448.232 442.665 445.052 447.015 442.262C449.094 440.951 451.262 439.789 453.505 438.782C465.955 433.112 484.295 429.422 504.505 427.052C506.175 426.862 507.855 426.672 509.545 426.492C526.275 424.732 544.025 423.822 560.625 423.402C568.935 423.192 576.955 423.112 584.415 423.102C586.825 423.102 589.168 423.109 591.445 423.122H591.455C597.605 423.152 603.265 423.242 608.245 423.342C609.215 423.362 610.155 423.392 611.075 423.412H611.085C611.705 423.422 612.315 423.442 612.915 423.452C623.805 423.732 630.485 424.072 630.485 424.072L633.075 403.753L633.605 399.652L634.105 395.753V395.742L634.165 395.253L634.575 395.242L641.775 395.102L702.295 393.922L735.355 393.272L730.115 415.732L721.465 452.792C722.345 458.652 751.605 454.062 751.305 459.032Z" fill="#2F2E41"/>
<path d="M574.885 593.133C572.415 594.393 569.925 595.633 567.425 596.833C563.335 598.813 559.208 600.723 555.045 602.563C548.125 598.633 541.285 594.523 534.485 590.323C523.385 583.463 512.395 576.363 501.375 569.433C499.725 568.383 498.085 567.353 496.435 566.333H496.425C491.885 559.593 487.255 552.573 482.585 545.343C482.515 545.243 482.455 545.143 482.395 545.043C481.195 543.203 480.002 541.349 478.815 539.483C471.345 527.783 463.835 515.583 456.545 503.123L475.005 494.503L509.325 478.483L515.245 475.723L532.265 509.233L547.445 539.123L550.825 545.773L574.885 593.133Z" fill="#2F2E41"/>
<path d="M580.057 432.249L667.558 347.866L691.81 279.196L656.037 263.641C637.663 281.242 617.801 336.065 617.801 336.065L557.588 412.669C557.119 412.83 556.651 413.001 556.188 413.205C553.476 414.401 551.119 416.276 549.343 418.649C547.568 421.023 546.435 423.814 546.053 426.753C545.672 429.693 546.055 432.681 547.165 435.429C548.276 438.177 550.077 440.592 552.394 442.44C554.711 444.289 557.465 445.509 560.391 445.981C563.317 446.454 566.316 446.165 569.097 445.14C571.878 444.115 574.348 442.391 576.268 440.133C578.188 437.874 579.493 435.159 580.057 432.249Z" fill="#FFB8B8"/>
<path d="M645.971 271.308L691.347 285.713L691.518 285.685C708.406 282.856 722.42 255.272 731.202 232.631C734.091 225.163 734.038 216.876 731.051 209.446C728.065 202.016 722.369 195.997 715.115 192.606C709.746 190.141 703.796 189.226 697.935 189.966C692.074 190.705 686.537 193.069 681.95 196.791L658.649 215.83L645.971 271.308Z" fill="var(--ing-palette-primary-main)"/>
<path d="M751.123 460.045L751.388 459.693C765.545 440.917 746.182 394.42 743.255 387.676L756.418 383.777L754.124 358.713L753.019 347.537L763.254 337.817L763.288 337.569L770.327 287.477L779.537 254.323C783.008 241.789 783.082 228.558 779.75 215.986C776.417 203.415 769.8 191.957 760.576 182.788L741.749 164.095L719.193 128.789L681.373 127.812L667.774 151.971C655.126 154.553 643.786 161.489 635.727 171.572C627.667 181.654 623.401 194.245 623.67 207.15L624.951 271.466L611.381 351.153L611 365.628L597.681 379.683L600.143 393.892L590.18 397.861L585.305 418.052C583.443 420.382 571.148 435.922 571.037 440.255C571.02 440.905 571.484 441.546 572.496 442.27C580.454 447.964 624.933 460.301 644.952 452.884C666.275 444.99 749.847 459.816 750.689 459.967L751.123 460.045Z" fill="var(--ing-palette-primary-main)"/>
<path d="M696.98 116.989C724.651 116.989 747.083 94.5573 747.083 66.8858C747.083 39.2144 724.651 16.7822 696.98 16.7822C669.308 16.7822 646.876 39.2144 646.876 66.8858C646.876 94.5573 669.308 116.989 696.98 116.989Z" fill="#FFB8B8"/>
<path d="M690.867 117.659C698.626 117.78 706.381 117.238 714.048 116.039C721.647 114.494 738.647 102.036 743.387 94.5391C746.908 88.9693 749.159 80.2715 750.428 73.9562C752.137 65.599 752.072 56.976 750.237 48.6457C748.401 40.3153 744.837 32.4633 739.774 25.598C737.829 22.7265 735.143 20.4342 732.001 18.9637C731.723 18.8548 731.436 18.7583 731.147 18.6758C726.569 17.4713 722.456 14.9261 719.335 11.3669C718.73 10.647 718.074 9.97166 717.371 9.34606C713.844 6.36945 709.663 4.26982 705.169 3.21878C697.915 1.27738 687.417 3.20448 673.967 8.95212C667.209 11.8399 659.82 10.7948 654.135 9.56157C653.816 9.49998 653.486 9.52296 653.179 9.62822C652.872 9.73349 652.597 9.91738 652.383 10.1616C649.964 12.4323 646.776 13.7033 643.458 13.7192C641.426 13.8085 639.294 16.622 636.717 20.291C636.133 21.1238 635.45 22.0958 634.958 22.687L634.892 21.5512L633.743 22.8183C631.936 24.8098 630.663 27.2262 630.041 29.8423C629.42 32.4585 629.47 35.1893 630.189 37.7806C630.907 40.3719 632.269 42.7394 634.148 44.6625C636.028 46.5856 638.363 48.0019 640.937 48.7794C642.981 49.3232 645.075 49.657 647.187 49.7754C648.466 49.8905 649.79 50.0095 651.058 50.2295C655.127 51.0629 658.911 52.9373 662.04 55.6698C665.169 58.4022 667.536 61.8993 668.91 65.8197C669.235 66.7259 669.764 67.5453 670.456 68.2147C671.148 68.884 671.984 69.3855 672.901 69.6802C673.817 69.975 674.789 70.0553 675.741 69.9148C676.694 69.7743 677.601 69.4168 678.393 68.87C679.714 67.8414 681.264 67.1476 682.911 66.8477C684.558 66.5478 686.254 66.6506 687.852 67.1476C689.234 67.9158 690.309 69.1356 690.898 70.6026C691.614 72.2369 692.8 73.621 694.306 74.5783C699.456 77.2333 699.811 88.9953 697.961 98.8004C696.178 108.252 692.654 115.089 689.391 115.427C686.879 115.687 686.592 115.865 686.41 116.309L686.247 116.707L686.53 117.079C687.917 117.582 689.397 117.78 690.867 117.659Z" fill="#2F2E41"/>
<path d="M658.413 256.16L639.094 217.645C611.054 219.56 555.4 251.982 555.4 251.982L450.101 274.307C446.982 273.108 443.602 272.752 440.301 273.275C437 273.797 433.895 275.18 431.299 277.284C428.702 279.388 426.706 282.139 425.511 285.26C424.315 288.381 423.963 291.761 424.49 295.061C425.016 298.362 426.403 301.465 428.51 304.059C430.617 306.653 433.37 308.646 436.492 309.837C439.615 311.029 442.996 311.377 446.295 310.846C449.595 310.316 452.696 308.926 455.288 306.816L589.234 297.214L658.413 256.16Z" fill="#FFB8B8"/>
<path d="M650.622 262.484L701.076 224.989L709.963 192.962C711.685 186.668 711.612 180.018 709.753 173.764C707.893 167.509 704.322 161.899 699.442 157.568C692.787 151.741 684.167 148.659 675.327 148.944C666.486 149.229 658.083 152.861 651.818 159.105C632.831 178.056 611.176 204.494 615.828 222.828L615.875 223.014L650.622 262.484Z" fill="var(--ing-palette-primary-main)"/>
<path d="M588.165 362.772H453.165V380.772H588.165V362.772Z" fill="white"/>
<path d="M243.165 362.772H108.165V380.772H243.165V362.772Z" fill="white"/>
<path d="M258.929 276.21V361.914C258.93 363.006 259.364 364.054 260.136 364.826C260.908 365.598 261.956 366.032 263.048 366.033H390.052C391.144 366.032 392.192 365.598 392.964 364.826C393.736 364.054 394.17 363.006 394.171 361.914V276.21C394.169 275.119 393.734 274.073 392.962 273.302C392.19 272.531 391.144 272.097 390.052 272.096H263.048C261.957 272.097 260.91 272.531 260.138 273.302C259.366 274.073 258.931 275.119 258.929 276.21Z" fill="#3F3D56"/>
<path d="M261.908 277.276V360.857C261.909 361.44 262.141 362 262.554 362.412C262.967 362.825 263.526 363.057 264.11 363.058H388.995C389.579 363.057 390.138 362.825 390.551 362.412C390.963 362 391.195 361.44 391.196 360.857V277.276C391.196 276.692 390.965 276.132 390.552 275.718C390.139 275.305 389.579 275.072 388.995 275.07H264.11C263.525 275.072 262.965 275.305 262.553 275.718C262.14 276.132 261.908 276.692 261.908 277.276Z" fill="var(--ing-palette-primary-main)"/>
<path d="M256.273 378.629C256.505 378.92 256.801 379.156 257.138 379.317C257.474 379.478 257.843 379.56 258.216 379.559H394.208C394.58 379.558 394.947 379.475 395.283 379.315C395.618 379.154 395.914 378.921 396.148 378.633C396.383 378.344 396.55 378.006 396.637 377.645C396.725 377.283 396.73 376.907 396.654 376.543L394.543 366.516C394.456 366.107 394.267 365.726 393.995 365.409C393.723 365.091 393.376 364.847 392.985 364.698C392.702 364.587 392.401 364.53 392.097 364.53H260.319C260.015 364.53 259.714 364.587 259.431 364.698C259.04 364.847 258.693 365.091 258.421 365.409C258.148 365.726 257.96 366.107 257.873 366.516L255.762 376.543C255.686 376.907 255.693 377.283 255.782 377.643C255.87 378.004 256.038 378.341 256.273 378.629Z" fill="#2F2E41"/>
<path d="M387.431 368.85H390.643C390.912 368.85 391.131 368.631 391.131 368.361V366.825C391.131 366.555 390.912 366.337 390.643 366.337H387.431C387.161 366.337 386.942 366.555 386.942 366.825V368.361C386.942 368.631 387.161 368.85 387.431 368.85Z" fill="#3F3D56"/>
<path d="M379.054 368.85H382.266C382.535 368.85 382.754 368.631 382.754 368.361V366.825C382.754 366.555 382.535 366.337 382.266 366.337H379.054C378.784 366.337 378.565 366.555 378.565 366.825V368.361C378.565 368.631 378.784 368.85 379.054 368.85Z" fill="#3F3D56"/>
<path d="M370.677 368.85H373.889C374.158 368.85 374.377 368.631 374.377 368.361V366.825C374.377 366.555 374.158 366.337 373.889 366.337H370.677C370.407 366.337 370.188 366.555 370.188 366.825V368.361C370.188 368.631 370.407 368.85 370.677 368.85Z" fill="#3F3D56"/>
<path d="M362.3 368.85H365.512C365.781 368.85 366 368.631 366 368.361V366.825C366 366.555 365.781 366.337 365.512 366.337H362.3C362.03 366.337 361.812 366.555 361.812 366.825V368.361C361.812 368.631 362.03 368.85 362.3 368.85Z" fill="#3F3D56"/>
<path d="M353.923 368.85H357.135C357.405 368.85 357.623 368.631 357.623 368.361V366.825C357.623 366.555 357.405 366.337 357.135 366.337H353.923C353.653 366.337 353.435 366.555 353.435 366.825V368.361C353.435 368.631 353.653 368.85 353.923 368.85Z" fill="#3F3D56"/>
<path d="M345.546 368.85H348.758C349.027 368.85 349.246 368.631 349.246 368.361V366.825C349.246 366.555 349.027 366.337 348.758 366.337H345.546C345.276 366.337 345.058 366.555 345.058 366.825V368.361C345.058 368.631 345.276 368.85 345.546 368.85Z" fill="#3F3D56"/>
<path d="M337.169 368.85H340.381C340.651 368.85 340.869 368.631 340.869 368.361V366.825C340.869 366.555 340.651 366.337 340.381 366.337H337.169C336.899 366.337 336.681 366.555 336.681 366.825V368.361C336.681 368.631 336.899 368.85 337.169 368.85Z" fill="#3F3D56"/>
<path d="M328.792 368.85H332.004C332.274 368.85 332.492 368.631 332.492 368.361V366.825C332.492 366.555 332.274 366.337 332.004 366.337H328.792C328.522 366.337 328.304 366.555 328.304 366.825V368.361C328.304 368.631 328.522 368.85 328.792 368.85Z" fill="#3F3D56"/>
<path d="M320.415 368.85H323.627C323.897 368.85 324.115 368.631 324.115 368.361V366.825C324.115 366.555 323.897 366.337 323.627 366.337H320.415C320.145 366.337 319.927 366.555 319.927 366.825V368.361C319.927 368.631 320.145 368.85 320.415 368.85Z" fill="#3F3D56"/>
<path d="M312.038 368.85H315.25C315.52 368.85 315.738 368.631 315.738 368.361V366.825C315.738 366.555 315.52 366.337 315.25 366.337H312.038C311.768 366.337 311.55 366.555 311.55 366.825V368.361C311.55 368.631 311.768 368.85 312.038 368.85Z" fill="#3F3D56"/>
<path d="M303.661 368.85H306.873C307.143 368.85 307.361 368.631 307.361 368.361V366.825C307.361 366.555 307.143 366.337 306.873 366.337H303.661C303.391 366.337 303.173 366.555 303.173 366.825V368.361C303.173 368.631 303.391 368.85 303.661 368.85Z" fill="#3F3D56"/>
<path d="M295.284 368.85H298.496C298.766 368.85 298.984 368.631 298.984 368.361V366.825C298.984 366.555 298.766 366.337 298.496 366.337H295.284C295.014 366.337 294.796 366.555 294.796 366.825V368.361C294.796 368.631 295.014 368.85 295.284 368.85Z" fill="#3F3D56"/>
<path d="M286.907 368.85H290.119C290.389 368.85 290.607 368.631 290.607 368.361V366.825C290.607 366.555 290.389 366.337 290.119 366.337H286.907C286.638 366.337 286.419 366.555 286.419 366.825V368.361C286.419 368.631 286.638 368.85 286.907 368.85Z" fill="#3F3D56"/>
<path d="M278.53 368.85H281.742C282.012 368.85 282.23 368.631 282.23 368.361V366.825C282.23 366.555 282.012 366.337 281.742 366.337H278.53C278.261 366.337 278.042 366.555 278.042 366.825V368.361C278.042 368.631 278.261 368.85 278.53 368.85Z" fill="#3F3D56"/>
<path d="M270.153 368.85H273.365C273.635 368.85 273.854 368.631 273.854 368.361V366.825C273.854 366.555 273.635 366.337 273.365 366.337H270.153C269.884 366.337 269.665 366.555 269.665 366.825V368.361C269.665 368.631 269.884 368.85 270.153 368.85Z" fill="#3F3D56"/>
<path d="M261.776 368.85H264.988C265.258 368.85 265.477 368.631 265.477 368.361V366.825C265.477 366.555 265.258 366.337 264.988 366.337H261.776C261.507 366.337 261.288 366.555 261.288 366.825V368.361C261.288 368.631 261.507 368.85 261.776 368.85Z" fill="#3F3D56"/>
<path d="M387.53 373.038H390.742C391.011 373.038 391.23 372.82 391.23 372.55V371.013C391.23 370.744 391.011 370.525 390.742 370.525H387.53C387.26 370.525 387.041 370.744 387.041 371.013V372.55C387.041 372.82 387.26 373.038 387.53 373.038Z" fill="#3F3D56"/>
<path d="M379.153 373.038H382.365C382.634 373.038 382.853 372.82 382.853 372.55V371.013C382.853 370.744 382.634 370.525 382.365 370.525H379.153C378.883 370.525 378.665 370.744 378.665 371.013V372.55C378.665 372.82 378.883 373.038 379.153 373.038Z" fill="#3F3D56"/>
<path d="M370.776 373.038H373.988C374.257 373.038 374.476 372.82 374.476 372.55V371.013C374.476 370.744 374.257 370.525 373.988 370.525H370.776C370.506 370.525 370.288 370.744 370.288 371.013V372.55C370.288 372.82 370.506 373.038 370.776 373.038Z" fill="#3F3D56"/>
<path d="M362.399 373.038H365.611C365.881 373.038 366.099 372.82 366.099 372.55V371.013C366.099 370.744 365.881 370.525 365.611 370.525H362.399C362.129 370.525 361.911 370.744 361.911 371.013V372.55C361.911 372.82 362.129 373.038 362.399 373.038Z" fill="#3F3D56"/>
<path d="M354.022 373.038H357.234C357.504 373.038 357.722 372.82 357.722 372.55V371.013C357.722 370.744 357.504 370.525 357.234 370.525H354.022C353.752 370.525 353.534 370.744 353.534 371.013V372.55C353.534 372.82 353.752 373.038 354.022 373.038Z" fill="#3F3D56"/>
<path d="M345.645 373.038H348.857C349.127 373.038 349.345 372.82 349.345 372.55V371.013C349.345 370.744 349.127 370.525 348.857 370.525H345.645C345.375 370.525 345.157 370.744 345.157 371.013V372.55C345.157 372.82 345.375 373.038 345.645 373.038Z" fill="#3F3D56"/>
<path d="M337.268 373.038H340.48C340.75 373.038 340.968 372.82 340.968 372.55V371.013C340.968 370.744 340.75 370.525 340.48 370.525H337.268C336.998 370.525 336.78 370.744 336.78 371.013V372.55C336.78 372.82 336.998 373.038 337.268 373.038Z" fill="#3F3D56"/>
<path d="M328.891 373.038H332.103C332.373 373.038 332.591 372.82 332.591 372.55V371.013C332.591 370.744 332.373 370.525 332.103 370.525H328.891C328.621 370.525 328.403 370.744 328.403 371.013V372.55C328.403 372.82 328.621 373.038 328.891 373.038Z" fill="#3F3D56"/>
<path d="M320.514 373.038H323.726C323.996 373.038 324.214 372.82 324.214 372.55V371.013C324.214 370.744 323.996 370.525 323.726 370.525H320.514C320.244 370.525 320.026 370.744 320.026 371.013V372.55C320.026 372.82 320.244 373.038 320.514 373.038Z" fill="#3F3D56"/>
<path d="M312.137 373.038H315.349C315.619 373.038 315.837 372.82 315.837 372.55V371.013C315.837 370.744 315.619 370.525 315.349 370.525H312.137C311.867 370.525 311.649 370.744 311.649 371.013V372.55C311.649 372.82 311.867 373.038 312.137 373.038Z" fill="#3F3D56"/>
<path d="M303.76 373.038H306.972C307.242 373.038 307.46 372.82 307.46 372.55V371.013C307.46 370.744 307.242 370.525 306.972 370.525H303.76C303.491 370.525 303.272 370.744 303.272 371.013V372.55C303.272 372.82 303.491 373.038 303.76 373.038Z" fill="#3F3D56"/>
<path d="M295.383 373.038H298.595C298.864 373.038 299.083 372.82 299.083 372.55V371.013C299.083 370.744 298.864 370.525 298.595 370.525H295.383C295.113 370.525 294.895 370.744 294.895 371.013V372.55C294.895 372.82 295.113 373.038 295.383 373.038Z" fill="#3F3D56"/>
<path d="M287.006 373.038H290.218C290.487 373.038 290.706 372.82 290.706 372.55V371.013C290.706 370.744 290.487 370.525 290.218 370.525H287.006C286.736 370.525 286.518 370.744 286.518 371.013V372.55C286.518 372.82 286.736 373.038 287.006 373.038Z" fill="#3F3D56"/>
<path d="M278.629 373.038H281.841C282.111 373.038 282.329 372.82 282.329 372.55V371.013C282.329 370.744 282.111 370.525 281.841 370.525H278.629C278.359 370.525 278.141 370.744 278.141 371.013V372.55C278.141 372.82 278.359 373.038 278.629 373.038Z" fill="#3F3D56"/>
<path d="M270.252 373.038H273.464C273.734 373.038 273.952 372.82 273.952 372.55V371.013C273.952 370.744 273.734 370.525 273.464 370.525H270.252C269.982 370.525 269.764 370.744 269.764 371.013V372.55C269.764 372.82 269.982 373.038 270.252 373.038Z" fill="#3F3D56"/>
<path d="M261.875 373.038H265.087C265.357 373.038 265.575 372.82 265.575 372.55V371.013C265.575 370.744 265.357 370.525 265.087 370.525H261.875C261.605 370.525 261.387 370.744 261.387 371.013V372.55C261.387 372.82 261.605 373.038 261.875 373.038Z" fill="#3F3D56"/>
<path d="M318.001 378.064H350.532C350.802 378.064 351.021 377.846 351.021 377.576V376.04C351.021 375.77 350.802 375.551 350.532 375.551H318.001C317.731 375.551 317.513 375.77 317.513 376.04V377.576C317.513 377.846 317.731 378.064 318.001 378.064Z" fill="#3F3D56"/>
</g>
<defs>
<clipPath id="clip0_719_40777">
<rect width="833.222" height="633.11" fill="white" transform="translate(0.5)"/>
</clipPath>
</defs>
</svg>
