<svg width="674" height="739" viewBox="0 0 674 739" fill="none" xmlns="http://www.w3.org/2000/svg">
<g clip-path="url(#clip0_723_40239)">
<path d="M467.5 149.804C420.88 142.364 367.79 138.394 312.5 138.394C261.9 138.394 213.15 141.714 169.52 147.974C169.53 147.304 169.54 146.634 169.57 145.964C170.726 107.074 187.049 70.1787 215.05 43.1643C243.05 16.1499 280.507 1.15962 319.414 1.39732C358.321 1.63501 395.591 17.0819 423.259 44.4363C450.928 71.7908 466.799 108.883 467.48 147.784C467.49 148.464 467.5 149.134 467.5 149.804Z" fill="var(--ing-palette-primary-main)"/>
<g opacity="0.1">
<path d="M338.05 1.34133C317.357 -1.45373 296.308 0.130426 276.266 5.99112C256.224 11.8518 237.638 21.8583 221.711 35.362C205.784 48.8656 192.872 65.5652 183.812 84.3784C174.752 103.192 169.746 123.698 169.119 144.57C169.089 145.24 169.079 145.91 169.069 146.58C182.031 144.72 195.454 143.127 209.234 141.796C210.92 107.025 224.725 73.9407 248.255 48.2849C271.785 22.6292 303.554 6.02064 338.05 1.34133Z" fill="white"/>
</g>
<path d="M532.68 161.624C511.22 155.806 489.453 151.185 467.48 147.784C431.466 142.203 395.158 138.714 358.74 137.334C343.57 136.714 328.12 136.394 312.5 136.394C300.12 136.394 287.84 136.594 275.73 136.994C240.206 138.043 204.766 141.038 169.57 145.964C143.516 149.551 117.714 154.782 92.3198 161.624C33.1098 177.994 0.5 199.934 0.5 223.394C0.5 246.854 33.1099 268.794 92.3198 285.164C133.96 296.684 185.3 304.534 241.24 308.134C264.33 309.634 288.2 310.394 312.5 310.394C336.88 310.394 360.83 309.624 383.99 308.124C434.9 304.834 482 298.024 521.42 288.124C521.63 288.064 521.83 288.014 522.04 287.964C524.7 287.304 527.32 286.614 529.91 285.924C530.84 285.664 531.76 285.414 532.68 285.164C532.732 285.142 532.785 285.126 532.84 285.114C533.72 284.874 534.59 284.624 535.46 284.384C537.2 283.884 538.92 283.394 540.61 282.884C540.69 282.864 540.76 282.844 540.83 282.824C542.3 282.384 543.74 281.944 545.17 281.504C546.34 281.134 547.5 280.774 548.65 280.404C549.49 280.134 550.32 279.864 551.14 279.594C551.74 279.394 552.33 279.204 552.91 279.004C553.7 278.744 554.49 278.474 555.27 278.204C555.6 278.094 555.93 277.984 556.25 277.864C557 277.614 557.73 277.354 558.46 277.094C559.25 276.814 560.04 276.524 560.82 276.244C561.47 276.014 562.12 275.774 562.76 275.534C563.3 275.324 563.83 275.124 564.37 274.924C565.84 274.374 567.28 273.803 568.7 273.244C569.41 272.954 570.12 272.674 570.82 272.384C571.51 272.104 572.21 271.814 572.89 271.524C574.01 271.054 575.11 270.584 576.19 270.114C576.71 269.874 577.24 269.644 577.75 269.424C578.14 269.244 578.52 269.074 578.91 268.894C579.19 268.774 579.47 268.644 579.74 268.514C580.75 268.054 581.75 267.584 582.73 267.114C586.49 265.314 590 263.474 593.26 261.594C613.71 249.884 624.5 236.894 624.5 223.394C624.5 199.934 591.89 177.994 532.68 161.624ZM532.14 283.244C490.45 294.774 438.97 302.624 382.88 306.194C360.07 307.644 336.49 308.394 312.5 308.394C288.59 308.394 265.09 307.654 242.35 306.204C186.17 302.644 134.61 294.794 92.8599 283.244C34.5899 267.124 2.5 245.874 2.5 223.394C2.50326 221.407 2.75188 219.429 3.24023 217.504C8.33984 197.224 39.71 178.244 92.8599 163.544C118.062 156.755 143.666 151.555 169.52 147.974C204.928 143.02 240.582 140.015 276.32 138.974C288.24 138.584 300.3 138.39 312.5 138.394C327.91 138.394 343.15 138.704 358.13 139.304C394.76 140.671 431.279 144.177 467.5 149.804C489.283 153.19 510.863 157.777 532.14 163.544C585.28 178.244 616.64 197.214 621.75 217.484C622.246 219.414 622.498 221.4 622.5 223.394C622.5 245.874 590.41 267.124 532.14 283.244Z" fill="#3F3D56"/>
<path d="M623.93 224.304C623.93 237.664 612.92 250.304 593.26 261.594C589.99 263.474 586.47 265.314 582.73 267.114C581.75 267.584 580.75 268.054 579.74 268.514C579.47 268.644 579.19 268.774 578.91 268.894C578.52 269.074 578.14 269.244 577.75 269.424C577.24 269.644 576.71 269.874 576.19 270.114C575.11 270.584 574.01 271.054 572.89 271.524C572.21 271.814 571.51 272.104 570.82 272.384C570.12 272.674 569.41 272.954 568.7 273.244C567.28 273.804 565.84 274.374 564.37 274.924C563.83 275.124 563.3 275.324 562.76 275.534C562.12 275.774 561.47 276.014 560.82 276.244C560.04 276.524 559.25 276.814 558.46 277.094C557.73 277.354 557 277.614 556.25 277.864C555.93 277.984 555.6 278.094 555.27 278.204C554.49 278.474 553.7 278.744 552.91 279.004C552.33 279.204 551.74 279.394 551.14 279.594C550.32 279.864 549.49 280.134 548.65 280.404C547.5 280.774 546.34 281.134 545.17 281.504C543.74 281.944 542.3 282.384 540.83 282.824C540.76 282.844 540.69 282.864 540.61 282.884C538.92 283.394 537.2 283.884 535.46 284.384C534.59 284.624 533.72 284.874 532.84 285.114C532.785 285.126 532.732 285.142 532.68 285.164C531.76 285.414 530.84 285.664 529.91 285.924C527.33 286.604 524.7 287.294 522.04 287.964C521.83 288.014 521.63 288.064 521.42 288.124C483.07 297.704 436.02 304.684 383.95 308.054C361.14 309.524 337.36 310.304 312.93 310.304C288.28 310.304 264.3 309.514 241.31 308.014C104.07 299.064 1.93018 264.984 1.93018 224.304C1.94098 221.828 2.31828 219.368 3.0498 217.004C3.10986 217.174 3.16991 217.334 3.24023 217.504C17.5098 254.984 118.78 285.274 250.18 292.664C270.31 293.804 291.16 294.394 312.5 294.394C333.93 294.394 354.86 293.794 375.07 292.654C506.36 285.234 607.53 254.934 621.75 217.484C621.99 216.884 622.2 216.284 622.38 215.684C623.394 218.445 623.918 221.362 623.93 224.304Z" fill="#3F3D56"/>
<path d="M92.1696 213.54C75.5269 213.54 57.8389 209.959 57.8389 203.323C57.8389 196.687 75.5269 193.106 92.1696 193.106C108.812 193.106 126.5 196.687 126.5 203.323C126.5 209.959 108.812 213.54 92.1696 213.54ZM92.1696 195.106C73.1166 195.106 59.8389 199.437 59.8389 203.323C59.8389 207.209 73.1166 211.54 92.1696 211.54C111.223 211.54 124.5 207.209 124.5 203.323C124.5 199.437 111.223 195.106 92.1696 195.106Z" fill="#3F3D56"/>
<path d="M163.169 260.54C146.527 260.54 128.839 256.959 128.839 250.323C128.839 243.687 146.527 240.106 163.169 240.106C179.812 240.106 197.5 243.687 197.5 250.323C197.5 256.959 179.812 260.54 163.169 260.54ZM163.169 242.106C144.117 242.106 130.839 246.437 130.839 250.323C130.839 254.209 144.117 258.54 163.169 258.54C182.222 258.54 195.5 254.209 195.5 250.323C195.5 246.437 182.222 242.106 163.169 242.106Z" fill="#3F3D56"/>
<path d="M532.169 213.54C515.527 213.54 497.839 209.959 497.839 203.323C497.839 196.687 515.527 193.106 532.169 193.106C548.812 193.106 566.5 196.687 566.5 203.323C566.5 209.959 548.812 213.54 532.169 213.54ZM532.169 195.106C513.116 195.106 499.839 199.437 499.839 203.323C499.839 207.209 513.116 211.54 532.169 211.54C551.222 211.54 564.5 207.209 564.5 203.323C564.5 199.437 551.222 195.106 532.169 195.106Z" fill="#3F3D56"/>
<path d="M461.169 260.54C444.527 260.54 426.839 256.959 426.839 250.323C426.839 243.687 444.527 240.106 461.169 240.106C477.812 240.106 495.5 243.687 495.5 250.323C495.5 256.959 477.812 260.54 461.169 260.54ZM461.169 242.106C442.116 242.106 428.839 246.437 428.839 250.323C428.839 254.209 442.116 258.54 461.169 258.54C480.222 258.54 493.5 254.209 493.5 250.323C493.5 246.437 480.222 242.106 461.169 242.106Z" fill="#3F3D56"/>
<path d="M312.169 282.54C295.527 282.54 277.839 278.959 277.839 272.323C277.839 265.687 295.527 262.106 312.169 262.106C328.812 262.106 346.5 265.687 346.5 272.323C346.5 278.959 328.812 282.54 312.169 282.54ZM312.169 264.106C293.116 264.106 279.839 268.437 279.839 272.323C279.839 276.209 293.116 280.54 312.169 280.54C331.222 280.54 344.5 276.209 344.5 272.323C344.5 268.437 331.222 264.106 312.169 264.106Z" fill="#3F3D56"/>
<path d="M337.478 492.717C360.68 492.717 379.49 473.907 379.49 450.705C379.49 427.502 360.68 408.692 337.478 408.692C314.275 408.692 295.465 427.502 295.465 450.705C295.465 473.907 314.275 492.717 337.478 492.717Z" fill="#2F2E41"/>
<path d="M321.502 478.306L301.055 488.546L306.77 499.958L327.217 489.719L321.502 478.306Z" fill="#2F2E41"/>
<path d="M309.466 498.801C310.679 496.962 307.686 492.849 302.782 489.616C297.878 486.382 292.919 485.252 291.707 487.091C290.494 488.93 293.487 493.042 298.391 496.276C303.295 499.509 308.253 500.64 309.466 498.801Z" fill="#2F2E41"/>
<path d="M353.454 478.306L347.739 489.719L368.186 499.958L373.901 488.546L353.454 478.306Z" fill="#2F2E41"/>
<path d="M376.565 496.276C381.469 493.042 384.462 488.93 383.249 487.091C382.037 485.252 377.078 486.382 372.174 489.616C367.27 492.849 364.277 496.962 365.49 498.801C366.703 500.64 371.661 499.509 376.565 496.276Z" fill="#2F2E41"/>
<path d="M334.536 454.787C342.466 454.787 348.895 448.358 348.895 440.428C348.895 432.498 342.466 426.069 334.536 426.069C326.606 426.069 320.178 432.498 320.178 440.428C320.178 448.358 326.606 454.787 334.536 454.787Z" fill="white"/>
<path d="M338.03 437.675C339.891 435.814 339.88 432.785 338.006 430.91C336.131 429.036 333.103 429.025 331.241 430.887C329.38 432.748 329.391 435.776 331.265 437.651C333.14 439.525 336.168 439.536 338.03 437.675Z" fill="#3F3D56"/>
<path d="M370.62 405C371.252 389.446 357.847 376.272 340.679 375.575C323.511 374.877 309.082 386.921 308.45 402.474C307.818 418.028 319.752 421.562 336.92 422.259C354.087 422.957 369.988 420.553 370.62 405Z" fill="var(--ing-palette-primary-main)"/>
<path d="M394.837 472.704C397.6 470.331 393.714 461.272 386.157 452.47C378.601 443.667 370.234 438.454 367.471 440.827C364.707 443.199 368.593 452.258 376.15 461.061C383.707 469.863 392.073 475.076 394.837 472.704Z" fill="#2F2E41"/>
<path d="M298.923 461.061C306.48 452.258 310.366 443.199 307.602 440.826C304.839 438.454 296.473 443.667 288.916 452.47C281.359 461.272 277.473 470.331 280.237 472.704C283 475.076 291.366 469.863 298.923 461.061Z" fill="#2F2E41"/>
<path d="M349.017 467.261C349.471 469.758 348.915 472.334 347.47 474.422C346.026 476.51 343.811 477.938 341.313 478.393C338.816 478.847 336.24 478.291 334.152 476.847C332.064 475.402 330.636 473.187 330.181 470.689L330.178 470.671C329.236 465.469 333.258 463.628 338.46 462.686C343.663 461.744 348.075 462.058 349.017 467.261Z" fill="white"/>
<path d="M266.5 495.394C265.97 495.394 265.461 495.183 265.086 494.808C264.711 494.433 264.5 493.924 264.5 493.394V375.394C264.5 374.863 264.711 374.354 265.086 373.979C265.461 373.604 265.97 373.394 266.5 373.394C267.03 373.394 267.539 373.604 267.914 373.979C268.289 374.354 268.5 374.863 268.5 375.394V493.394C268.5 493.924 268.289 494.433 267.914 494.808C267.539 495.183 267.03 495.394 266.5 495.394Z" fill="#CCCCCC"/>
<path d="M236.5 601.394C235.97 601.394 235.461 601.183 235.086 600.808C234.711 600.433 234.5 599.924 234.5 599.394V513.394C234.5 512.863 234.711 512.354 235.086 511.979C235.461 511.604 235.97 511.394 236.5 511.394C237.03 511.394 237.539 511.604 237.914 511.979C238.289 512.354 238.5 512.863 238.5 513.394V599.394C238.5 599.924 238.289 600.433 237.914 600.808C237.539 601.183 237.03 601.394 236.5 601.394Z" fill="#CCCCCC"/>
<path d="M313.5 530.394C312.97 530.394 312.461 530.183 312.086 529.808C311.711 529.433 311.5 528.924 311.5 528.394V410.394C311.5 409.863 311.711 409.354 312.086 408.979C312.461 408.604 312.97 408.394 313.5 408.394C314.03 408.394 314.539 408.604 314.914 408.979C315.289 409.354 315.5 409.863 315.5 410.394V528.394C315.5 528.924 315.289 529.433 314.914 529.808C314.539 530.183 314.03 530.394 313.5 530.394Z" fill="#CCCCCC"/>
<path d="M284.5 615.394C283.97 615.394 283.461 615.183 283.086 614.808C282.711 614.433 282.5 613.924 282.5 613.394V565.394C282.5 564.863 282.711 564.354 283.086 563.979C283.461 563.604 283.97 563.394 284.5 563.394C285.03 563.394 285.539 563.604 285.914 563.979C286.289 564.354 286.5 564.863 286.5 565.394V613.394C286.5 613.924 286.289 614.433 285.914 614.808C285.539 615.183 285.03 615.394 284.5 615.394Z" fill="#CCCCCC"/>
<path d="M325.5 369.394C324.97 369.394 324.461 369.183 324.086 368.808C323.711 368.433 323.5 367.924 323.5 367.394V319.394C323.5 318.863 323.711 318.354 324.086 317.979C324.461 317.604 324.97 317.394 325.5 317.394C326.03 317.394 326.539 317.604 326.914 317.979C327.289 318.354 327.5 318.863 327.5 319.394V367.394C327.5 367.924 327.289 368.433 326.914 368.808C326.539 369.183 326.03 369.394 325.5 369.394Z" fill="#CCCCCC"/>
<path d="M225.5 390.394C224.97 390.394 224.461 390.183 224.086 389.808C223.711 389.433 223.5 388.924 223.5 388.394V340.394C223.5 339.863 223.711 339.354 224.086 338.979C224.461 338.604 224.97 338.394 225.5 338.394C226.03 338.394 226.539 338.604 226.914 338.979C227.289 339.354 227.5 339.863 227.5 340.394V388.394C227.5 388.924 227.289 389.433 226.914 389.808C226.539 390.183 226.03 390.394 225.5 390.394Z" fill="#CCCCCC"/>
<path d="M399.5 395.394C398.97 395.394 398.461 395.183 398.086 394.808C397.711 394.433 397.5 393.924 397.5 393.394V345.394C397.5 344.863 397.711 344.354 398.086 343.979C398.461 343.604 398.97 343.394 399.5 343.394C400.03 343.394 400.539 343.604 400.914 343.979C401.289 344.354 401.5 344.863 401.5 345.394V393.394C401.5 393.924 401.289 394.433 400.914 394.808C400.539 395.183 400.03 395.394 399.5 395.394Z" fill="#CCCCCC"/>
<path d="M395.5 545.394C394.97 545.394 394.461 545.183 394.086 544.808C393.711 544.433 393.5 543.924 393.5 543.394V485.394C393.5 484.863 393.711 484.354 394.086 483.979C394.461 483.604 394.97 483.394 395.5 483.394C396.03 483.394 396.539 483.604 396.914 483.979C397.289 484.354 397.5 484.863 397.5 485.394V543.394C397.5 543.924 397.289 544.433 396.914 544.808C396.539 545.183 396.03 545.394 395.5 545.394Z" fill="#CCCCCC"/>
<path d="M355.5 596.394C354.97 596.394 354.461 596.183 354.086 595.808C353.711 595.433 353.5 594.924 353.5 594.394V508.394C353.5 507.863 353.711 507.354 354.086 506.979C354.461 506.604 354.97 506.394 355.5 506.394C356.03 506.394 356.539 506.604 356.914 506.979C357.289 507.354 357.5 507.863 357.5 508.394V594.394C357.5 594.924 357.289 595.433 356.914 595.808C356.539 596.183 356.03 596.394 355.5 596.394Z" fill="#CCCCCC"/>
<path d="M363.5 449.394C362.97 449.394 362.461 449.183 362.086 448.808C361.711 448.433 361.5 447.924 361.5 447.394V329.394C361.5 328.863 361.711 328.354 362.086 327.979C362.461 327.604 362.97 327.394 363.5 327.394C364.03 327.394 364.539 327.604 364.914 327.979C365.289 328.354 365.5 328.863 365.5 329.394V447.394C365.5 447.924 365.289 448.433 364.914 448.808C364.539 449.183 364.03 449.394 363.5 449.394Z" fill="#CCCCCC"/>
<path d="M608.693 700.491C611.556 698.094 607.687 688.759 600.053 679.641C592.418 670.522 583.908 665.073 581.045 667.47C578.183 669.867 582.051 679.202 589.686 688.32C597.321 697.439 605.831 702.888 608.693 700.491Z" fill="#2F2E41"/>
<path d="M589.92 690.121C597.441 667.556 585.246 643.166 562.681 635.645C540.117 628.123 515.727 640.318 508.205 662.883C500.683 685.448 512.878 709.838 535.443 717.359C558.008 724.881 582.398 712.686 589.92 690.121Z" fill="#2F2E41"/>
<path d="M567.291 710.302H554.207V733.743H567.291V710.302Z" fill="#2F2E41"/>
<path d="M541.124 710.302H528.04V733.743H541.124V710.302Z" fill="#2F2E41"/>
<path d="M556.388 738.105C562.41 738.105 567.291 736.275 567.291 734.016C567.291 731.758 562.41 729.928 556.388 729.928C550.366 729.928 545.485 731.758 545.485 734.016C545.485 736.275 550.366 738.105 556.388 738.105Z" fill="#2F2E41"/>
<path d="M530.221 737.56C536.242 737.56 541.124 735.73 541.124 733.471C541.124 731.213 536.242 729.383 530.221 729.383C524.199 729.383 519.317 731.213 519.317 733.471C519.317 735.73 524.199 737.56 530.221 737.56Z" fill="#2F2E41"/>
<path d="M535.539 622.365C539.385 606.878 556.36 597.765 573.454 602.009C590.548 606.254 601.288 622.25 597.443 637.737C593.597 653.224 580.839 653.273 563.745 649.029C546.65 644.784 531.694 637.852 535.539 622.365Z" fill="#CCCCCC"/>
<path d="M520.01 665.747C521.61 662.374 514.196 655.508 503.451 650.411C492.705 645.315 482.697 643.918 481.098 647.292C479.498 650.665 486.912 657.531 497.657 662.627C508.402 667.724 518.41 669.12 520.01 665.747Z" fill="#2F2E41"/>
<path d="M542.624 681.774C550.554 681.774 556.982 675.345 556.982 667.415C556.982 659.485 550.554 653.057 542.624 653.057C534.694 653.057 528.265 659.485 528.265 667.415C528.265 675.345 534.694 681.774 542.624 681.774Z" fill="white"/>
<path d="M536.722 667.054C539.366 667.054 541.508 664.911 541.508 662.268C541.508 659.624 539.366 657.481 536.722 657.481C534.079 657.481 531.936 659.624 531.936 662.268C531.936 664.911 534.079 667.054 536.722 667.054Z" fill="#3F3D56"/>
<path d="M542.5 703.394C545.814 703.394 548.5 700.707 548.5 697.394C548.5 694.08 545.814 691.394 542.5 691.394C539.186 691.394 536.5 694.08 536.5 697.394C536.5 700.707 539.186 703.394 542.5 703.394Z" fill="white"/>
<path d="M672.031 738.394H436.031C435.766 738.394 435.512 738.288 435.324 738.101C435.137 737.913 435.031 737.659 435.031 737.394C435.031 737.128 435.137 736.874 435.324 736.686C435.512 736.499 435.766 736.394 436.031 736.394H672.031C672.296 736.394 672.551 736.499 672.738 736.686C672.926 736.874 673.031 737.128 673.031 737.394C673.031 737.659 672.926 737.913 672.738 738.101C672.551 738.288 672.296 738.394 672.031 738.394Z" fill="#3F3D56"/>
</g>
<defs>
<clipPath id="clip0_723_40239">
<rect width="672.531" height="738.394" fill="white" transform="translate(0.5)"/>
</clipPath>
</defs>
</svg>
