<svg width="551" height="477" viewBox="0 0 551 477" fill="none" xmlns="http://www.w3.org/2000/svg">
  <g clip-path="url(#clip0_222_36457)">
    <path
      d="M516.27 147.576C515.215 65.7855 473.524 0 422.242 0C391.424 0 364.068 23.7581 346.914 60.4699L367.082 111.117L339.209 79.8995C332.178 101.022 328.188 125.138 328.188 150.751C328.131 170.165 330.52 189.509 335.298 208.325L389.349 199.604L340.976 226.675C356.736 269.916 385.539 299.448 418.74 301.397L412.341 475.609L432.142 476.317L427.91 301.222C475.187 296.716 513.058 236.242 516.092 160.56L483.421 142.276L516.27 147.576Z"
      fill="#465670" />
    <path d="M116.833 252.501H112.133V287.593H116.833V252.501Z"
      fill="var(--lng-palette-primary-main)" />
    <path
      d="M133.703 268.086L130.261 271.294L114.488 254.307L98.7088 271.294L95.2668 268.086L114.488 247.401L133.703 268.086Z"
      fill="var(--lng-palette-primary-main)" />
    <path
      d="M113.181 305.23C105.745 305.23 98.4764 303.023 92.2937 298.889C86.1111 294.754 81.2923 288.878 78.4467 282.002C75.6011 275.127 74.8566 267.561 76.3073 260.262C77.7579 252.963 81.3386 246.259 86.5965 240.997C91.8544 235.734 98.5535 232.151 105.846 230.699C113.139 229.247 120.699 229.992 127.569 232.84C134.438 235.688 140.31 240.511 144.441 246.699C148.572 252.886 150.777 260.161 150.777 267.603C150.766 277.579 146.801 287.143 139.753 294.197C132.705 301.251 123.149 305.219 113.181 305.23ZM113.181 234.679C106.675 234.679 100.314 236.61 94.9046 240.228C89.4948 243.846 85.2784 248.988 82.7885 255.004C80.2986 261.02 79.6471 267.64 80.9165 274.026C82.1858 280.413 85.3189 286.279 89.9196 290.884C94.5203 295.488 100.382 298.624 106.763 299.894C113.145 301.165 119.759 300.513 125.77 298.021C131.781 295.529 136.919 291.309 140.534 285.895C144.148 280.48 146.078 274.115 146.078 267.603C146.068 258.874 142.599 250.506 136.432 244.333C130.264 238.161 121.903 234.689 113.181 234.679Z"
      fill="var(--lng-palette-primary-main)" />
    <path d="M154.047 180.919H151.456V200.266H154.047V180.919Z" fill="#8490A1" />
    <path
      d="M163.348 189.512L161.451 191.281L152.754 181.914L144.054 191.281L142.157 189.512L152.754 178.107L163.348 189.512Z"
      fill="#8490A1" />
    <path
      d="M152.033 209.991C147.934 209.991 143.926 208.774 140.517 206.495C137.108 204.215 134.451 200.975 132.883 197.184C131.314 193.394 130.903 189.222 131.703 185.198C132.503 181.174 134.477 177.477 137.376 174.576C140.275 171.674 143.968 169.699 147.989 168.898C152.01 168.098 156.178 168.509 159.966 170.079C163.754 171.649 166.991 174.308 169.269 177.72C171.546 181.131 172.762 185.142 172.762 189.245C172.756 194.745 170.57 200.019 166.684 203.908C162.798 207.797 157.529 209.985 152.033 209.991ZM152.033 171.093C148.446 171.093 144.939 172.157 141.957 174.152C138.974 176.147 136.649 178.982 135.276 182.299C133.904 185.616 133.544 189.265 134.244 192.787C134.944 196.308 136.672 199.542 139.208 202.081C141.745 204.62 144.977 206.349 148.495 207.049C152.013 207.749 155.66 207.39 158.974 206.016C162.289 204.642 165.121 202.315 167.114 199.33C169.107 196.345 170.171 192.836 170.171 189.245C170.166 184.433 168.253 179.819 164.853 176.416C161.452 173.012 156.842 171.098 152.033 171.093Z"
      fill="#8490A1" />
    <path d="M73.44 133.046H70.8489V152.394H73.44V133.046Z" fill="#8490A1" />
    <path
      d="M82.7418 141.639L80.8439 143.408L72.1468 134.042L63.4476 143.408L61.5497 141.639L72.1468 130.234L82.7418 141.639Z"
      fill="#8490A1" />
    <path
      d="M71.4267 162.118C67.327 162.118 63.3193 160.901 59.9105 158.622C56.5016 156.342 53.8448 153.102 52.2759 149.311C50.707 145.521 50.2965 141.349 51.0963 137.325C51.8961 133.301 53.8703 129.604 56.7693 126.703C59.6683 123.802 63.3618 121.826 67.3827 121.025C71.4037 120.225 75.5716 120.636 79.3592 122.206C83.1469 123.776 86.3843 126.435 88.662 129.847C90.9397 133.258 92.1554 137.269 92.1554 141.372C92.1492 146.873 89.9633 152.146 86.0773 156.035C82.1912 159.924 76.9224 162.112 71.4267 162.118ZM71.4267 123.22C67.8394 123.22 64.3327 124.285 61.35 126.279C58.3673 128.274 56.0426 131.109 54.6698 134.426C53.297 137.743 52.9378 141.393 53.6376 144.914C54.3375 148.435 56.0649 151.67 58.6015 154.208C61.1381 156.747 64.3699 158.476 67.8882 159.176C71.4066 159.877 75.0535 159.517 78.3677 158.143C81.6819 156.769 84.5146 154.443 86.5076 151.457C88.5005 148.472 89.5643 144.963 89.5643 141.372C89.5589 136.56 87.6462 131.946 84.2459 128.543C80.8457 125.14 76.2354 123.225 71.4267 123.22Z"
      fill="#8490A1" />
    <path
      d="M217.647 370.962C217.068 370.366 216.623 369.653 216.341 368.87C216.059 368.088 215.946 367.255 216.011 366.426C216.075 365.597 216.315 364.791 216.715 364.062C217.115 363.333 217.665 362.697 218.329 362.198C218.612 361.976 218.912 361.777 219.226 361.602L214.248 340.133L225.827 344.294L228.779 364.044C229.473 365.279 229.696 366.725 229.406 368.112C229.116 369.499 228.333 370.734 227.203 371.588C225.809 372.672 224.067 373.207 222.306 373.092C220.545 372.977 218.887 372.219 217.647 370.962Z"
      fill="#FFB8B8" />
    <path
      d="M216.332 354.211L216.27 354C210.01 332.764 203.54 310.813 195.64 286.912L195.589 286.755L195.763 286.662C200.166 284.305 206.784 284.462 211.156 287.026C215.202 289.399 217.247 293.988 216.141 298.2L221.903 325.754C224.245 334.761 226.669 344.084 228.986 353.276L229.052 353.537L228.693 353.558C224.475 353.804 220.116 354.058 216.625 354.199L216.332 354.211Z"
      fill="#CCCCCC" />
    <path d="M163.136 468.5H154.926L151.018 439.453H163.136V468.5Z" fill="#FFB8B8" />
    <path
      d="M165.23 475.8H138.757V475.493C138.757 470.281 143.379 466.042 149.061 466.042H165.23V475.8Z"
      fill="#2F2E41" />
    <path d="M240.502 462.288L232.679 464.574L219.341 437.987L230.887 434.612L240.502 462.288Z"
      fill="#FFB8B8" />
    <path
      d="M219.689 476.032L219.588 475.739C217.863 470.774 220.864 465.447 226.277 463.865L241.683 459.362L244.913 468.66L219.689 476.032Z"
      fill="#2F2E41" />
    <path
      d="M198.946 267.452C208.03 267.452 215.395 260.697 215.395 252.365C215.395 244.033 208.03 237.278 198.946 237.278C189.862 237.278 182.498 244.033 182.498 252.365C182.498 260.697 189.862 267.452 198.946 267.452Z"
      fill="#FFB8B8" />
    <path
      d="M206.331 249.569C206.425 243.484 203.648 237.458 199.355 234.428C197.28 232.951 194.787 232.177 192.242 232.218C189.696 232.26 187.23 233.114 185.203 234.657C180.977 237.825 178.33 243.939 178.554 250.019C188.024 250.044 197.494 250.069 206.331 249.569Z"
      fill="#2F2E41" />
    <path
      d="M167.823 459.15L167.494 459.121C160.351 458.478 152.965 457.814 145.985 457.738L145.605 457.734L145.657 457.389C147.311 446.402 148.012 434.981 148.69 423.935C149.36 413.029 150.052 401.751 151.664 391.04C152.346 388.172 153.011 385.338 153.673 382.514C159.155 359.146 164.333 337.074 175.021 315.225L175.122 315.019L175.367 315.046C185.395 316.159 195.031 319.515 202.5 324.495L202.644 324.591L202.637 324.755C202.431 328.118 202.407 331.488 202.565 334.853C205.925 339.043 208.175 344.014 209.106 349.306C210.038 354.597 209.62 360.038 207.891 365.125C210.832 374.14 213.872 383.458 216.974 392.65C224.507 411.592 232.302 431.195 240.293 451.066L240.424 451.391L240.055 451.47C234.306 452.708 228.376 453.985 222.525 454.48L222.304 454.499L222.199 454.32C207.361 429.035 195.221 402.258 185.977 374.433C183.98 380.018 181.104 385.059 178.317 389.942C175.663 394.361 173.318 398.959 171.297 403.702C170.064 412.99 169.737 423.054 169.421 432.785C169.122 441.986 168.839 450.677 167.86 458.849L167.823 459.15Z"
      fill="#2F2E41" />
    <path
      d="M193.331 234.707C200.46 233.298 208.347 234.638 213.946 239.05C219.545 243.462 222.388 251.095 220.088 257.641C217.788 264.187 209.978 268.793 202.917 267.103C204.94 261.874 202.664 255.454 197.719 252.443C191.855 248.871 190.241 240.344 193.331 234.707Z"
      fill="#2F2E41" />
    <path
      d="M201.987 325.151L201.726 325.042C192.631 321.236 183.712 318.316 175.357 315.651L175.1 315.6L175.1 314.919L175.266 314.972C175.301 314.901 175.34 314.821 175.38 314.741C175.494 314.509 175.572 314.351 175.638 314.247L175.636 314.246C176.333 312.944 176.887 311.686 177.422 310.469C177.975 309.213 178.545 307.917 179.282 306.545C177.519 304.986 176.293 302.91 175.779 300.612C175.265 298.315 175.489 295.914 176.418 293.751C178.264 289.738 182.971 286.613 187.916 286.094C189.728 281.519 193.766 271.905 193.766 271.905C193.766 271.905 202.256 271.691 205.671 271.294L205.728 271.287L205.784 271.299C213.239 272.797 219.462 279.267 220.918 287.032C222.147 293.586 220.281 301.083 215.663 308.141C213.279 311.612 210.658 314.914 207.821 318.024C205.741 320.409 203.776 322.662 202.145 324.932L201.987 325.151Z"
      fill="#CCCCCC" />
    <path
      d="M218.45 243.647C213.459 242.964 209.541 238.284 210.108 233.685C210.675 229.086 215.635 225.328 220.666 225.685C225.697 226.042 229.968 230.454 229.758 235.078C229.548 239.703 224.822 244.519 218.45 243.647Z"
      fill="#2F2E41" />
    <path
      d="M217.671 240.665C212.68 239.982 208.762 235.302 209.329 230.703C209.717 227.557 212.161 224.806 215.277 223.495C211.252 224.303 207.788 227.52 207.32 231.317C206.753 235.916 210.671 240.596 215.662 241.279C217.516 241.548 219.408 241.305 221.134 240.577C219.993 240.797 218.822 240.826 217.671 240.665Z"
      fill="#2F2E41" />
    <path
      d="M120.861 321.732C121.841 320.27 123.327 319.222 125.033 318.792C126.739 318.362 128.543 318.579 130.099 319.402C130.417 319.57 130.721 319.763 131.009 319.98L151.421 308.521L151.001 319.921L131.682 329.055C130.592 330.081 129.209 330.744 127.725 330.95C126.242 331.156 124.731 330.895 123.402 330.205C122.648 329.849 121.977 329.339 121.432 328.707C120.888 328.075 120.483 327.335 120.243 326.536C120.004 325.736 119.935 324.896 120.041 324.068C120.148 323.24 120.427 322.445 120.861 321.732Z"
      fill="#FFB8B8" />
    <path
      d="M137.644 315.014L137.84 314.89C157.583 302.401 177.993 289.492 199.93 274.697L200.074 274.6L200.228 274.719C204.117 277.742 206.161 283.517 204.982 288.153C203.891 292.442 199.855 295.74 195.156 296.187L168.752 310.35C160.274 315.377 151.498 320.58 142.82 325.646L142.574 325.79L142.433 325.486C140.775 321.92 139.061 318.236 137.753 315.263L137.644 315.014Z"
      fill="#CCCCCC" />
    <path
      d="M550.288 477H0.711886C0.523082 477 0.342011 476.925 0.208506 476.791C0.0750016 476.658 0 476.477 0 476.288C0 476.099 0.0750016 475.917 0.208506 475.784C0.342011 475.65 0.523082 475.575 0.711886 475.575H550.288C550.477 475.575 550.658 475.65 550.791 475.784C550.925 475.917 551 476.099 551 476.288C551 476.477 550.925 476.658 550.791 476.791C550.658 476.925 550.477 477 550.288 477Z"
      fill="#CACACA" />
  </g>
  <defs>
    <clipPath id="clip0_222_36457">
      <rect width="551" height="477" fill="white" />
    </clipPath>
  </defs>
</svg>
  