<svg width="368" height="210" viewBox="0 0 368 210" fill="none" xmlns="http://www.w3.org/2000/svg">
  <g clip-path="url(#clip0_222_36719)">
    <path
      d="M60.4888 95.484V36.4669C60.4888 35.6241 60.824 34.8158 61.4206 34.2198C62.0173 33.6239 62.8265 33.2891 63.6703 33.2891C64.5141 33.2891 65.3233 33.6239 65.92 34.2198C66.5166 34.8158 66.8518 35.6241 66.8518 36.4669V95.484C66.8518 96.3269 66.5166 97.1352 65.92 97.7311C65.3233 98.3271 64.5141 98.6619 63.6703 98.6619C62.8265 98.6619 62.0173 98.3271 61.4206 97.7311C60.824 97.1352 60.4888 96.3269 60.4888 95.484Z"
      fill="#F0F0F0" />
    <path
      d="M52.8759 95.484V36.4669C52.8759 35.6241 53.2111 34.8158 53.8077 34.2198C54.4044 33.6239 55.2136 33.2891 56.0574 33.2891C56.9012 33.2891 57.7104 33.6239 58.307 34.2198C58.9037 34.8158 59.2389 35.6241 59.2389 36.4669V95.484C59.2389 96.3269 58.9037 97.1352 58.307 97.7311C57.7104 98.3271 56.9012 98.6619 56.0574 98.6619C55.2136 98.6619 54.4044 98.3271 53.8077 97.7311C53.2111 97.1352 52.8759 96.3269 52.8759 95.484Z"
      fill="#F0F0F0" />
    <path
      d="M45.2629 95.484V36.4669C45.2629 35.6241 45.5981 34.8158 46.1948 34.2198C46.7914 33.6239 47.6007 33.2891 48.4445 33.2891C49.2883 33.2891 50.0975 33.6239 50.6941 34.2198C51.2908 34.8158 51.626 35.6241 51.626 36.4669V95.484C51.626 96.3269 51.2908 97.1352 50.6941 97.7311C50.0975 98.3271 49.2883 98.6619 48.4445 98.6619C47.6007 98.6619 46.7914 98.3271 46.1948 97.7311C45.5981 97.1352 45.2629 96.3269 45.2629 95.484Z"
      fill="#F0F0F0" />
    <path
      d="M332.693 189.746C331.411 189.747 330.14 189.527 328.934 189.095L328.748 189.028L328.833 188.617C326.674 184.258 327.429 178.287 330.766 173.378C333.801 168.915 338.415 165.67 342.486 162.807C343.003 162.444 343.616 162.244 344.248 162.232C344.88 162.219 345.5 162.396 346.03 162.739C346.561 163.083 346.976 163.576 347.223 164.157C347.47 164.738 347.537 165.379 347.417 165.998L345.961 173.459C344.91 178.841 343.66 183.935 339.954 187.111C337.918 188.813 335.347 189.746 332.693 189.746Z"
      fill="#E6E6E6" />
    <path
      d="M342.227 202.638C340.817 202.63 339.431 202.27 338.196 201.591C336.96 200.912 335.914 199.935 335.153 198.75L335.047 198.586L335.299 198.364C335.95 194.814 339.014 191.652 343.127 190.292C346.865 189.056 350.992 189.258 354.631 189.436C355.112 189.459 355.575 189.625 355.961 189.911C356.348 190.198 356.641 190.592 356.803 191.045C356.964 191.498 356.988 191.989 356.87 192.455C356.752 192.921 356.499 193.342 356.141 193.664L352.047 197.356C349.072 200.037 346.105 202.459 342.526 202.632C342.426 202.636 342.326 202.638 342.227 202.638Z"
      fill="#E6E6E6" />
    <path
      d="M329.521 206.584C328.916 202.087 328.295 197.533 328.719 192.988C329.095 188.951 330.301 185.009 332.757 181.776C334.054 180.069 335.64 178.602 337.443 177.44C337.911 177.138 338.343 177.896 337.876 178.197C334.75 180.224 332.346 183.186 331.008 186.659C329.512 190.543 329.272 194.777 329.53 198.902C329.686 201.397 330.016 203.876 330.349 206.351C330.376 206.462 330.36 206.579 330.304 206.679C330.249 206.779 330.158 206.854 330.049 206.89C329.994 206.905 329.937 206.908 329.881 206.901C329.825 206.894 329.77 206.875 329.721 206.847C329.672 206.818 329.629 206.78 329.595 206.735C329.56 206.69 329.535 206.639 329.521 206.584Z"
      fill="#F2F2F2" />
    <path
      d="M327.812 209.169C330.722 203.911 334.098 198.068 340.129 196.2C341.803 195.683 343.563 195.498 345.309 195.654C345.859 195.703 345.722 196.568 345.173 196.52C342.24 196.274 339.314 197.064 336.906 198.753C334.575 200.374 332.76 202.626 331.223 205.015C330.282 206.478 329.44 208.003 328.597 209.526C328.327 210.013 327.54 209.661 327.812 209.169Z"
      fill="#F2F2F2" />
    <path
      d="M326.503 209.092L329.441 209.159L311.724 114.624L308.786 115.177L313.412 139.701H298.508L303.134 115.177L300.196 114.624L282.627 209.159L285.417 209.092L294.654 160.13H317.266L326.503 209.092ZM295.339 156.498L297.823 143.332H314.098L316.581 156.498H295.339Z"
      fill="#CACACA" />
    <path
      d="M198.203 96.9899V65.9444C198.203 65.0226 199.63 64.2727 201.385 64.2727C203.139 64.2727 204.566 65.0226 204.566 65.9444V96.9899C204.566 97.9116 203.139 98.6615 201.385 98.6615C199.63 98.6615 198.203 97.9116 198.203 96.9899Z"
      fill="#F0F0F0" />
    <path
      d="M190.59 96.9899V65.9444C190.59 65.0226 192.017 64.2727 193.772 64.2727C195.526 64.2727 196.953 65.0226 196.953 65.9444V96.9899C196.953 97.9116 195.526 98.6615 193.772 98.6615C192.017 98.6615 190.59 97.9116 190.59 96.9899Z"
      fill="#F0F0F0" />
    <path
      d="M182.977 96.9899V65.9444C182.977 65.0226 184.405 64.2727 186.159 64.2727C187.913 64.2727 189.34 65.0226 189.34 65.9444V96.9899C189.34 97.9116 187.913 98.6615 186.159 98.6615C184.405 98.6615 182.977 97.9116 182.977 96.9899Z"
      fill="#F0F0F0" />
    <path
      d="M247.023 74.1591C247.009 74.0648 246.975 73.9744 246.924 73.894C246.872 73.8136 246.805 73.7449 246.725 73.6923L222.74 57.8762C223.101 57.7255 223.403 57.461 223.6 57.123C223.84 56.7055 223.905 56.2103 223.78 55.7456C223.655 55.2808 223.351 54.8842 222.935 54.6424L220.967 53.5074C220.549 53.268 220.053 53.2036 219.588 53.3281C219.123 53.4527 218.726 53.7561 218.484 54.1721C218.353 54.4007 218.274 54.6554 218.253 54.9179L200.94 43.5011C200.358 42.0945 199.477 40.8315 198.356 39.8C197.236 38.7684 195.904 37.9933 194.454 37.5285V32.4946H188.091V37.5285C185.979 38.2028 184.137 39.5297 182.83 41.3176C181.523 43.1055 180.819 45.262 180.818 47.4759V48.8378H187.182C187.182 49.9215 187.612 50.9607 188.38 51.7269C189.147 52.4932 190.187 52.9236 191.272 52.9236C192.357 52.9236 193.397 52.4932 194.164 51.7269C194.932 50.9607 195.363 49.9215 195.363 48.8378H201.726V47.4759C201.725 46.823 201.663 46.1716 201.542 45.5302L245.342 74.4122L227.147 96.5075C227.006 96.5068 226.866 96.5056 226.723 96.5056C225.272 96.5056 223.865 96.5398 222.525 96.5989C222.606 96.3744 222.641 96.1362 222.629 95.898C222.602 95.4176 222.387 94.9671 222.029 94.645C221.671 94.323 221.2 94.1554 220.719 94.1791L218.449 94.2972C217.968 94.3236 217.517 94.5391 217.195 94.8966C216.872 95.2541 216.705 95.7245 216.728 96.2051C216.745 96.4891 216.829 96.7648 216.975 97.0096C212.962 97.4355 210.361 98.0227 210.361 98.3214C210.361 98.811 217.344 98.3449 226.083 98.3225C226.124 98.436 226.193 98.5369 226.285 98.6147C226.377 98.6925 226.488 98.7444 226.607 98.7652C226.725 98.786 226.848 98.7749 226.961 98.733C227.074 98.6912 227.173 98.62 227.25 98.5269L227.418 98.3226C236.132 98.3469 243.085 98.8099 243.085 98.3214C243.085 97.8608 236.903 96.7151 228.893 96.5314L246.876 74.6931C246.937 74.6194 246.981 74.5337 247.006 74.4417C247.032 74.3497 247.037 74.2535 247.023 74.1591Z"
      fill="#CCCCCC" />
    <path
      d="M247.679 209.319H191.677C190.546 209.318 189.461 208.868 188.66 208.069C187.86 207.269 187.41 206.186 187.409 205.055V113.254C187.408 112.244 187.005 111.275 186.29 110.561C185.575 109.847 184.606 109.445 183.595 109.444H52.5996C51.5884 109.445 50.6189 109.847 49.9038 110.561C49.1888 111.275 48.7865 112.244 48.7853 113.254V205.055C48.7841 206.186 48.3339 207.269 47.5337 208.069C46.7334 208.868 45.6484 209.318 44.5166 209.319H42.6005C41.4688 209.318 40.3837 208.868 39.5835 208.069C38.7832 207.269 38.3331 206.186 38.3318 205.055V108.309C38.3348 105.601 39.4132 103.005 41.3304 101.09C43.2475 99.1747 45.8469 98.0976 48.5581 98.0945H241.722C244.433 98.0976 247.033 99.1748 248.95 101.09C250.867 103.005 251.945 105.601 251.948 108.309V205.055C251.947 206.186 251.497 207.269 250.696 208.069C249.896 208.868 248.811 209.318 247.679 209.319Z"
      fill="#E4E4E4" />
    <path d="M251.721 121.928H187.636V124.652H251.721V121.928Z" fill="white" />
    <path d="M251.721 158.701H187.636V161.424H251.721V158.701Z" fill="white" />
    <path
      d="M134.588 97.6462L132.746 96.8715L131.483 87.649H114.657L113.287 96.8339L111.64 97.6568C111.561 97.6962 111.498 97.761 111.46 97.8408C111.423 97.9205 111.414 98.0105 111.434 98.0962C111.454 98.1819 111.503 98.2582 111.572 98.3129C111.641 98.3675 111.726 98.3972 111.815 98.3973H134.436C134.527 98.3973 134.614 98.366 134.684 98.3089C134.754 98.2517 134.802 98.1722 134.82 98.0838C134.838 97.9953 134.824 97.9034 134.782 97.8237C134.74 97.7439 134.671 97.6812 134.588 97.6462Z"
      fill="#E6E6E6" />
    <path
      d="M164.489 88.876H81.8356C81.402 88.875 80.9864 88.7023 80.6801 88.3957C80.3738 88.089 80.2018 87.6736 80.2018 87.2404V75.5987H166.123V87.2404C166.123 87.6736 165.95 88.089 165.644 88.3956C165.338 88.7023 164.922 88.875 164.489 88.876Z"
      fill="#CCCCCC" />
    <path
      d="M166.209 81.1008H80.1263V31.2885C80.1269 30.7657 80.3351 30.2645 80.7052 29.8949C81.0753 29.5253 81.577 29.3174 82.1004 29.3168H164.235C164.758 29.3174 165.26 29.5253 165.63 29.8949C166 30.2645 166.208 30.7657 166.209 31.2885V81.1008Z"
      fill="#3F3D56" />
    <path
      d="M161.068 77.4854H85.2677C84.8642 77.485 84.4774 77.3247 84.1921 77.0397C83.9068 76.7547 83.7463 76.3684 83.7458 75.9653V34.4521C83.7463 34.0491 83.9068 33.6627 84.1921 33.3778C84.4774 33.0928 84.8642 32.9325 85.2677 32.932H161.068C161.471 32.9325 161.858 33.0928 162.143 33.3778C162.428 33.6627 162.589 34.0491 162.589 34.4521V75.9653C162.589 76.3684 162.428 76.7547 162.143 77.0397C161.858 77.3247 161.471 77.485 161.068 77.4854Z"
      fill="white" />
    <path
      d="M246.04 37.6978C246.765 37.5934 247.505 37.6491 248.206 37.861C248.907 38.0728 249.553 38.4357 250.099 38.924C250.644 39.4123 251.076 40.0141 251.364 40.6871C251.651 41.3601 251.788 42.0879 251.763 42.8192L268.382 49.2087L260.853 54.5821L246.226 47.6907C244.998 47.5681 243.859 47.0002 243.023 46.0944C242.186 45.1887 241.712 44.0081 241.689 42.7763C241.666 41.5446 242.097 40.3473 242.899 39.4112C243.701 38.4752 244.819 37.8656 246.04 37.6978Z"
      fill="#9E616A" />
    <path
      d="M309.143 34.5612L311.954 39.6669C311.275 42.9053 309.519 45.819 306.972 47.9342C302.667 51.5604 280.16 65.0658 280.16 65.0658L251.745 50.8176L256.716 44.2199L279.024 51.6873C287.299 43.882 297.286 38.1156 308.187 34.8476L309.143 34.5612Z"
      fill="#E4E4E4" />
    <path
      d="M303.915 119.049C316.162 119.049 326.09 115.817 326.09 111.831C326.09 107.845 316.162 104.614 303.915 104.614C291.667 104.614 281.739 107.845 281.739 111.831C281.739 115.817 291.667 119.049 303.915 119.049Z"
      fill="#CACACA" />
    <path d="M254.166 202.976L248.277 201.35L251.753 177.889L260.444 180.29L254.166 202.976Z"
      fill="#9E616A" />
    <path
      d="M254.09 209.092L235.103 203.849L235.169 203.61C235.711 201.652 237.009 199.989 238.778 198.988C240.547 197.986 242.642 197.727 244.602 198.268L244.602 198.268L256.199 201.47L254.09 209.092Z"
      fill="#2F2E41" />
    <path d="M237.093 203.052L231.504 200.587L238.363 177.883L246.612 181.52L237.093 203.052Z"
      fill="#9E616A" />
    <path
      d="M236.126 209.092L218.106 201.144L218.206 200.916C219.028 199.058 220.554 197.602 222.451 196.868C224.347 196.135 226.457 196.183 228.317 197.004L228.318 197.004L239.324 201.858L236.126 209.092Z"
      fill="#2F2E41" />
    <path
      d="M321.173 94.1854C321.173 94.1854 324.135 103.353 305.96 114.946L282.553 138.243L258.231 196.355L243.792 189.889L246.624 182.339L248.524 177.272L249.496 174.68L250.538 171.901L265.997 130.686L278.982 107.977L279.359 95.6543L282.553 86.9681L305.725 78.7552L321.173 94.1854Z"
      fill="#2F2E41" />
    <path
      d="M309.356 94.6394C309.356 94.6394 312.318 103.807 294.143 115.4L270.736 138.697L246.414 196.809L231.975 190.343L234.807 182.793L236.707 177.726L237.679 175.134L238.721 172.355L254.18 131.14L258.528 123.537C264.263 113.505 271.233 104.231 279.274 95.9278L283.536 91.527L283.991 84.7174L293.908 79.2092L309.356 94.6394Z"
      fill="#2F2E41" />
    <path
      d="M295.353 49.761L302.625 34.3258L315.316 32.5967C315.316 32.5967 325.225 45.2068 322.623 62.9264C321.648 69.5712 320.853 76.1866 320.805 81.9935C320.793 83.5386 322.146 84.2285 322.169 85.6253C322.191 86.9974 319.604 89.2326 320.351 90.1651C321.419 91.4503 322.055 93.0385 322.169 94.7048C321.268 96.8459 294.01 85.2467 282.553 86.968L295.353 49.761Z"
      fill="#E4E4E4" />
    <path
      d="M313.378 24.8259C316.617 19.383 314.826 12.3477 309.376 9.11223C303.927 5.87674 296.884 7.6662 293.645 13.1091C290.405 18.552 292.197 25.5872 297.646 28.8227C303.095 32.0582 310.139 30.2688 313.378 24.8259Z"
      fill="#9E616A" />
    <path
      d="M310.85 14.851C310.828 15.1527 310.797 15.5522 310.762 16.0042C310.727 17.2416 311.076 18.4597 311.762 19.4907C312.404 20.5755 311.638 27.127 311.638 27.127C330.44 14.0359 315.583 0.88392 309.772 2.05304C309.893 0.388248 305.154 1.04776 305.154 1.04776C303.348 -1.76137 299.39 1.96752 299.39 1.96752L300.153 0.684156C297.081 1.46487 294.043 10.951 294.043 10.951C295.085 15.0435 310.971 13.1862 310.85 14.851Z"
      fill="#2F2E41" />
    <path
      d="M237.911 55.8329C244.372 47.2487 249.48 37.7274 253.057 27.5996C253.264 26.9938 253.249 26.3342 253.015 25.7382C252.781 25.1422 252.343 24.6486 251.778 24.3451L229.669 12.512C229.311 12.3191 228.914 12.2103 228.508 12.1938C228.102 12.1774 227.697 12.2537 227.325 12.417C226.946 12.5815 226.61 12.8303 226.341 13.1443C226.073 13.4583 225.88 13.8294 225.777 14.2292C223.203 23.9886 218.366 33.006 211.657 40.5517C211.38 40.8588 211.178 41.2248 211.065 41.6219C210.952 42.019 210.931 42.4366 211.003 42.843C211.073 43.243 211.234 43.6217 211.473 43.9503C211.711 44.2789 212.022 44.5488 212.381 44.7395L234.49 56.5726C235.056 56.8738 235.71 56.9648 236.336 56.8293C236.963 56.6939 237.521 56.3408 237.911 55.8329Z"
      fill="#CCCCCC" />
    <path
      d="M236.402 54.7005C236.283 54.8488 236.116 54.951 235.93 54.9894C235.744 55.0278 235.55 55.0001 235.382 54.911L213.272 43.0777C213.165 43.0219 213.072 42.9419 213.001 42.8441C212.93 42.7463 212.882 42.6334 212.862 42.5141C212.839 42.3882 212.845 42.2587 212.881 42.1358C212.916 42.0128 212.98 41.8997 213.066 41.8054C219.974 34.0374 224.953 24.7543 227.602 14.7073C227.633 14.5832 227.692 14.4678 227.775 14.3702C227.858 14.2727 227.962 14.1956 228.079 14.1449C228.19 14.0955 228.311 14.0723 228.432 14.0773C228.553 14.0823 228.672 14.1153 228.778 14.1738L250.887 26.0067C251.054 26.0971 251.185 26.2431 251.256 26.4195C251.327 26.5958 251.335 26.7915 251.277 26.9726C247.764 36.9191 242.748 46.27 236.402 54.7005Z"
      fill="white" />
    <path
      d="M228.667 25.4163L243.917 34.3443C245.434 35.2325 246.808 32.8792 245.293 31.9923L230.044 23.0643C228.526 22.176 227.152 24.5294 228.667 25.4163Z"
      fill="var(--ing-palette-primary-main)" />
    <path
      d="M225.94 30.41L241.19 39.338C242.707 40.2263 244.081 37.8729 242.566 36.9861L227.317 28.058C225.799 27.1697 224.425 29.5232 225.94 30.41Z"
      fill="var(--ing-palette-primary-main)" />
    <path
      d="M222.759 35.8577L238.008 44.7857C239.525 45.6739 240.899 43.3206 239.385 42.4337L224.135 33.5057C222.618 32.6174 221.244 34.9708 222.759 35.8577Z"
      fill="var(--ing-palette-primary-main)" />
    <path
      d="M219.577 40.3975L234.827 49.3255C236.344 50.2137 237.718 47.8604 236.203 46.9735L220.954 38.0455C219.436 37.1572 218.062 39.5106 219.577 40.3975Z"
      fill="var(--ing-palette-primary-main)" />
    <path
      d="M289.096 92.9129L294.821 105.772C294.959 106.08 295.018 106.417 294.992 106.754C294.967 107.09 294.858 107.415 294.676 107.699C294.461 108.038 294.15 108.306 293.783 108.469C293.416 108.632 293.008 108.683 292.612 108.615C292.477 108.595 292.345 108.559 292.218 108.51C291.712 108.315 291.304 107.927 291.083 107.432L285.358 94.5731C285.249 94.328 285.189 94.0638 285.182 93.7956C285.175 93.5274 285.221 93.2605 285.318 93.0101C285.512 92.5043 285.9 92.0965 286.396 91.8764C286.891 91.6562 287.454 91.6418 287.961 91.8361C288.467 92.0305 288.875 92.4179 289.096 92.9129Z"
      fill="var(--ing-palette-primary-main)" />
    <path
      d="M294.359 104.735L295.506 107.33L296.092 111.01C296.131 111.252 296.089 111.5 295.972 111.716C295.854 111.932 295.669 112.102 295.445 112.202C295.221 112.302 294.969 112.325 294.731 112.267C294.492 112.209 294.279 112.075 294.125 111.884L291.752 108.934L290.621 106.395L294.359 104.735Z"
      fill="#3F3D56" />
    <path
      d="M284.086 89.3353L284.906 94.4834C284.933 94.652 284.998 94.8121 285.097 94.9514C285.196 95.0908 285.325 95.2056 285.475 95.287C285.625 95.3684 285.792 95.4143 285.963 95.421C286.134 95.4277 286.304 95.3951 286.46 95.3258L287.273 94.9645L288.843 98.4904C288.892 98.6002 288.983 98.6861 289.095 98.7292C289.208 98.7722 289.333 98.7689 289.443 98.7201C289.553 98.6712 289.639 98.5807 289.682 98.4685C289.725 98.3562 289.722 98.2314 289.673 98.1215L288.104 94.5956L288.917 94.2343C289.187 94.1143 289.398 93.8926 289.504 93.6176C289.61 93.3426 289.603 93.0367 289.484 92.7668C289.445 92.6775 289.393 92.5937 289.332 92.5177L286.054 88.461C285.9 88.2702 285.687 88.1355 285.448 88.078C285.209 88.0205 284.958 88.0434 284.734 88.1431C284.509 88.2427 284.324 88.4136 284.207 88.6292C284.09 88.8448 284.047 89.093 284.086 89.3353Z"
      fill="#3F3D56" />
    <path
      d="M286.461 98.6275C286.59 97.9072 286.875 97.2239 287.297 96.6257C287.719 96.0276 288.267 95.5292 288.903 95.1655C289.539 94.8019 290.247 94.5819 290.977 94.521C291.707 94.4602 292.441 94.5599 293.128 94.8133L304.43 81.0676L307.167 89.8972L296.015 101.597C295.512 102.722 294.614 103.623 293.49 104.131C292.366 104.639 291.095 104.717 289.918 104.351C288.74 103.985 287.737 103.2 287.1 102.145C286.463 101.09 286.236 99.8387 286.461 98.6275Z"
      fill="#9E616A" />
    <path
      d="M300.689 97.7343L295.711 90.5526L309.846 71.7283L302.564 56.1432L303.094 37.605L309.111 36.4948L309.186 36.5322C312.111 38.2141 314.373 40.8449 315.594 43.9877C317.095 47.7359 320.446 61.8066 322.31 69.86C322.676 71.4207 322.636 73.049 322.194 74.5898C321.751 76.1306 320.921 77.5326 319.783 78.6623L300.689 97.7343Z"
      fill="#E4E4E4" />
    <path
      d="M160.537 63.0329C160.495 63.3817 160.482 63.7332 160.496 64.0842L135.01 82.6037L128.009 79.5087L121.952 89.4524L133.813 96.1346C134.771 96.6744 135.879 96.8892 136.97 96.7467C138.061 96.6042 139.076 96.1121 139.863 95.3442L165.513 70.3194C166.826 70.6527 168.209 70.5787 169.479 70.1075C170.749 69.6362 171.845 68.79 172.622 67.6813C173.398 66.5726 173.819 65.2541 173.827 63.901C173.835 62.548 173.43 61.2245 172.667 60.1068C171.903 58.989 170.817 58.1298 169.553 57.6436C168.289 57.1573 166.907 57.067 165.59 57.3846C164.273 57.7023 163.084 58.4129 162.182 59.4218C161.279 60.4308 160.705 61.6903 160.537 63.0329Z"
      fill="#FFB6B6" />
    <path
      d="M134.186 83.2807L126.754 95.6507C126.543 96.0026 126.258 96.3049 125.919 96.537C125.58 96.769 125.195 96.9254 124.79 96.9954C124.385 97.0654 123.97 97.0474 123.572 96.9427C123.175 96.8379 122.805 96.6488 122.487 96.3883L111.36 87.26C109.563 86.169 108.273 84.411 107.773 82.3716C107.272 80.3321 107.601 78.1775 108.688 76.3801C109.775 74.5828 111.531 73.2892 113.572 72.7831C115.612 72.277 117.77 72.5995 119.573 73.6801L132.83 79.1728C133.21 79.3302 133.551 79.5674 133.831 79.8684C134.11 80.1693 134.321 80.5269 134.45 80.9167C134.579 81.3065 134.622 81.7195 134.576 82.1274C134.531 82.5354 134.398 82.9287 134.186 83.2807Z"
      fill="var(--ing-palette-primary-main)" />
    <path d="M102.342 190.799H116.91V166.686H102.342V190.799Z" fill="#CACACA" />
    <path d="M116.18 179.445L114.31 182.198L149.274 205.895L151.143 203.143L116.18 179.445Z"
      fill="#CACACA" />
    <path d="M103.072 179.445L68.1093 203.143L69.979 205.895L104.942 182.197L103.072 179.445Z"
      fill="#CACACA" />
    <path
      d="M150.208 209.092C152.737 209.092 154.787 207.045 154.787 204.519C154.787 201.993 152.737 199.946 150.208 199.946C147.68 199.946 145.63 201.993 145.63 204.519C145.63 207.045 147.68 209.092 150.208 209.092Z"
      fill="#CACACA" />
    <path
      d="M109.418 209.092C111.947 209.092 113.997 207.045 113.997 204.519C113.997 201.993 111.947 199.946 109.418 199.946C106.89 199.946 104.84 201.993 104.84 204.519C104.84 207.045 106.89 209.092 109.418 209.092Z"
      fill="#CACACA" />
    <path
      d="M69.0442 209.092C71.5728 209.092 73.6227 207.045 73.6227 204.519C73.6227 201.993 71.5728 199.946 69.0442 199.946C66.5156 199.946 64.4657 201.993 64.4657 204.519C64.4657 207.045 66.5156 209.092 69.0442 209.092Z"
      fill="#CACACA" />
    <path d="M111.083 180.821H107.753V204.519H111.083V180.821Z" fill="#CACACA" />
    <path d="M106.505 177.495H112.748V145.483H106.505V177.495Z" fill="#CACACA" />
    <path
      d="M91.7285 150.472V142.988C91.7301 141.611 92.2787 140.29 93.2541 139.315C94.2295 138.341 95.5519 137.793 96.9313 137.792H124.819C126.198 137.793 127.52 138.341 128.496 139.315C129.471 140.29 130.02 141.611 130.021 142.988V150.472C130.02 151.85 129.471 153.171 128.496 154.145C127.52 155.119 126.198 155.667 124.819 155.669H96.9313C95.5519 155.667 94.2295 155.119 93.2541 154.145C92.2787 153.171 91.7301 151.85 91.7285 150.472Z"
      fill="#3F3D56" />
    <path d="M142.096 201.625L149.808 201.624L153.478 181.644L142.095 181.645L142.096 201.625Z"
      fill="#FFB8B8" />
    <path
      d="M140.129 209.092L164.998 209.091V208.777C164.998 207.507 164.747 206.25 164.261 205.077C163.774 203.904 163.061 202.838 162.163 201.941C161.264 201.043 160.197 200.331 159.023 199.845C157.848 199.359 156.59 199.109 155.318 199.109H155.317L140.129 199.109L140.129 209.092Z"
      fill="#2F2E41" />
    <path
      d="M153.632 189.235L169.007 154.796C170.291 151.893 170.433 148.614 169.405 145.611C168.377 142.609 166.254 140.103 163.459 138.594L130.109 120.731L114.891 119.438L100.853 118.164L100.752 118.335C100.622 118.553 97.6042 123.761 99.6444 129.471C101.192 133.802 105.217 137.185 111.609 139.526C126.527 144.989 143.761 149.659 150.478 151.413C150.775 151.489 151.052 151.626 151.292 151.817C151.532 152.008 151.728 152.247 151.869 152.519C152.01 152.787 152.094 153.082 152.115 153.385C152.136 153.688 152.095 153.992 151.992 154.277L137.708 186.333C137.559 186.739 137.505 187.175 137.551 187.605C137.597 188.036 137.741 188.45 137.973 188.816C138.204 189.182 138.517 189.49 138.887 189.717C139.256 189.943 139.673 190.081 140.104 190.121L150.778 190.898C150.869 190.906 150.959 190.911 151.049 190.911C151.595 190.91 152.13 190.752 152.588 190.455C153.047 190.157 153.409 189.734 153.632 189.235Z"
      fill="#2F2E41" />
    <path d="M137.064 201.625L144.776 201.624L148.445 181.644L137.063 181.645L137.064 201.625Z"
      fill="#FFB8B8" />
    <path
      d="M135.097 209.092L159.965 209.091V208.777C159.965 207.507 159.715 206.25 159.228 205.077C158.742 203.904 158.029 202.838 157.13 201.941C156.231 201.043 155.164 200.331 153.99 199.845C152.815 199.359 151.557 199.109 150.286 199.109H150.285L135.096 199.109L135.097 209.092Z"
      fill="#2F2E41" />
    <path
      d="M147.97 191.12L163.345 156.681C164.629 153.778 164.771 150.499 163.743 147.497C162.715 144.494 160.592 141.989 157.798 140.479L124.448 122.616L109.229 121.323L98.2341 120.371L98.2356 120.22C98.1061 120.438 95.0878 125.646 97.1281 131.356C98.6757 135.687 99.5557 139.07 105.947 141.411C120.866 146.874 138.099 151.544 144.816 153.298C145.113 153.374 145.39 153.511 145.63 153.702C145.87 153.893 146.067 154.132 146.207 154.404C146.348 154.672 146.432 154.967 146.453 155.27C146.474 155.573 146.433 155.877 146.331 156.162L132.046 188.218C131.897 188.625 131.843 189.06 131.889 189.49C131.935 189.921 132.079 190.335 132.311 190.701C132.543 191.067 132.855 191.375 133.225 191.602C133.594 191.828 134.011 191.967 134.443 192.007L145.116 192.783C145.207 192.791 145.297 192.796 145.387 192.796C145.933 192.795 146.468 192.637 146.927 192.34C147.385 192.042 147.747 191.619 147.97 191.12Z"
      fill="#2F2E41" />
    <path
      d="M138.325 42.7823C140.299 34.4901 135.17 26.1693 126.868 24.1972C118.566 22.2252 110.236 27.3488 108.262 35.641C106.287 43.9333 111.417 52.2541 119.719 54.2261C128.02 56.1981 136.351 51.0746 138.325 42.7823Z"
      fill="#FFB8B8" />
    <path
      d="M176.553 98.5069C183.014 89.9227 188.122 80.4013 191.699 70.2735C191.906 69.6677 191.891 69.0081 191.657 68.4121C191.423 67.8162 190.985 67.3225 190.42 67.019L168.311 55.186C167.953 54.9931 167.556 54.8843 167.15 54.8678C166.744 54.8513 166.339 54.9276 165.967 55.0909C165.588 55.2555 165.252 55.5042 164.983 55.8183C164.715 56.1323 164.522 56.5033 164.419 56.9031C161.846 66.6626 157.008 75.6799 150.299 83.2256C150.022 83.5327 149.82 83.8988 149.707 84.2958C149.594 84.6929 149.573 85.1106 149.646 85.517C149.716 85.9169 149.876 86.2956 150.115 86.6243C150.353 86.9529 150.664 87.2228 151.023 87.4134L173.132 99.2465C173.698 99.5477 174.352 99.6387 174.979 99.5033C175.605 99.3678 176.163 99.0147 176.553 98.5069Z"
      fill="#CCCCCC" />
    <path
      d="M175.044 97.3745C174.925 97.5228 174.758 97.6249 174.572 97.6633C174.386 97.7018 174.192 97.6741 174.024 97.585L151.914 85.7517C151.807 85.6958 151.714 85.6158 151.643 85.518C151.572 85.4202 151.524 85.3073 151.504 85.1881C151.481 85.0622 151.487 84.9327 151.523 84.8097C151.558 84.6867 151.622 84.5737 151.708 84.4793C158.616 76.7113 163.595 67.4283 166.245 57.3813C166.275 57.2571 166.334 57.1418 166.417 57.0442C166.5 56.9466 166.604 56.8695 166.721 56.8189C166.832 56.7694 166.953 56.7463 167.074 56.7513C167.195 56.7563 167.314 56.7893 167.42 56.8477L189.529 68.6807C189.696 68.7711 189.827 68.9171 189.898 69.0934C189.969 69.2698 189.977 69.4654 189.919 69.6466C186.406 79.5931 181.39 88.9439 175.044 97.3745Z"
      fill="white" />
    <path
      d="M167.309 68.0902L182.559 77.0181C184.076 77.9064 185.45 75.553 183.935 74.6662L168.686 65.7381C167.168 64.8499 165.794 67.2033 167.309 68.0902Z"
      fill="#CCCCCC" />
    <path
      d="M164.582 73.0839L179.832 82.0119C181.349 82.9002 182.723 80.5468 181.208 79.6599L165.959 70.7319C164.441 69.8436 163.067 72.197 164.582 73.0839Z"
      fill="#CCCCCC" />
    <path
      d="M162.44 78.0583L176.308 86.2819C177.688 87.1001 179.164 85.4085 177.786 84.5916L163.918 76.3679C162.538 75.5497 161.062 77.2413 162.44 78.0583Z"
      fill="#CCCCCC" />
    <path
      d="M158.219 83.0714L173.469 91.9994C174.986 92.8877 176.36 90.5343 174.845 89.6474L159.596 80.7194C158.078 79.8311 156.704 82.1845 158.219 83.0714Z"
      fill="#CCCCCC" />
    <path
      d="M132.202 121.981L101.626 121.799L101.618 121.581C101.035 106.258 102.91 92.377 107.35 79.146C107.412 78.6508 107.48 78.1215 107.547 77.6019C108.305 71.6824 108.907 66.9826 114.543 65.2323C114.073 64.6087 113.797 63.8616 113.747 63.083C113.711 62.5655 113.779 62.0462 113.946 61.5551C114.114 61.0641 114.377 60.6113 114.722 60.223C115.051 59.848 115.452 59.5422 115.901 59.3235C116.35 59.1047 116.838 58.9774 117.336 58.9489L128.219 58.5787C128.791 58.5748 129.348 58.7633 129.8 59.1138C130.628 59.7286 131.21 60.6179 131.442 61.6226C131.674 62.6272 131.54 63.6815 131.065 64.5965C130.937 64.8515 130.888 64.9676 130.869 65.0182C131.256 67.0429 132.404 69.448 133.618 71.9932C135.358 75.6374 137.329 79.7676 137.836 84.1863C138.11 86.5721 137.996 88.9864 137.499 91.336C137.272 92.6021 137.22 93.8933 137.344 95.1735C137.444 97.0719 137.537 98.8643 136.463 100.598C136.189 101.068 135.876 101.569 135.508 102.124L133.997 105.732L132.202 121.981Z"
      fill="var(--ing-palette-primary-main)" />
    <path
      d="M86.3176 143.425V81.0209C86.3199 78.9874 87.1296 77.0379 88.5692 75.6C90.0088 74.1621 91.9606 73.3532 93.9964 73.351H96.1202C98.1561 73.3532 100.108 74.1621 101.547 75.6C102.987 77.0379 103.797 78.9874 103.799 81.0209V143.425C103.797 145.459 102.987 147.409 101.547 148.846C100.108 150.284 98.1561 151.093 96.1202 151.095H93.9964C91.9606 151.093 90.0088 150.284 88.5692 148.846C87.1296 147.409 86.3199 145.459 86.3176 143.425Z"
      fill="#3F3D56" />
    <path
      d="M168.312 87.2495C168.092 87.5239 167.895 87.8152 167.721 88.1206L136.289 90.4131L131.978 84.093L121.578 89.3448L128.121 101.274C128.65 102.238 129.477 103.004 130.479 103.458C131.481 103.913 132.603 104.03 133.677 103.793L168.688 96.0619C169.627 97.0371 170.841 97.7037 172.168 97.973C173.496 98.2422 174.874 98.1014 176.119 97.5692C177.365 97.037 178.419 96.1387 179.141 94.9937C179.862 93.8487 180.218 92.5114 180.161 91.1595C180.103 89.8077 179.635 88.5054 178.818 87.4259C178.001 86.3464 176.875 85.5408 175.588 85.1163C174.302 84.6919 172.917 84.6686 171.617 85.0497C170.317 85.4307 169.164 86.198 168.312 87.2495Z"
      fill="#FFB6B6" />
    <path
      d="M135.231 90.5535L122.382 97.1414C122.016 97.3288 121.614 97.4353 121.204 97.4537C120.793 97.4721 120.384 97.4018 120.003 97.2478C119.622 97.0938 119.279 96.8595 118.996 96.5611C118.714 96.2626 118.5 95.9069 118.368 95.5182L113.741 81.8982C112.792 80.0285 112.623 77.8595 113.271 75.8657C113.919 73.8719 115.331 72.2156 117.199 71.259C111.503 74.1793 123.365 65.8841 127.893 74.6946L136.251 86.3498C136.49 86.6836 136.654 87.0649 136.732 87.4679C136.811 87.8708 136.801 88.2859 136.704 88.6848C136.608 89.0838 136.426 89.4572 136.172 89.7797C135.917 90.1021 135.597 90.3661 135.231 90.5535Z"
      fill="var(--ing-palette-primary-main)" />
    <path
      d="M116.314 54.2224C115.384 54.2224 114.357 53.7747 113.2 52.8676C109.796 50.1975 107.363 46.4856 106.274 42.3013C105.185 38.117 105.5 33.6913 107.171 29.7032C108.012 27.6962 109.586 24.9683 112.304 23.3697C114.258 22.221 116.553 21.806 118.551 21.5072C120.28 21.2483 122.032 21.0421 123.756 20.8954C125.817 20.7194 128.197 20.6006 130.367 21.4243C131.958 22.0281 133.312 23.0943 134.621 24.1255C135.077 24.4846 135.549 24.8566 136.022 25.2006C137.167 26.0929 138.487 26.7336 139.897 27.0808C140.195 27.1425 140.476 27.2671 140.721 27.4465C140.966 27.6258 141.17 27.8557 141.318 28.1204C141.47 28.3896 141.562 28.6881 141.588 28.9958C141.614 29.3035 141.574 29.6132 141.47 29.904C141.266 30.4759 141.082 30.9915 141.454 31.5501C141.593 31.7469 141.777 31.9069 141.991 32.016C142.206 32.1251 142.444 32.1801 142.684 32.1761C142.811 32.174 142.937 32.2037 143.049 32.2624C143.162 32.3211 143.258 32.4069 143.329 32.5122C143.401 32.6165 143.446 32.7368 143.461 32.8626C143.476 32.9884 143.459 33.1159 143.413 33.2339L143.354 33.3878C143.513 33.4027 143.667 33.4561 143.802 33.5436C143.937 33.6312 144.048 33.75 144.127 33.89C144.243 34.0894 144.288 34.3226 144.254 34.5511C144.22 34.7795 144.109 34.9895 143.94 35.1465C142.561 36.4574 140.842 37.3561 138.978 37.7405C137.702 37.9904 136.389 37.9874 135.115 37.7316L134.91 37.6917L134.935 37.4647C129.779 35.6279 125.125 38.7451 122.472 42.3086L122.088 42.067C122.154 41.9342 122.193 41.7894 122.201 41.6415C122.209 41.4935 122.188 41.3454 122.137 41.206C122.084 41.0388 121.998 40.8837 121.884 40.7496C121.771 40.6156 121.632 40.5052 121.476 40.4248C121.16 40.2946 120.812 40.2608 120.477 40.3277C120.142 40.3945 119.834 40.559 119.592 40.8004C119.346 41.0581 119.156 41.3642 119.035 41.6992C118.914 42.0342 118.864 42.3908 118.888 42.7462C118.958 43.4994 119.15 44.2363 119.457 44.9278C119.581 45.2586 119.71 45.6008 119.815 45.9457C120.403 47.9052 120.246 50.0121 119.376 51.8634C118.974 52.708 118.248 53.7848 117.069 54.1187C116.823 54.188 116.569 54.2229 116.314 54.2224Z"
      fill="#2F2E41" />
    <path
      d="M367.459 210H0.541192C0.397936 210 0.260693 209.942 0.159542 209.841C0.0583918 209.74 0.00158691 209.603 0.00158691 209.459C0.00158691 209.316 0.0583918 209.179 0.159542 209.078C0.260693 208.976 0.397936 208.919 0.541192 208.919H367.459C367.602 208.919 367.74 208.976 367.842 209.077C367.943 209.179 368 209.316 368 209.459C368 209.603 367.943 209.74 367.842 209.842C367.74 209.943 367.602 210 367.459 210Z"
      fill="#CACACA" />
  </g>
  <defs>
    <clipPath id="clip0_222_36719">
      <rect width="368" height="210" fill="white" />
    </clipPath>
  </defs>
</svg>
  